<ttFont>
    <TTGlyph name=".notdef" xMin="221" yMin="0" xMax="1637" yMax="1416">
      <contour>
        <pt x="221" y="1416" on="1"/>
        <pt x="1637" y="1416" on="1"/>
        <pt x="1637" y="0" on="1"/>
        <pt x="221" y="0" on="1"/>
      </contour>
      <contour>
        <pt x="579" y="219" on="1"/>
        <pt x="926" y="587" on="1"/>
        <pt x="1288" y="219" on="1"/>
        <pt x="1410" y="341" on="1"/>
        <pt x="1047" y="709" on="1"/>
        <pt x="1410" y="1067" on="1"/>
        <pt x="1282" y="1191" on="1"/>
        <pt x="930" y="825" on="1"/>
        <pt x="573" y="1193" on="1"/>
        <pt x="450" y="1068" on="1"/>
        <pt x="809" y="705" on="1"/>
        <pt x="451" y="363" on="1"/>
      </contour>
    </TTGlyph>
    <TTGlyph name="A" xMin="-100" yMin="-1" xMax="1235" yMax="1530">
      <contour>
        <pt x="644" y="1530" on="1"/>
        <pt x="978" y="1530" on="1"/>
        <pt x="1235" y="0" on="1"/>
        <pt x="958" y="-1" on="1"/>
        <pt x="910" y="341" on="1"/>
        <pt x="349" y="341" on="1"/>
        <pt x="201" y="0" on="1"/>
        <pt x="-100" y="-1" on="1"/>
      </contour>
      <contour>
        <pt x="882" y="537" on="1"/>
        <pt x="787" y="1219" on="1"/>
        <pt x="777" y="1337" on="1"/>
        <pt x="730" y="1216" on="1"/>
        <pt x="434" y="537" on="1"/>
      </contour>
    </TTGlyph>
    <TTGlyph name="AE" xMin="-125" yMin="0" xMax="1840" yMax="1530">
      <contour>
        <pt x="642" y="1368" on="1"/>
        <pt x="375" y="1395" on="1"/>
        <pt x="396" y="1530" on="1"/>
        <pt x="1840" y="1530" on="1"/>
        <pt x="1818" y="1314" on="1"/>
        <pt x="1247" y="1319" on="1"/>
        <pt x="1189" y="887" on="1"/>
        <pt x="1618" y="893" on="1"/>
        <pt x="1594" y="672" on="1"/>
        <pt x="1162" y="684" on="1"/>
        <pt x="1098" y="210" on="1"/>
        <pt x="1765" y="223" on="1"/>
        <pt x="1739" y="0" on="1"/>
        <pt x="794" y="0" on="1"/>
        <pt x="842" y="356" on="1"/>
        <pt x="367" y="356" on="1"/>
        <pt x="178" y="0" on="1"/>
        <pt x="-125" y="0" on="1"/>
      </contour>
      <contour>
        <pt x="869" y="557" on="1"/>
        <pt x="973" y="1328" on="1"/>
        <pt x="887" y="1336" on="1"/>
        <pt x="473" y="557" on="1"/>
      </contour>
    </TTGlyph>
    <TTGlyph name="AEacute" xMin="-119" yMin="0" xMax="1846" yMax="2007">
      <component glyphName="acute.cap" x="983" y="0" flags="0x4"/>
      <component glyphName="AE" x="6" y="0" flags="0x4"/>
    </TTGlyph>
    <TTGlyph name="Aacute" xMin="-100" yMin="-1" xMax="1235" yMax="2007">
      <component glyphName="A" x="0" y="0" flags="0x204"/>
      <component glyphName="acute.cap" x="678" y="0" flags="0x4"/>
    </TTGlyph>
    <TTGlyph name="Abreve" xMin="-100" yMin="-1" xMax="1235" yMax="1997">
      <component glyphName="A" x="0" y="0" flags="0x204"/>
      <component glyphName="breve.cap" x="470" y="0" flags="0x4"/>
    </TTGlyph>
    <TTGlyph name="Acircumflex" xMin="-100" yMin="-1" xMax="1235" yMax="2007">
      <component glyphName="A" x="0" y="0" flags="0x204"/>
      <component glyphName="circumflex.cap" x="425" y="0" flags="0x4"/>
    </TTGlyph>
    <TTGlyph name="Adieresis" xMin="-100" yMin="-1" xMax="1235" yMax="1977">
      <component glyphName="A" x="0" y="0" flags="0x204"/>
      <component glyphName="dieresis.cap" x="341" y="0" flags="0x4"/>
    </TTGlyph>
    <TTGlyph name="Agrave" xMin="-100" yMin="-1" xMax="1235" yMax="2007">
      <component glyphName="A" x="0" y="0" flags="0x204"/>
      <component glyphName="grave.cap" x="446" y="0" flags="0x4"/>
    </TTGlyph>
    <TTGlyph name="Amacron" xMin="-100" yMin="-1" xMax="1235" yMax="1897">
      <component glyphName="A" x="0" y="0" flags="0x204"/>
      <component glyphName="macron.cap" x="499" y="0" flags="0x4"/>
    </TTGlyph>
    <TTGlyph name="Aogonek" xMin="-94" yMin="-473" xMax="1241" yMax="1530">
      <contour>
        <pt x="650" y="1530" on="1"/>
        <pt x="984" y="1530" on="1"/>
        <pt x="1241" y="0" on="1"/>
        <pt x="1193" y="0" on="1"/>
        <pt x="1154" y="-21" on="0"/>
        <pt x="1073" y="-73" on="0"/>
        <pt x="1008" y="-130" on="0"/>
        <pt x="967" y="-187" on="0"/>
        <pt x="967" y="-213" on="1"/>
        <pt x="967" y="-234" on="0"/>
        <pt x="979" y="-261" on="0"/>
        <pt x="997" y="-276" on="0"/>
        <pt x="1020" y="-282" on="0"/>
        <pt x="1032" y="-282" on="1"/>
        <pt x="1066" y="-282" on="0"/>
        <pt x="1131" y="-259" on="0"/>
        <pt x="1173" y="-227" on="1"/>
        <pt x="1219" y="-364" on="1"/>
        <pt x="1173" y="-409" on="0"/>
        <pt x="1031" y="-473" on="0"/>
        <pt x="932" y="-473" on="1"/>
        <pt x="882" y="-473" on="0"/>
        <pt x="806" y="-442" on="0"/>
        <pt x="755" y="-393" on="0"/>
        <pt x="729" y="-331" on="0"/>
        <pt x="729" y="-299" on="1"/>
        <pt x="729" y="-246" on="0"/>
        <pt x="785" y="-152" on="0"/>
        <pt x="866" y="-75" on="0"/>
        <pt x="955" y="-17" on="0"/>
        <pt x="988" y="-1" on="1"/>
        <pt x="964" y="-1" on="1"/>
        <pt x="916" y="341" on="1"/>
        <pt x="355" y="341" on="1"/>
        <pt x="207" y="0" on="1"/>
        <pt x="-94" y="-1" on="1"/>
      </contour>
      <contour>
        <pt x="888" y="537" on="1"/>
        <pt x="793" y="1219" on="1"/>
        <pt x="783" y="1337" on="1"/>
        <pt x="736" y="1216" on="1"/>
        <pt x="440" y="537" on="1"/>
      </contour>
    </TTGlyph>
    <TTGlyph name="Aring" xMin="-100" yMin="-1" xMax="1235" yMax="2007">
      <component glyphName="A" x="0" y="0" flags="0x204"/>
      <component glyphName="ring.cap" x="449" y="0" flags="0x4"/>
    </TTGlyph>
    <TTGlyph name="Atilde" xMin="-100" yMin="-1" xMax="1279" yMax="1975">
      <component glyphName="A" x="0" y="0" flags="0x204"/>
      <component glyphName="tilde.cap" x="434" y="0" flags="0x4"/>
    </TTGlyph>
    <TTGlyph name="B" xMin="91" yMin="-15" xMax="1219" yMax="1546">
      <contour>
        <pt x="297" y="1530" on="1"/>
        <pt x="438" y="1530" on="1"/>
        <pt x="510" y="1531" on="0"/>
        <pt x="661" y="1546" on="0"/>
        <pt x="739" y="1546" on="1"/>
        <pt x="878" y="1546" on="0"/>
        <pt x="1062" y="1490" on="0"/>
        <pt x="1172" y="1397" on="0"/>
        <pt x="1218" y="1275" on="0"/>
        <pt x="1218" y="1208" on="1"/>
        <pt x="1219" y="1130" on="0"/>
        <pt x="1179" y="999" on="0"/>
        <pt x="1101" y="896" on="0"/>
        <pt x="988" y="822" on="0"/>
        <pt x="915" y="803" on="1"/>
        <pt x="979" y="792" on="0"/>
        <pt x="1085" y="739" on="0"/>
        <pt x="1161" y="658" on="0"/>
        <pt x="1203" y="553" on="0"/>
        <pt x="1203" y="490" on="1"/>
        <pt x="1204" y="354" on="0"/>
        <pt x="1102" y="162" on="0"/>
        <pt x="916" y="41" on="0"/>
        <pt x="654" y="-15" on="0"/>
        <pt x="495" y="-15" on="1"/>
        <pt x="465" y="-15" on="0"/>
        <pt x="391" y="-10" on="0"/>
        <pt x="314" y="-5" on="0"/>
        <pt x="242" y="0" on="0"/>
        <pt x="215" y="0" on="1"/>
        <pt x="91" y="0" on="1"/>
      </contour>
      <contour>
        <pt x="486" y="886" on="1"/>
        <pt x="518" y="884" on="0"/>
        <pt x="586" y="884" on="0"/>
        <pt x="617" y="884" on="1"/>
        <pt x="689" y="884" on="0"/>
        <pt x="807" y="920" on="0"/>
        <pt x="892" y="992" on="0"/>
        <pt x="938" y="1102" on="0"/>
        <pt x="937" y="1177" on="1"/>
        <pt x="935" y="1274" on="0"/>
        <pt x="811" y="1354" on="0"/>
        <pt x="685" y="1354" on="1"/>
        <pt x="651" y="1354" on="0"/>
        <pt x="580" y="1352" on="0"/>
        <pt x="548" y="1348" on="1"/>
      </contour>
      <contour>
        <pt x="393" y="192" on="1"/>
        <pt x="409" y="188" on="0"/>
        <pt x="449" y="184" on="0"/>
        <pt x="490" y="181" on="0"/>
        <pt x="527" y="180" on="0"/>
        <pt x="541" y="180" on="1"/>
        <pt x="622" y="180" on="0"/>
        <pt x="759" y="207" on="0"/>
        <pt x="857" y="274" on="0"/>
        <pt x="911" y="386" on="0"/>
        <pt x="910" y="471" on="1"/>
        <pt x="908" y="593" on="0"/>
        <pt x="761" y="696" on="0"/>
        <pt x="616" y="696" on="1"/>
        <pt x="556" y="696" on="0"/>
        <pt x="485" y="693" on="0"/>
        <pt x="460" y="691" on="1"/>
      </contour>
    </TTGlyph>
    <TTGlyph name="C" xMin="94" yMin="-16" xMax="1195" yMax="1546">
      <contour>
        <pt x="618" y="-16" on="1"/>
        <pt x="519" y="-16" on="0"/>
        <pt x="365" y="35" on="0"/>
        <pt x="249" y="126" on="0"/>
        <pt x="169" y="249" on="0"/>
        <pt x="119" y="391" on="0"/>
        <pt x="96" y="547" on="0"/>
        <pt x="95" y="626" on="1"/>
        <pt x="94" y="757" on="0"/>
        <pt x="144" y="995" on="0"/>
        <pt x="239" y="1199" on="0"/>
        <pt x="376" y="1365" on="0"/>
        <pt x="546" y="1482" on="0"/>
        <pt x="745" y="1546" on="0"/>
        <pt x="856" y="1546" on="1"/>
        <pt x="909" y="1546" on="0"/>
        <pt x="995" y="1536" on="0"/>
        <pt x="1064" y="1521" on="0"/>
        <pt x="1118" y="1502" on="0"/>
        <pt x="1141" y="1494" on="1"/>
        <pt x="1195" y="1478" on="1"/>
        <pt x="1109" y="1228" on="1"/>
        <pt x="1095" y="1238" on="0"/>
        <pt x="1050" y="1268" on="0"/>
        <pt x="983" y="1295" on="0"/>
        <pt x="893" y="1314" on="0"/>
        <pt x="834" y="1314" on="1"/>
        <pt x="748" y="1314" on="0"/>
        <pt x="613" y="1255" on="0"/>
        <pt x="511" y="1153" on="0"/>
        <pt x="440" y="1019" on="0"/>
        <pt x="396" y="868" on="0"/>
        <pt x="376" y="711" on="0"/>
        <pt x="377" y="637" on="1"/>
        <pt x="378" y="539" on="0"/>
        <pt x="413" y="380" on="0"/>
        <pt x="488" y="268" on="0"/>
        <pt x="603" y="207" on="0"/>
        <pt x="683" y="207" on="1"/>
        <pt x="741" y="207" on="0"/>
        <pt x="847" y="228" on="0"/>
        <pt x="934" y="259" on="0"/>
        <pt x="999" y="293" on="0"/>
        <pt x="1016" y="306" on="1"/>
        <pt x="1054" y="98" on="1"/>
        <pt x="1039" y="86" on="0"/>
        <pt x="967" y="48" on="0"/>
        <pt x="856" y="11" on="0"/>
        <pt x="708" y="-16" on="0"/>
      </contour>
    </TTGlyph>
    <TTGlyph name="Cacute" xMin="100" yMin="-16" xMax="1211" yMax="2007">
      <component glyphName="C" x="6" y="0" flags="0x4"/>
      <component glyphName="acute.cap" x="717" y="0" flags="0x4"/>
    </TTGlyph>
    <TTGlyph name="Ccaron" xMin="100" yMin="-16" xMax="1256" yMax="2007">
      <component glyphName="C" x="6" y="0" flags="0x4"/>
      <component glyphName="caron.cap" x="455" y="0" flags="0x4"/>
    </TTGlyph>
    <TTGlyph name="Ccedilla" xMin="100" yMin="-466" xMax="1201" yMax="1546">
      <contour>
        <pt x="300" y="-257" on="1"/>
        <pt x="313" y="-264" on="0"/>
        <pt x="352" y="-272" on="0"/>
        <pt x="375" y="-272" on="1"/>
        <pt x="410" y="-272" on="0"/>
        <pt x="471" y="-260" on="0"/>
        <pt x="517" y="-227" on="0"/>
        <pt x="545" y="-167" on="0"/>
        <pt x="546" y="-120" on="1"/>
        <pt x="547" y="-92" on="0"/>
        <pt x="547" y="-35" on="0"/>
        <pt x="545" y="-11" on="1"/>
        <pt x="420" y="4" on="0"/>
        <pt x="251" y="125" on="0"/>
        <pt x="147" y="302" on="0"/>
        <pt x="102" y="516" on="0"/>
        <pt x="101" y="626" on="1"/>
        <pt x="100" y="757" on="0"/>
        <pt x="150" y="995" on="0"/>
        <pt x="245" y="1199" on="0"/>
        <pt x="382" y="1365" on="0"/>
        <pt x="552" y="1482" on="0"/>
        <pt x="751" y="1546" on="0"/>
        <pt x="862" y="1546" on="1"/>
        <pt x="915" y="1546" on="0"/>
        <pt x="1001" y="1536" on="0"/>
        <pt x="1070" y="1521" on="0"/>
        <pt x="1124" y="1502" on="0"/>
        <pt x="1147" y="1494" on="1"/>
        <pt x="1201" y="1478" on="1"/>
        <pt x="1115" y="1228" on="1"/>
        <pt x="1101" y="1238" on="0"/>
        <pt x="1056" y="1268" on="0"/>
        <pt x="989" y="1295" on="0"/>
        <pt x="899" y="1314" on="0"/>
        <pt x="840" y="1314" on="1"/>
        <pt x="754" y="1314" on="0"/>
        <pt x="619" y="1255" on="0"/>
        <pt x="517" y="1153" on="0"/>
        <pt x="446" y="1019" on="0"/>
        <pt x="402" y="868" on="0"/>
        <pt x="382" y="711" on="0"/>
        <pt x="383" y="637" on="1"/>
        <pt x="384" y="539" on="0"/>
        <pt x="419" y="380" on="0"/>
        <pt x="494" y="268" on="0"/>
        <pt x="609" y="207" on="0"/>
        <pt x="689" y="207" on="1"/>
        <pt x="747" y="207" on="0"/>
        <pt x="853" y="228" on="0"/>
        <pt x="940" y="259" on="0"/>
        <pt x="1005" y="293" on="0"/>
        <pt x="1022" y="306" on="1"/>
        <pt x="1060" y="98" on="1"/>
        <pt x="1047" y="88" on="0"/>
        <pt x="990" y="56" on="0"/>
        <pt x="904" y="23" on="0"/>
        <pt x="791" y="-5" on="0"/>
        <pt x="721" y="-11" on="1"/>
        <pt x="735" y="-49" on="0"/>
        <pt x="753" y="-153" on="0"/>
        <pt x="753" y="-200" on="1"/>
        <pt x="753" y="-335" on="0"/>
        <pt x="603" y="-466" on="0"/>
        <pt x="464" y="-466" on="1"/>
        <pt x="444" y="-466" on="0"/>
        <pt x="385" y="-461" on="0"/>
        <pt x="326" y="-452" on="0"/>
        <pt x="278" y="-440" on="0"/>
        <pt x="269" y="-434" on="1"/>
        <pt x="300" y="-257" on="1"/>
      </contour>
    </TTGlyph>
    <TTGlyph name="Ccircumflex" xMin="100" yMin="-16" xMax="1218" yMax="2007">
      <component glyphName="C" x="6" y="0" flags="0x4"/>
      <component glyphName="circumflex.cap" x="455" y="0" flags="0x4"/>
    </TTGlyph>
    <TTGlyph name="Cdotaccent" xMin="100" yMin="-16" xMax="1201" yMax="1967">
      <component glyphName="dotaccent.cap" x="671" y="0" flags="0x4"/>
      <component glyphName="C" x="6" y="0" flags="0x4"/>
    </TTGlyph>
    <TTGlyph name="D" xMin="91" yMin="-18" xMax="1358" yMax="1546">
      <contour>
        <pt x="297" y="1530" on="1"/>
        <pt x="436" y="1530" on="1"/>
        <pt x="470" y="1530" on="0"/>
        <pt x="560" y="1535" on="0"/>
        <pt x="654" y="1541" on="0"/>
        <pt x="744" y="1546" on="0"/>
        <pt x="778" y="1546" on="1"/>
        <pt x="934" y="1546" on="0"/>
        <pt x="1153" y="1456" on="0"/>
        <pt x="1291" y="1293" on="0"/>
        <pt x="1356" y="1065" on="0"/>
        <pt x="1357" y="927" on="1"/>
        <pt x="1358" y="799" on="0"/>
        <pt x="1312" y="559" on="0"/>
        <pt x="1218" y="348" on="0"/>
        <pt x="1080" y="174" on="0"/>
        <pt x="899" y="50" on="0"/>
        <pt x="676" y="-18" on="0"/>
        <pt x="546" y="-16" on="1"/>
        <pt x="521" y="-16" on="0"/>
        <pt x="450" y="-12" on="0"/>
        <pt x="417" y="-9" on="1"/>
        <pt x="396" y="-8" on="0"/>
        <pt x="343" y="-4" on="0"/>
        <pt x="289" y="-2" on="0"/>
        <pt x="236" y="0" on="0"/>
        <pt x="214" y="0" on="1"/>
        <pt x="91" y="0" on="1"/>
      </contour>
      <contour>
        <pt x="396" y="214" on="1"/>
        <pt x="434" y="201" on="0"/>
        <pt x="537" y="187" on="0"/>
        <pt x="592" y="189" on="1"/>
        <pt x="675" y="190" on="0"/>
        <pt x="812" y="249" on="0"/>
        <pt x="919" y="351" on="0"/>
        <pt x="998" y="489" on="0"/>
        <pt x="1049" y="651" on="0"/>
        <pt x="1073" y="830" on="0"/>
        <pt x="1072" y="922" on="1"/>
        <pt x="1071" y="1043" on="0"/>
        <pt x="1029" y="1205" on="0"/>
        <pt x="941" y="1302" on="0"/>
        <pt x="806" y="1343" on="0"/>
        <pt x="712" y="1343" on="1"/>
        <pt x="694" y="1343" on="0"/>
        <pt x="649" y="1340" on="0"/>
        <pt x="603" y="1336" on="0"/>
        <pt x="560" y="1329" on="0"/>
        <pt x="545" y="1326" on="1"/>
      </contour>
    </TTGlyph>
    <TTGlyph name="Dcaron" xMin="97" yMin="-18" xMax="1364" yMax="2007">
      <component glyphName="caron.cap" x="422" y="0" flags="0x4"/>
      <component glyphName="D" x="6" y="0" flags="0x4"/>
    </TTGlyph>
    <TTGlyph name="Dcroat" xMin="36" yMin="-17" xMax="1364" yMax="1547">
      <component glyphName="Eth" x="0" y="0" flags="0x204"/>
    </TTGlyph>
    <TTGlyph name="Delta" xMin="-44" yMin="0" xMax="1322" yMax="1508">
      <contour>
        <pt x="-44" y="22" on="1"/>
        <pt x="721" y="1508" on="1"/>
        <pt x="753" y="1508" on="1"/>
        <pt x="1322" y="27" on="1"/>
        <pt x="1305" y="0" on="1"/>
        <pt x="-32" y="0" on="1"/>
      </contour>
      <contour>
        <pt x="980" y="229" on="1"/>
        <pt x="707" y="985" on="1"/>
        <pt x="338" y="229" on="1"/>
      </contour>
    </TTGlyph>
    <TTGlyph name="E" xMin="91" yMin="0" xMax="1138" yMax="1530">
      <contour>
        <pt x="297" y="1530" on="1"/>
        <pt x="1138" y="1530" on="1"/>
        <pt x="1116" y="1314" on="1"/>
        <pt x="544" y="1319" on="1"/>
        <pt x="487" y="887" on="1"/>
        <pt x="915" y="893" on="1"/>
        <pt x="891" y="672" on="1"/>
        <pt x="459" y="684" on="1"/>
        <pt x="396" y="210" on="1"/>
        <pt x="1062" y="223" on="1"/>
        <pt x="1037" y="0" on="1"/>
        <pt x="91" y="0" on="1"/>
      </contour>
    </TTGlyph>
    <TTGlyph name="Eacute" xMin="91" yMin="0" xMax="1138" yMax="2007">
      <component glyphName="acute.cap" x="609" y="0" flags="0x4"/>
      <component glyphName="E" x="0" y="0" flags="0x4"/>
    </TTGlyph>
    <TTGlyph name="Ebreve" xMin="91" yMin="0" xMax="1138" yMax="1997">
      <component glyphName="breve.cap" x="393" y="0" flags="0x4"/>
      <component glyphName="E" x="0" y="0" flags="0x4"/>
    </TTGlyph>
    <TTGlyph name="Ecaron" xMin="91" yMin="0" xMax="1148" yMax="2007">
      <component glyphName="caron.cap" x="347" y="0" flags="0x4"/>
      <component glyphName="E" x="0" y="0" flags="0x4"/>
    </TTGlyph>
    <TTGlyph name="Ecircumflex" xMin="91" yMin="0" xMax="1138" yMax="2007">
      <component glyphName="E" x="0" y="0" flags="0x204"/>
      <component glyphName="circumflex.cap" x="348" y="0" flags="0x4"/>
    </TTGlyph>
    <TTGlyph name="Edieresis" xMin="91" yMin="0" xMax="1138" yMax="1977">
      <component glyphName="dieresis.cap" x="264" y="0" flags="0x4"/>
      <component glyphName="E" x="0" y="0" flags="0x4"/>
    </TTGlyph>
    <TTGlyph name="Edotaccent" xMin="91" yMin="0" xMax="1138" yMax="1967">
      <component glyphName="dotaccent.cap" x="564" y="0" flags="0x4"/>
      <component glyphName="E" x="0" y="0" flags="0x4"/>
    </TTGlyph>
    <TTGlyph name="Egrave" xMin="91" yMin="0" xMax="1138" yMax="2007">
      <component glyphName="grave.cap" x="369" y="0" flags="0x4"/>
      <component glyphName="E" x="0" y="0" flags="0x4"/>
    </TTGlyph>
    <TTGlyph name="Emacron" xMin="91" yMin="0" xMax="1138" yMax="1897">
      <component glyphName="macron.cap" x="422" y="0" flags="0x4"/>
      <component glyphName="E" x="0" y="0" flags="0x4"/>
    </TTGlyph>
    <TTGlyph name="Eng" xMin="97" yMin="-365" xMax="1420" yMax="1530">
      <contour>
        <pt x="303" y="1530" on="1"/>
        <pt x="560" y="1530" on="1"/>
        <pt x="958" y="603" on="1"/>
        <pt x="1029" y="370" on="1"/>
        <pt x="1045" y="624" on="1"/>
        <pt x="1155" y="1530" on="1"/>
        <pt x="1420" y="1530" on="1"/>
        <pt x="1214" y="0" on="1"/>
        <pt x="1212" y="0" on="1"/>
        <pt x="1190" y="-73" on="0"/>
        <pt x="1101" y="-197" on="0"/>
        <pt x="970" y="-291" on="0"/>
        <pt x="801" y="-354" on="0"/>
        <pt x="698" y="-365" on="1"/>
        <pt x="652" y="-257" on="1"/>
        <pt x="786" y="-207" on="0"/>
        <pt x="929" y="-61" on="0"/>
        <pt x="955" y="33" on="1"/>
        <pt x="567" y="954" on="1"/>
        <pt x="491" y="1208" on="1"/>
        <pt x="479" y="921" on="1"/>
        <pt x="359" y="0" on="1"/>
        <pt x="97" y="0" on="1"/>
      </contour>
    </TTGlyph>
    <TTGlyph name="Eogonek" xMin="97" yMin="-473" xMax="1144" yMax="1530">
      <contour>
        <pt x="303" y="1530" on="1"/>
        <pt x="1144" y="1530" on="1"/>
        <pt x="1122" y="1314" on="1"/>
        <pt x="550" y="1319" on="1"/>
        <pt x="493" y="887" on="1"/>
        <pt x="921" y="893" on="1"/>
        <pt x="897" y="672" on="1"/>
        <pt x="465" y="684" on="1"/>
        <pt x="402" y="210" on="1"/>
        <pt x="1068" y="223" on="1"/>
        <pt x="1043" y="0" on="1"/>
        <pt x="1021" y="0" on="1"/>
        <pt x="982" y="-21" on="0"/>
        <pt x="901" y="-73" on="0"/>
        <pt x="836" y="-130" on="0"/>
        <pt x="795" y="-187" on="0"/>
        <pt x="795" y="-213" on="1"/>
        <pt x="795" y="-234" on="0"/>
        <pt x="807" y="-261" on="0"/>
        <pt x="825" y="-276" on="0"/>
        <pt x="848" y="-282" on="0"/>
        <pt x="860" y="-282" on="1"/>
        <pt x="894" y="-282" on="0"/>
        <pt x="959" y="-259" on="0"/>
        <pt x="1001" y="-227" on="1"/>
        <pt x="1047" y="-364" on="1"/>
        <pt x="1001" y="-409" on="0"/>
        <pt x="859" y="-473" on="0"/>
        <pt x="760" y="-473" on="1"/>
        <pt x="710" y="-473" on="0"/>
        <pt x="634" y="-442" on="0"/>
        <pt x="583" y="-393" on="0"/>
        <pt x="557" y="-331" on="0"/>
        <pt x="557" y="-299" on="1"/>
        <pt x="557" y="-246" on="0"/>
        <pt x="614" y="-151" on="0"/>
        <pt x="696" y="-73" on="0"/>
        <pt x="786" y="-16" on="0"/>
        <pt x="818" y="0" on="1"/>
        <pt x="97" y="0" on="1"/>
      </contour>
    </TTGlyph>
    <TTGlyph name="Eth" xMin="36" yMin="-17" xMax="1364" yMax="1547">
      <contour>
        <pt x="191" y="698" on="1"/>
        <pt x="36" y="698" on="1"/>
        <pt x="56" y="888" on="1"/>
        <pt x="216" y="888" on="1"/>
        <pt x="303" y="1531" on="1"/>
        <pt x="442" y="1531" on="1"/>
        <pt x="476" y="1531" on="0"/>
        <pt x="566" y="1536" on="0"/>
        <pt x="660" y="1542" on="0"/>
        <pt x="750" y="1547" on="0"/>
        <pt x="784" y="1547" on="1"/>
        <pt x="940" y="1547" on="0"/>
        <pt x="1159" y="1457" on="0"/>
        <pt x="1297" y="1294" on="0"/>
        <pt x="1362" y="1066" on="0"/>
        <pt x="1363" y="928" on="1"/>
        <pt x="1364" y="800" on="0"/>
        <pt x="1318" y="560" on="0"/>
        <pt x="1224" y="349" on="0"/>
        <pt x="1086" y="175" on="0"/>
        <pt x="905" y="51" on="0"/>
        <pt x="682" y="-17" on="0"/>
        <pt x="552" y="-15" on="1"/>
        <pt x="527" y="-15" on="0"/>
        <pt x="456" y="-11" on="0"/>
        <pt x="423" y="-8" on="1"/>
        <pt x="385" y="-5" on="0"/>
        <pt x="286" y="0" on="0"/>
        <pt x="243" y="1" on="1"/>
        <pt x="97" y="1" on="1"/>
      </contour>
      <contour>
        <pt x="402" y="215" on="1"/>
        <pt x="440" y="202" on="0"/>
        <pt x="543" y="188" on="0"/>
        <pt x="598" y="190" on="1"/>
        <pt x="681" y="191" on="0"/>
        <pt x="818" y="250" on="0"/>
        <pt x="925" y="352" on="0"/>
        <pt x="1004" y="490" on="0"/>
        <pt x="1055" y="652" on="0"/>
        <pt x="1079" y="831" on="0"/>
        <pt x="1078" y="923" on="1"/>
        <pt x="1077" y="1044" on="0"/>
        <pt x="1035" y="1206" on="0"/>
        <pt x="947" y="1303" on="0"/>
        <pt x="812" y="1344" on="0"/>
        <pt x="718" y="1344" on="1"/>
        <pt x="700" y="1344" on="0"/>
        <pt x="655" y="1341" on="0"/>
        <pt x="609" y="1337" on="0"/>
        <pt x="566" y="1330" on="0"/>
        <pt x="551" y="1327" on="1"/>
        <pt x="492" y="888" on="1"/>
        <pt x="831" y="888" on="1"/>
        <pt x="810" y="698" on="1"/>
        <pt x="467" y="698" on="1"/>
      </contour>
    </TTGlyph>
    <TTGlyph name="Euro" xMin="24" yMin="-16" xMax="1277" yMax="1546">
      <contour>
        <pt x="44" y="701" on="1"/>
        <pt x="223" y="701" on="1"/>
        <pt x="225" y="747" on="0"/>
        <pt x="235" y="835" on="0"/>
        <pt x="243" y="877" on="1"/>
        <pt x="69" y="877" on="1"/>
        <pt x="89" y="1038" on="1"/>
        <pt x="287" y="1038" on="1"/>
        <pt x="330" y="1156" on="0"/>
        <pt x="465" y="1344" on="0"/>
        <pt x="639" y="1476" on="0"/>
        <pt x="847" y="1546" on="0"/>
        <pt x="963" y="1546" on="1"/>
        <pt x="1023" y="1546" on="0"/>
        <pt x="1115" y="1536" on="0"/>
        <pt x="1189" y="1520" on="0"/>
        <pt x="1249" y="1501" on="0"/>
        <pt x="1277" y="1492" on="1"/>
        <pt x="1208" y="1278" on="1"/>
        <pt x="1198" y="1288" on="0"/>
        <pt x="1150" y="1312" on="0"/>
        <pt x="1078" y="1332" on="0"/>
        <pt x="987" y="1345" on="0"/>
        <pt x="934" y="1345" on="1"/>
        <pt x="869" y="1345" on="0"/>
        <pt x="759" y="1302" on="0"/>
        <pt x="667" y="1223" on="0"/>
        <pt x="595" y="1109" on="0"/>
        <pt x="569" y="1038" on="1"/>
        <pt x="1075" y="1038" on="1"/>
        <pt x="1056" y="877" on="1"/>
        <pt x="527" y="877" on="1"/>
        <pt x="519" y="835" on="0"/>
        <pt x="509" y="748" on="0"/>
        <pt x="507" y="701" on="1"/>
        <pt x="1033" y="701" on="1"/>
        <pt x="1016" y="539" on="1"/>
        <pt x="507" y="539" on="1"/>
        <pt x="513" y="454" on="0"/>
        <pt x="550" y="319" on="0"/>
        <pt x="617" y="224" on="0"/>
        <pt x="716" y="174" on="0"/>
        <pt x="783" y="174" on="1"/>
        <pt x="841" y="174" on="0"/>
        <pt x="937" y="194" on="0"/>
        <pt x="1018" y="227" on="0"/>
        <pt x="1086" y="271" on="0"/>
        <pt x="1118" y="294" on="1"/>
        <pt x="1181" y="125" on="1"/>
        <pt x="1154" y="95" on="0"/>
        <pt x="1067" y="43" on="0"/>
        <pt x="952" y="6" on="0"/>
        <pt x="813" y="-16" on="0"/>
        <pt x="736" y="-16" on="1"/>
        <pt x="608" y="-16" on="0"/>
        <pt x="424" y="78" on="0"/>
        <pt x="302" y="233" on="0"/>
        <pt x="237" y="433" on="0"/>
        <pt x="227" y="539" on="1"/>
        <pt x="24" y="539" on="1"/>
      </contour>
    </TTGlyph>
    <TTGlyph name="F" xMin="91" yMin="0" xMax="1121" yMax="1530">
      <contour>
        <pt x="297" y="1530" on="1"/>
        <pt x="1121" y="1530" on="1"/>
        <pt x="1093" y="1314" on="1"/>
        <pt x="544" y="1320" on="1"/>
        <pt x="485" y="871" on="1"/>
        <pt x="934" y="878" on="1"/>
        <pt x="910" y="648" on="1"/>
        <pt x="456" y="660" on="1"/>
        <pt x="367" y="0" on="1"/>
        <pt x="91" y="0" on="1"/>
      </contour>
    </TTGlyph>
    <TTGlyph name="G" xMin="91" yMin="-16" xMax="1296" yMax="1546">
      <contour>
        <pt x="92" y="617" on="1"/>
        <pt x="91" y="755" on="0"/>
        <pt x="144" y="1001" on="0"/>
        <pt x="243" y="1207" on="0"/>
        <pt x="384" y="1371" on="0"/>
        <pt x="557" y="1485" on="0"/>
        <pt x="756" y="1546" on="0"/>
        <pt x="865" y="1546" on="1"/>
        <pt x="935" y="1546" on="0"/>
        <pt x="1049" y="1534" on="0"/>
        <pt x="1139" y="1517" on="0"/>
        <pt x="1206" y="1498" on="0"/>
        <pt x="1230" y="1490" on="1"/>
        <pt x="1296" y="1468" on="1"/>
        <pt x="1228" y="1218" on="1"/>
        <pt x="1210" y="1231" on="0"/>
        <pt x="1142" y="1267" on="0"/>
        <pt x="1046" y="1300" on="0"/>
        <pt x="927" y="1322" on="0"/>
        <pt x="859" y="1322" on="1"/>
        <pt x="768" y="1322" on="0"/>
        <pt x="625" y="1262" on="0"/>
        <pt x="516" y="1159" on="0"/>
        <pt x="440" y="1022" on="0"/>
        <pt x="393" y="870" on="0"/>
        <pt x="371" y="712" on="0"/>
        <pt x="372" y="638" on="1"/>
        <pt x="372" y="546" on="0"/>
        <pt x="407" y="384" on="0"/>
        <pt x="483" y="264" on="0"/>
        <pt x="602" y="194" on="0"/>
        <pt x="687" y="194" on="1"/>
        <pt x="713" y="194" on="0"/>
        <pt x="779" y="200" on="0"/>
        <pt x="850" y="213" on="0"/>
        <pt x="919" y="234" on="0"/>
        <pt x="948" y="248" on="1"/>
        <pt x="994" y="570" on="1"/>
        <pt x="754" y="570" on="1"/>
        <pt x="781" y="790" on="1"/>
        <pt x="1282" y="790" on="1"/>
        <pt x="1188" y="87" on="1"/>
        <pt x="1163" y="84" on="0"/>
        <pt x="1107" y="71" on="0"/>
        <pt x="1065" y="59" on="1"/>
        <pt x="1026" y="48" on="0"/>
        <pt x="933" y="21" on="0"/>
        <pt x="826" y="-1" on="0"/>
        <pt x="707" y="-16" on="0"/>
        <pt x="643" y="-16" on="1"/>
        <pt x="542" y="-16" on="0"/>
        <pt x="382" y="35" on="0"/>
        <pt x="260" y="125" on="0"/>
        <pt x="173" y="247" on="0"/>
        <pt x="118" y="388" on="0"/>
        <pt x="92" y="541" on="0"/>
      </contour>
    </TTGlyph>
    <TTGlyph name="Gbreve" xMin="97" yMin="-16" xMax="1302" yMax="1997">
      <component glyphName="breve.cap" x="545" y="0" flags="0x4"/>
      <component glyphName="G" x="6" y="0" flags="0x4"/>
    </TTGlyph>
    <TTGlyph name="Gcaron" xMin="91" yMin="-16" xMax="1296" yMax="2007">
      <component glyphName="G" x="0" y="0" flags="0x204"/>
      <component glyphName="caron.cap" x="494" y="0" flags="0x4"/>
    </TTGlyph>
    <TTGlyph name="Gcircumflex" xMin="97" yMin="-16" xMax="1302" yMax="2007">
      <component glyphName="G" x="6" y="0" flags="0x4"/>
      <component glyphName="circumflex.cap" x="500" y="0" flags="0x4"/>
    </TTGlyph>
    <TTGlyph name="Gcommaaccent" xMin="97" yMin="-560" xMax="1302" yMax="1546">
      <component glyphName="commaaccent" x="531" y="0" flags="0x4"/>
      <component glyphName="G" x="6" y="0" flags="0x4"/>
    </TTGlyph>
    <TTGlyph name="Gdotaccent" xMin="97" yMin="-16" xMax="1302" yMax="1967">
      <component glyphName="dotaccent.cap" x="716" y="0" flags="0x4"/>
      <component glyphName="G" x="6" y="0" flags="0x4"/>
    </TTGlyph>
    <TTGlyph name="Gtilde" xMin="91" yMin="-16" xMax="1349" yMax="1975">
      <component glyphName="G" x="0" y="0" flags="0x204"/>
      <component glyphName="tilde.cap" x="504" y="0" flags="0x4"/>
    </TTGlyph>
    <TTGlyph name="H" xMin="85" yMin="0" xMax="1413" yMax="1530">
      <contour>
        <pt x="291" y="1530" on="1"/>
        <pt x="567" y="1530" on="1"/>
        <pt x="476" y="855" on="1"/>
        <pt x="1044" y="855" on="1"/>
        <pt x="1135" y="1530" on="1"/>
        <pt x="1413" y="1530" on="1"/>
        <pt x="1207" y="0" on="1"/>
        <pt x="929" y="0" on="1"/>
        <pt x="1017" y="658" on="1"/>
        <pt x="449" y="658" on="1"/>
        <pt x="361" y="0" on="1"/>
        <pt x="85" y="0" on="1"/>
      </contour>
    </TTGlyph>
    <TTGlyph name="Hbar" xMin="26" yMin="0" xMax="1577" yMax="1530">
      <contour>
        <pt x="226" y="958" on="1"/>
        <pt x="26" y="958" on="1"/>
        <pt x="45" y="1158" on="1"/>
        <pt x="253" y="1158" on="1"/>
        <pt x="303" y="1530" on="1"/>
        <pt x="579" y="1530" on="1"/>
        <pt x="529" y="1158" on="1"/>
        <pt x="1097" y="1158" on="1"/>
        <pt x="1147" y="1530" on="1"/>
        <pt x="1425" y="1530" on="1"/>
        <pt x="1375" y="1158" on="1"/>
        <pt x="1577" y="1158" on="1"/>
        <pt x="1557" y="958" on="1"/>
        <pt x="1348" y="958" on="1"/>
        <pt x="1219" y="0" on="1"/>
        <pt x="941" y="0" on="1"/>
        <pt x="1010" y="517" on="1"/>
        <pt x="442" y="517" on="1"/>
        <pt x="373" y="0" on="1"/>
        <pt x="97" y="0" on="1"/>
      </contour>
      <contour>
        <pt x="1037" y="717" on="1"/>
        <pt x="1070" y="958" on="1"/>
        <pt x="502" y="958" on="1"/>
        <pt x="469" y="717" on="1"/>
      </contour>
    </TTGlyph>
    <TTGlyph name="Hcircumflex" xMin="91" yMin="0" xMax="1419" yMax="2007">
      <component glyphName="H" x="6" y="0" flags="0x4"/>
      <component glyphName="circumflex.cap" x="474" y="0" flags="0x4"/>
    </TTGlyph>
    <TTGlyph name="I" xMin="113" yMin="0" xMax="595" yMax="1530">
      <contour>
        <pt x="319" y="1530" on="1"/>
        <pt x="595" y="1530" on="1"/>
        <pt x="389" y="0" on="1"/>
        <pt x="113" y="0" on="1"/>
      </contour>
    </TTGlyph>
    <TTGlyph name="I.uc" xMin="113" yMin="0" xMax="670" yMax="1967">
      <component glyphName="I" x="0" y="0" flags="0x204"/>
      <component glyphName="dotaccent.cap" x="313" y="0" flags="0x4"/>
    </TTGlyph>
    <TTGlyph name="IJ" xMin="113" yMin="-336" xMax="1241" yMax="1530">
      <component glyphName="I" x="0" y="0" flags="0x4"/>
      <component glyphName="J" x="649" y="0" flags="0x4"/>
    </TTGlyph>
    <TTGlyph name="IJ_acutecomb" xMin="113" yMin="-336" xMax="1464" yMax="2007">
      <contour>
        <pt x="395" y="1665" on="1"/>
        <pt x="672" y="2007" on="1"/>
        <pt x="839" y="1850" on="1"/>
        <pt x="818" y="1810" on="0"/>
        <pt x="734" y="1724" on="0"/>
        <pt x="637" y="1646" on="0"/>
        <pt x="539" y="1585" on="0"/>
        <pt x="503" y="1572" on="1"/>
      </contour>
      <contour>
        <pt x="468" y="-233" on="1"/>
        <pt x="530" y="-215" on="0"/>
        <pt x="629" y="-148" on="0"/>
        <pt x="703" y="-62" on="0"/>
        <pt x="750" y="37" on="0"/>
        <pt x="760" y="86" on="1"/>
        <pt x="781" y="184" on="0"/>
        <pt x="818" y="413" on="0"/>
        <pt x="853" y="662" on="0"/>
        <pt x="885" y="921" on="0"/>
        <pt x="915" y="1177" on="0"/>
        <pt x="944" y="1421" on="0"/>
        <pt x="958" y="1530" on="1"/>
        <pt x="1235" y="1530" on="1"/>
        <pt x="1213" y="1361" on="0"/>
        <pt x="1170" y="1027" on="0"/>
        <pt x="1129" y="720" on="0"/>
        <pt x="1092" y="450" on="0"/>
        <pt x="1061" y="240" on="0"/>
        <pt x="1037" y="99" on="0"/>
        <pt x="1030" y="75" on="1"/>
        <pt x="998" y="-40" on="0"/>
        <pt x="888" y="-193" on="0"/>
        <pt x="749" y="-286" on="0"/>
        <pt x="589" y="-330" on="0"/>
        <pt x="507" y="-336" on="1"/>
      </contour>
      <contour>
        <pt x="319" y="1530" on="1"/>
        <pt x="595" y="1530" on="1"/>
        <pt x="389" y="0" on="1"/>
        <pt x="113" y="0" on="1"/>
      </contour>
      <contour>
        <pt x="1020" y="1664" on="1"/>
        <pt x="1297" y="2006" on="1"/>
        <pt x="1464" y="1849" on="1"/>
        <pt x="1443" y="1809" on="0"/>
        <pt x="1359" y="1723" on="0"/>
        <pt x="1262" y="1645" on="0"/>
        <pt x="1164" y="1584" on="0"/>
        <pt x="1128" y="1571" on="1"/>
      </contour>
    </TTGlyph>
    <TTGlyph name="Iacute" xMin="113" yMin="0" xMax="839" yMax="2007">
      <component glyphName="I" x="0" y="0" flags="0x204"/>
      <component glyphName="acute.cap" x="345" y="0" flags="0x4"/>
    </TTGlyph>
    <TTGlyph name="Ibreve" xMin="113" yMin="0" xMax="835" yMax="1997">
      <component glyphName="I" x="0" y="0" flags="0x204"/>
      <component glyphName="breve.cap" x="129" y="0" flags="0x4"/>
    </TTGlyph>
    <TTGlyph name="Icircumflex" xMin="113" yMin="0" xMax="847" yMax="2007">
      <component glyphName="I" x="0" y="0" flags="0x204"/>
      <component glyphName="circumflex.cap" x="84" y="0" flags="0x4"/>
    </TTGlyph>
    <TTGlyph name="Idieresis" xMin="113" yMin="0" xMax="865" yMax="1977">
      <component glyphName="I" x="0" y="0" flags="0x204"/>
      <component glyphName="dieresis.cap" x="0" y="0" flags="0x4"/>
    </TTGlyph>
    <TTGlyph name="Idotaccent" xMin="113" yMin="0" xMax="657" yMax="1967">
      <component glyphName="I" x="0" y="0" flags="0x204"/>
      <component glyphName="dotaccent.cap" x="300" y="0" flags="0x4"/>
    </TTGlyph>
    <TTGlyph name="Igrave" xMin="113" yMin="0" xMax="595" yMax="2007">
      <component glyphName="I" x="0" y="0" flags="0x204"/>
      <component glyphName="grave.cap" x="105" y="0" flags="0x4"/>
    </TTGlyph>
    <TTGlyph name="Imacron" xMin="113" yMin="0" xMax="750" yMax="1897">
      <component glyphName="I" x="0" y="0" flags="0x204"/>
      <component glyphName="macron.cap" x="158" y="0" flags="0x4"/>
    </TTGlyph>
    <TTGlyph name="Iogonek" xMin="-122" yMin="-473" xMax="595" yMax="1530">
      <contour>
        <pt x="319" y="1530" on="1"/>
        <pt x="595" y="1530" on="1"/>
        <pt x="389" y="0" on="1"/>
        <pt x="342" y="0" on="1"/>
        <pt x="303" y="-21" on="0"/>
        <pt x="222" y="-73" on="0"/>
        <pt x="157" y="-130" on="0"/>
        <pt x="116" y="-187" on="0"/>
        <pt x="116" y="-213" on="1"/>
        <pt x="116" y="-234" on="0"/>
        <pt x="128" y="-261" on="0"/>
        <pt x="146" y="-276" on="0"/>
        <pt x="169" y="-282" on="0"/>
        <pt x="181" y="-282" on="1"/>
        <pt x="215" y="-282" on="0"/>
        <pt x="280" y="-259" on="0"/>
        <pt x="322" y="-227" on="1"/>
        <pt x="368" y="-364" on="1"/>
        <pt x="322" y="-409" on="0"/>
        <pt x="180" y="-473" on="0"/>
        <pt x="81" y="-473" on="1"/>
        <pt x="31" y="-473" on="0"/>
        <pt x="-45" y="-442" on="0"/>
        <pt x="-96" y="-393" on="0"/>
        <pt x="-122" y="-331" on="0"/>
        <pt x="-122" y="-299" on="1"/>
        <pt x="-122" y="-246" on="0"/>
        <pt x="-65" y="-151" on="0"/>
        <pt x="17" y="-73" on="0"/>
        <pt x="107" y="-16" on="0"/>
        <pt x="139" y="0" on="1"/>
        <pt x="113" y="0" on="1"/>
      </contour>
    </TTGlyph>
    <TTGlyph name="Itilde" xMin="94" yMin="0" xMax="938" yMax="1975">
      <component glyphName="I" x="0" y="0" flags="0x204"/>
      <component glyphName="tilde.cap" x="93" y="0" flags="0x4"/>
    </TTGlyph>
    <TTGlyph name="J" xMin="-175" yMin="-336" xMax="592" yMax="1530">
      <contour>
        <pt x="117" y="86" on="1"/>
        <pt x="138" y="184" on="0"/>
        <pt x="175" y="413" on="0"/>
        <pt x="210" y="662" on="0"/>
        <pt x="242" y="921" on="0"/>
        <pt x="272" y="1177" on="0"/>
        <pt x="301" y="1421" on="0"/>
        <pt x="315" y="1530" on="1"/>
        <pt x="592" y="1530" on="1"/>
        <pt x="570" y="1361" on="0"/>
        <pt x="527" y="1027" on="0"/>
        <pt x="486" y="720" on="0"/>
        <pt x="449" y="450" on="0"/>
        <pt x="418" y="240" on="0"/>
        <pt x="394" y="99" on="0"/>
        <pt x="387" y="75" on="1"/>
        <pt x="355" y="-40" on="0"/>
        <pt x="245" y="-193" on="0"/>
        <pt x="106" y="-286" on="0"/>
        <pt x="-54" y="-330" on="0"/>
        <pt x="-136" y="-336" on="1"/>
        <pt x="-175" y="-233" on="1"/>
        <pt x="-113" y="-215" on="0"/>
        <pt x="-14" y="-148" on="0"/>
        <pt x="60" y="-62" on="0"/>
        <pt x="107" y="37" on="0"/>
      </contour>
    </TTGlyph>
    <TTGlyph name="Jcircumflex" xMin="-169" yMin="-336" xMax="839" yMax="2007">
      <component glyphName="J" x="6" y="0" flags="0x4"/>
      <component glyphName="circumflex.cap" x="76" y="0" flags="0x4"/>
    </TTGlyph>
    <TTGlyph name="K" xMin="91" yMin="-1" xMax="1394" yMax="1530">
      <contour>
        <pt x="297" y="1530" on="1"/>
        <pt x="573" y="1530" on="1"/>
        <pt x="476" y="811" on="1"/>
        <pt x="1076" y="1530" on="1"/>
        <pt x="1394" y="1530" on="1"/>
        <pt x="784" y="853" on="1"/>
        <pt x="856" y="728" on="0"/>
        <pt x="992" y="467" on="0"/>
        <pt x="1059" y="342" on="1"/>
        <pt x="1109" y="248" on="0"/>
        <pt x="1207" y="75" on="0"/>
        <pt x="1256" y="-1" on="1"/>
        <pt x="928" y="1" on="1"/>
        <pt x="921" y="11" on="0"/>
        <pt x="890" y="70" on="0"/>
        <pt x="847" y="157" on="0"/>
        <pt x="794" y="264" on="0"/>
        <pt x="766" y="323" on="1"/>
        <pt x="754" y="344" on="0"/>
        <pt x="717" y="422" on="0"/>
        <pt x="673" y="514" on="0"/>
        <pt x="626" y="613" on="0"/>
        <pt x="606" y="655" on="1"/>
        <pt x="428" y="458" on="1"/>
        <pt x="367" y="0" on="1"/>
        <pt x="91" y="0" on="1"/>
      </contour>
    </TTGlyph>
    <TTGlyph name="Kcommaaccent" xMin="97" yMin="-558" xMax="1400" yMax="1530">
      <component glyphName="commaaccent" x="458" y="2" flags="0x4"/>
      <component glyphName="K" x="6" y="0" flags="0x4"/>
    </TTGlyph>
    <TTGlyph name="L" xMin="91" yMin="0" xMax="931" yMax="1530">
      <contour>
        <pt x="297" y="1530" on="1"/>
        <pt x="573" y="1530" on="1"/>
        <pt x="397" y="221" on="1"/>
        <pt x="931" y="229" on="1"/>
        <pt x="899" y="0" on="1"/>
        <pt x="91" y="0" on="1"/>
      </contour>
    </TTGlyph>
    <TTGlyph name="Lacute" xMin="97" yMin="0" xMax="937" yMax="2009">
      <component glyphName="acute.cap" x="353" y="2" flags="0x4"/>
      <component glyphName="L" x="6" y="0" flags="0x4"/>
    </TTGlyph>
    <TTGlyph name="Lcaron" xMin="97" yMin="0" xMax="1076" yMax="1651">
      <component glyphName="L" x="6" y="0" flags="0x4"/>
      <component glyphName="caronvertical" x="616" y="-30" flags="0x4"/>
    </TTGlyph>
    <TTGlyph name="Lcommaaccent" xMin="97" yMin="-558" xMax="937" yMax="1530">
      <component glyphName="commaaccent" x="314" y="2" flags="0x4"/>
      <component glyphName="L" x="6" y="0" flags="0x4"/>
    </TTGlyph>
    <TTGlyph name="Ldot" xMin="97" yMin="0" xMax="1106" yMax="1530">
      <component glyphName="L" x="6" y="0" flags="0x4"/>
      <component glyphName="period" x="724" y="774" flags="0x4"/>
    </TTGlyph>
    <TTGlyph name="Lslash" xMin="-41" yMin="1" xMax="937" yMax="1531">
      <contour>
        <pt x="171" y="550" on="1"/>
        <pt x="6" y="488" on="1"/>
        <pt x="-41" y="639" on="1"/>
        <pt x="195" y="730" on="1"/>
        <pt x="303" y="1531" on="1"/>
        <pt x="579" y="1531" on="1"/>
        <pt x="486" y="843" on="1"/>
        <pt x="851" y="985" on="1"/>
        <pt x="897" y="825" on="1"/>
        <pt x="462" y="660" on="1"/>
        <pt x="403" y="222" on="1"/>
        <pt x="937" y="230" on="1"/>
        <pt x="905" y="1" on="1"/>
        <pt x="97" y="1" on="1"/>
      </contour>
    </TTGlyph>
    <TTGlyph name="M" xMin="9" yMin="-18" xMax="1760" yMax="1530">
      <contour>
        <pt x="408" y="1530" on="1"/>
        <pt x="793" y="1530" on="1"/>
        <pt x="907" y="474" on="1"/>
        <pt x="918" y="277" on="1"/>
        <pt x="967" y="474" on="1"/>
        <pt x="1358" y="1530" on="1"/>
        <pt x="1760" y="1530" on="1"/>
        <pt x="1730" y="0" on="1"/>
        <pt x="1453" y="0" on="1"/>
        <pt x="1522" y="1080" on="1"/>
        <pt x="1548" y="1388" on="1"/>
        <pt x="1443" y="1104" on="1"/>
        <pt x="1006" y="-3" on="1"/>
        <pt x="741" y="-18" on="1"/>
        <pt x="601" y="1091" on="1"/>
        <pt x="582" y="1388" on="1"/>
        <pt x="526" y="1086" on="1"/>
        <pt x="283" y="0" on="1"/>
        <pt x="9" y="0" on="1"/>
      </contour>
    </TTGlyph>
    <TTGlyph name="N" xMin="91" yMin="0" xMax="1414" yMax="1530">
      <contour>
        <pt x="297" y="1530" on="1"/>
        <pt x="554" y="1530" on="1"/>
        <pt x="952" y="603" on="1"/>
        <pt x="1023" y="370" on="1"/>
        <pt x="1039" y="624" on="1"/>
        <pt x="1149" y="1530" on="1"/>
        <pt x="1414" y="1530" on="1"/>
        <pt x="1208" y="0" on="1"/>
        <pt x="963" y="0" on="1"/>
        <pt x="561" y="954" on="1"/>
        <pt x="485" y="1208" on="1"/>
        <pt x="473" y="921" on="1"/>
        <pt x="353" y="0" on="1"/>
        <pt x="91" y="0" on="1"/>
      </contour>
    </TTGlyph>
    <TTGlyph name="Nacute" xMin="97" yMin="0" xMax="1420" yMax="2007">
      <component glyphName="acute.cap" x="744" y="0" flags="0x4"/>
      <component glyphName="N" x="6" y="0" flags="0x4"/>
    </TTGlyph>
    <TTGlyph name="Ncaron" xMin="97" yMin="0" xMax="1420" yMax="2007">
      <component glyphName="caron.cap" x="482" y="0" flags="0x4"/>
      <component glyphName="N" x="6" y="0" flags="0x4"/>
    </TTGlyph>
    <TTGlyph name="Ncommaaccent" xMin="97" yMin="-560" xMax="1420" yMax="1530">
      <component glyphName="commaaccent" x="498" y="0" flags="0x4"/>
      <component glyphName="N" x="6" y="0" flags="0x4"/>
    </TTGlyph>
    <TTGlyph name="Ntilde" xMin="97" yMin="0" xMax="1420" yMax="1975">
      <component glyphName="tilde.cap" x="492" y="0" flags="0x4"/>
      <component glyphName="N" x="6" y="0" flags="0x4"/>
    </TTGlyph>
    <TTGlyph name="O" xMin="86" yMin="-16" xMax="1336" yMax="1546">
      <contour>
        <pt x="87" y="594" on="1"/>
        <pt x="86" y="725" on="0"/>
        <pt x="132" y="969" on="0"/>
        <pt x="220" y="1180" on="0"/>
        <pt x="349" y="1354" on="0"/>
        <pt x="513" y="1478" on="0"/>
        <pt x="707" y="1546" on="0"/>
        <pt x="818" y="1546" on="1"/>
        <pt x="947" y="1546" on="0"/>
        <pt x="1139" y="1449" on="0"/>
        <pt x="1268" y="1282" on="0"/>
        <pt x="1334" y="1059" on="0"/>
        <pt x="1335" y="934" on="1"/>
        <pt x="1336" y="804" on="0"/>
        <pt x="1291" y="562" on="0"/>
        <pt x="1204" y="351" on="0"/>
        <pt x="1077" y="177" on="0"/>
        <pt x="915" y="52" on="0"/>
        <pt x="720" y="-16" on="0"/>
        <pt x="609" y="-16" on="1"/>
        <pt x="479" y="-16" on="0"/>
        <pt x="284" y="81" on="0"/>
        <pt x="154" y="247" on="0"/>
        <pt x="88" y="469" on="0"/>
      </contour>
      <contour>
        <pt x="639" y="193" on="1"/>
        <pt x="702" y="193" on="0"/>
        <pt x="813" y="250" on="0"/>
        <pt x="905" y="349" on="0"/>
        <pt x="976" y="486" on="0"/>
        <pt x="1026" y="645" on="0"/>
        <pt x="1051" y="820" on="0"/>
        <pt x="1050" y="909" on="1"/>
        <pt x="1049" y="1025" on="0"/>
        <pt x="1015" y="1187" on="0"/>
        <pt x="948" y="1289" on="0"/>
        <pt x="849" y="1335" on="0"/>
        <pt x="783" y="1335" on="1"/>
        <pt x="720" y="1335" on="0"/>
        <pt x="609" y="1277" on="0"/>
        <pt x="517" y="1176" on="0"/>
        <pt x="446" y="1039" on="0"/>
        <pt x="396" y="880" on="0"/>
        <pt x="371" y="708" on="0"/>
        <pt x="372" y="622" on="1"/>
        <pt x="373" y="506" on="0"/>
        <pt x="408" y="343" on="0"/>
        <pt x="474" y="240" on="0"/>
        <pt x="573" y="193" on="0"/>
      </contour>
    </TTGlyph>
    <TTGlyph name="OE" xMin="86" yMin="-16" xMax="2124" yMax="1546">
      <contour>
        <pt x="87" y="594" on="1"/>
        <pt x="86" y="725" on="0"/>
        <pt x="132" y="969" on="0"/>
        <pt x="220" y="1180" on="0"/>
        <pt x="349" y="1354" on="0"/>
        <pt x="513" y="1478" on="0"/>
        <pt x="707" y="1546" on="0"/>
        <pt x="818" y="1546" on="1"/>
        <pt x="897" y="1546" on="0"/>
        <pt x="1029" y="1508" on="0"/>
        <pt x="1137" y="1439" on="0"/>
        <pt x="1219" y="1342" on="0"/>
        <pt x="1249" y="1282" on="1"/>
        <pt x="1283" y="1530" on="1"/>
        <pt x="2124" y="1530" on="1"/>
        <pt x="2102" y="1314" on="1"/>
        <pt x="1530" y="1319" on="1"/>
        <pt x="1473" y="887" on="1"/>
        <pt x="1901" y="893" on="1"/>
        <pt x="1877" y="672" on="1"/>
        <pt x="1445" y="684" on="1"/>
        <pt x="1382" y="210" on="1"/>
        <pt x="2048" y="223" on="1"/>
        <pt x="2023" y="0" on="1"/>
        <pt x="1077" y="0" on="1"/>
        <pt x="1107" y="227" on="1"/>
        <pt x="1015" y="113" on="0"/>
        <pt x="764" y="-16" on="0"/>
        <pt x="609" y="-16" on="1"/>
        <pt x="479" y="-16" on="0"/>
        <pt x="284" y="81" on="0"/>
        <pt x="154" y="247" on="0"/>
        <pt x="88" y="469" on="0"/>
      </contour>
      <contour>
        <pt x="639" y="193" on="1"/>
        <pt x="702" y="193" on="0"/>
        <pt x="813" y="250" on="0"/>
        <pt x="905" y="349" on="0"/>
        <pt x="976" y="486" on="0"/>
        <pt x="1026" y="645" on="0"/>
        <pt x="1051" y="820" on="0"/>
        <pt x="1050" y="909" on="1"/>
        <pt x="1049" y="1025" on="0"/>
        <pt x="1015" y="1187" on="0"/>
        <pt x="948" y="1289" on="0"/>
        <pt x="849" y="1335" on="0"/>
        <pt x="783" y="1335" on="1"/>
        <pt x="720" y="1335" on="0"/>
        <pt x="609" y="1277" on="0"/>
        <pt x="517" y="1176" on="0"/>
        <pt x="446" y="1039" on="0"/>
        <pt x="396" y="880" on="0"/>
        <pt x="371" y="708" on="0"/>
        <pt x="372" y="622" on="1"/>
        <pt x="373" y="506" on="0"/>
        <pt x="408" y="343" on="0"/>
        <pt x="474" y="240" on="0"/>
        <pt x="573" y="193" on="0"/>
      </contour>
    </TTGlyph>
    <TTGlyph name="Oacute" xMin="86" yMin="-16" xMax="1336" yMax="2007">
      <component glyphName="acute.cap" x="726" y="0" flags="0x4"/>
      <component glyphName="O" x="0" y="0" flags="0x4"/>
    </TTGlyph>
    <TTGlyph name="Obreve" xMin="86" yMin="-16" xMax="1336" yMax="1997">
      <component glyphName="breve.cap" x="509" y="0" flags="0x4"/>
      <component glyphName="O" x="0" y="0" flags="0x4"/>
    </TTGlyph>
    <TTGlyph name="Ocircumflex" xMin="86" yMin="-16" xMax="1336" yMax="2007">
      <component glyphName="O" x="0" y="0" flags="0x204"/>
      <component glyphName="circumflex.cap" x="464" y="0" flags="0x4"/>
    </TTGlyph>
    <TTGlyph name="Odieresis" xMin="86" yMin="-16" xMax="1336" yMax="1977">
      <component glyphName="dieresis.cap" x="380" y="0" flags="0x4"/>
      <component glyphName="O" x="0" y="0" flags="0x4"/>
    </TTGlyph>
    <TTGlyph name="Ograve" xMin="86" yMin="-16" xMax="1336" yMax="2007">
      <component glyphName="grave.cap" x="486" y="0" flags="0x4"/>
      <component glyphName="O" x="0" y="0" flags="0x4"/>
    </TTGlyph>
    <TTGlyph name="Ohungarumlaut" xMin="86" yMin="-16" xMax="1425" yMax="2007">
      <component glyphName="O" x="0" y="0" flags="0x204"/>
      <component glyphName="hungarumlaut.cap" x="510" y="0" flags="0x4"/>
    </TTGlyph>
    <TTGlyph name="Omacron" xMin="86" yMin="-16" xMax="1336" yMax="1897">
      <component glyphName="macron.cap" x="539" y="0" flags="0x4"/>
      <component glyphName="O" x="0" y="0" flags="0x4"/>
    </TTGlyph>
    <TTGlyph name="Omega" xMin="63" yMin="0" xMax="1540" yMax="1546">
      <contour>
        <pt x="89" y="202" on="1"/>
        <pt x="420" y="202" on="1"/>
        <pt x="367" y="255" on="0"/>
        <pt x="275" y="391" on="0"/>
        <pt x="206" y="547" on="0"/>
        <pt x="166" y="715" on="0"/>
        <pt x="166" y="799" on="1"/>
        <pt x="166" y="991" on="0"/>
        <pt x="272" y="1272" on="0"/>
        <pt x="466" y="1456" on="0"/>
        <pt x="740" y="1546" on="0"/>
        <pt x="909" y="1546" on="1"/>
        <pt x="1042" y="1546" on="0"/>
        <pt x="1273" y="1465" on="0"/>
        <pt x="1443" y="1310" on="0"/>
        <pt x="1540" y="1083" on="0"/>
        <pt x="1540" y="937" on="1"/>
        <pt x="1540" y="849" on="0"/>
        <pt x="1493" y="652" on="0"/>
        <pt x="1403" y="458" on="0"/>
        <pt x="1273" y="278" on="0"/>
        <pt x="1190" y="207" on="1"/>
        <pt x="1528" y="207" on="1"/>
        <pt x="1508" y="0" on="1"/>
        <pt x="932" y="0" on="1"/>
        <pt x="887" y="164" on="1"/>
        <pt x="967" y="206" on="0"/>
        <pt x="1107" y="357" on="0"/>
        <pt x="1212" y="551" on="0"/>
        <pt x="1273" y="774" on="0"/>
        <pt x="1273" y="887" on="1"/>
        <pt x="1273" y="1008" on="0"/>
        <pt x="1201" y="1177" on="0"/>
        <pt x="1087" y="1283" on="0"/>
        <pt x="948" y="1330" on="0"/>
        <pt x="881" y="1330" on="1"/>
        <pt x="786" y="1330" on="0"/>
        <pt x="620" y="1269" on="0"/>
        <pt x="496" y="1135" on="0"/>
        <pt x="425" y="924" on="0"/>
        <pt x="425" y="774" on="1"/>
        <pt x="425" y="675" on="0"/>
        <pt x="470" y="483" on="0"/>
        <pt x="544" y="318" on="0"/>
        <pt x="636" y="194" on="0"/>
        <pt x="683" y="164" on="1"/>
        <pt x="618" y="0" on="1"/>
        <pt x="63" y="0" on="1"/>
      </contour>
    </TTGlyph>
    <TTGlyph name="Oslash" xMin="86" yMin="-132" xMax="1336" yMax="1670">
      <contour>
        <pt x="243" y="137" on="1"/>
        <pt x="165" y="222" on="0"/>
        <pt x="88" y="458" on="0"/>
        <pt x="87" y="595" on="1"/>
        <pt x="86" y="726" on="0"/>
        <pt x="132" y="970" on="0"/>
        <pt x="220" y="1181" on="0"/>
        <pt x="349" y="1355" on="0"/>
        <pt x="513" y="1479" on="0"/>
        <pt x="707" y="1547" on="0"/>
        <pt x="818" y="1547" on="1"/>
        <pt x="900" y="1547" on="0"/>
        <pt x="1036" y="1506" on="0"/>
        <pt x="1093" y="1469" on="1"/>
        <pt x="1218" y="1670" on="1"/>
        <pt x="1307" y="1621" on="1"/>
        <pt x="1171" y="1404" on="1"/>
        <pt x="1252" y="1319" on="0"/>
        <pt x="1333" y="1076" on="0"/>
        <pt x="1335" y="935" on="1"/>
        <pt x="1336" y="805" on="0"/>
        <pt x="1291" y="563" on="0"/>
        <pt x="1204" y="352" on="0"/>
        <pt x="1077" y="178" on="0"/>
        <pt x="915" y="53" on="0"/>
        <pt x="720" y="-15" on="0"/>
        <pt x="609" y="-15" on="1"/>
        <pt x="521" y="-15" on="0"/>
        <pt x="377" y="29" on="0"/>
        <pt x="318" y="70" on="1"/>
        <pt x="188" y="-132" on="1"/>
        <pt x="99" y="-83" on="1"/>
      </contour>
      <contour>
        <pt x="952" y="1274" on="1"/>
        <pt x="920" y="1306" on="0"/>
        <pt x="836" y="1336" on="0"/>
        <pt x="783" y="1336" on="1"/>
        <pt x="720" y="1336" on="0"/>
        <pt x="609" y="1278" on="0"/>
        <pt x="517" y="1177" on="0"/>
        <pt x="446" y="1040" on="0"/>
        <pt x="396" y="881" on="0"/>
        <pt x="371" y="709" on="0"/>
        <pt x="372" y="623" on="1"/>
        <pt x="373" y="463" on="0"/>
        <pt x="406" y="368" on="1"/>
      </contour>
      <contour>
        <pt x="460" y="267" on="1"/>
        <pt x="493" y="229" on="0"/>
        <pt x="582" y="194" on="0"/>
        <pt x="639" y="194" on="1"/>
        <pt x="702" y="194" on="0"/>
        <pt x="813" y="251" on="0"/>
        <pt x="905" y="350" on="0"/>
        <pt x="976" y="487" on="0"/>
        <pt x="1026" y="646" on="0"/>
        <pt x="1051" y="821" on="0"/>
        <pt x="1050" y="910" on="1"/>
        <pt x="1049" y="996" on="0"/>
        <pt x="1030" y="1127" on="0"/>
        <pt x="1011" y="1177" on="1"/>
      </contour>
    </TTGlyph>
    <TTGlyph name="Oslashacute" xMin="86" yMin="-132" xMax="1336" yMax="2007">
      <component glyphName="Oslash" x="0" y="0" flags="0x204"/>
      <component glyphName="acute.cap" x="678" y="0" flags="0x4"/>
    </TTGlyph>
    <TTGlyph name="Otilde" xMin="86" yMin="-16" xMax="1336" yMax="1975">
      <component glyphName="tilde.cap" x="473" y="0" flags="0x4"/>
      <component glyphName="O" x="0" y="0" flags="0x4"/>
    </TTGlyph>
    <TTGlyph name="P" xMin="91" yMin="0" xMax="1243" yMax="1546">
      <contour>
        <pt x="297" y="1530" on="1"/>
        <pt x="433" y="1530" on="1"/>
        <pt x="499" y="1530" on="0"/>
        <pt x="654" y="1546" on="0"/>
        <pt x="745" y="1546" on="1"/>
        <pt x="863" y="1546" on="0"/>
        <pt x="1048" y="1495" on="0"/>
        <pt x="1175" y="1392" on="0"/>
        <pt x="1241" y="1237" on="0"/>
        <pt x="1242" y="1132" on="1"/>
        <pt x="1243" y="994" on="0"/>
        <pt x="1156" y="764" on="0"/>
        <pt x="991" y="597" on="0"/>
        <pt x="755" y="504" on="0"/>
        <pt x="607" y="504" on="1"/>
        <pt x="545" y="504" on="0"/>
        <pt x="454" y="508" on="0"/>
        <pt x="436" y="510" on="1"/>
        <pt x="367" y="0" on="1"/>
        <pt x="91" y="0" on="1"/>
      </contour>
      <contour>
        <pt x="465" y="727" on="1"/>
        <pt x="476" y="724" on="0"/>
        <pt x="511" y="720" on="0"/>
        <pt x="551" y="716" on="0"/>
        <pt x="594" y="714" on="0"/>
        <pt x="613" y="714" on="1"/>
        <pt x="702" y="715" on="0"/>
        <pt x="832" y="768" on="0"/>
        <pt x="919" y="868" on="0"/>
        <pt x="964" y="1014" on="0"/>
        <pt x="967" y="1108" on="1"/>
        <pt x="969" y="1166" on="0"/>
        <pt x="942" y="1256" on="0"/>
        <pt x="877" y="1317" on="0"/>
        <pt x="772" y="1349" on="0"/>
        <pt x="697" y="1349" on="1"/>
        <pt x="682" y="1349" on="0"/>
        <pt x="643" y="1347" on="0"/>
        <pt x="603" y="1342" on="0"/>
        <pt x="562" y="1337" on="0"/>
        <pt x="546" y="1334" on="1"/>
      </contour>
    </TTGlyph>
    <TTGlyph name="Q" xMin="86" yMin="-390" xMax="1336" yMax="1546">
      <contour>
        <pt x="537" y="-12" on="1"/>
        <pt x="425" y="1" on="0"/>
        <pt x="257" y="107" on="0"/>
        <pt x="145" y="269" on="0"/>
        <pt x="88" y="478" on="0"/>
        <pt x="87" y="594" on="1"/>
        <pt x="86" y="725" on="0"/>
        <pt x="132" y="969" on="0"/>
        <pt x="220" y="1180" on="0"/>
        <pt x="349" y="1354" on="0"/>
        <pt x="513" y="1478" on="0"/>
        <pt x="707" y="1546" on="0"/>
        <pt x="818" y="1546" on="1"/>
        <pt x="947" y="1546" on="0"/>
        <pt x="1139" y="1449" on="0"/>
        <pt x="1268" y="1282" on="0"/>
        <pt x="1334" y="1059" on="0"/>
        <pt x="1335" y="934" on="1"/>
        <pt x="1336" y="755" on="0"/>
        <pt x="1251" y="434" on="0"/>
        <pt x="1090" y="183" on="0"/>
        <pt x="861" y="17" on="0"/>
        <pt x="717" y="-7" on="1"/>
        <pt x="716" y="-59" on="0"/>
        <pt x="759" y="-119" on="0"/>
        <pt x="833" y="-150" on="0"/>
        <pt x="931" y="-159" on="0"/>
        <pt x="985" y="-159" on="1"/>
        <pt x="1017" y="-159" on="0"/>
        <pt x="1086" y="-156" on="0"/>
        <pt x="1152" y="-150" on="0"/>
        <pt x="1213" y="-140" on="0"/>
        <pt x="1237" y="-132" on="1"/>
        <pt x="1237" y="-310" on="1"/>
        <pt x="1217" y="-327" on="0"/>
        <pt x="1137" y="-356" on="0"/>
        <pt x="1039" y="-378" on="0"/>
        <pt x="935" y="-390" on="0"/>
        <pt x="890" y="-390" on="1"/>
        <pt x="837" y="-390" on="0"/>
        <pt x="734" y="-373" on="0"/>
        <pt x="645" y="-336" on="0"/>
        <pt x="573" y="-276" on="0"/>
        <pt x="530" y="-192" on="0"/>
        <pt x="520" y="-82" on="0"/>
      </contour>
      <contour>
        <pt x="639" y="193" on="1"/>
        <pt x="702" y="193" on="0"/>
        <pt x="813" y="250" on="0"/>
        <pt x="905" y="349" on="0"/>
        <pt x="976" y="486" on="0"/>
        <pt x="1026" y="645" on="0"/>
        <pt x="1051" y="820" on="0"/>
        <pt x="1050" y="909" on="1"/>
        <pt x="1049" y="1025" on="0"/>
        <pt x="1015" y="1187" on="0"/>
        <pt x="948" y="1289" on="0"/>
        <pt x="849" y="1335" on="0"/>
        <pt x="783" y="1335" on="1"/>
        <pt x="720" y="1335" on="0"/>
        <pt x="609" y="1277" on="0"/>
        <pt x="517" y="1176" on="0"/>
        <pt x="446" y="1039" on="0"/>
        <pt x="396" y="880" on="0"/>
        <pt x="371" y="708" on="0"/>
        <pt x="372" y="622" on="1"/>
        <pt x="373" y="506" on="0"/>
        <pt x="408" y="343" on="0"/>
        <pt x="474" y="240" on="0"/>
        <pt x="573" y="193" on="0"/>
      </contour>
    </TTGlyph>
    <TTGlyph name="R" xMin="90" yMin="-1" xMax="1257" yMax="1546">
      <contour>
        <pt x="296" y="1530" on="1"/>
        <pt x="448" y="1530" on="1"/>
        <pt x="492" y="1530" on="0"/>
        <pt x="561" y="1535" on="0"/>
        <pt x="628" y="1541" on="0"/>
        <pt x="700" y="1546" on="0"/>
        <pt x="747" y="1546" on="1"/>
        <pt x="879" y="1546" on="0"/>
        <pt x="1070" y="1496" on="0"/>
        <pt x="1194" y="1401" on="0"/>
        <pt x="1255" y="1262" on="0"/>
        <pt x="1256" y="1173" on="1"/>
        <pt x="1257" y="1084" on="0"/>
        <pt x="1217" y="922" on="0"/>
        <pt x="1132" y="787" on="0"/>
        <pt x="1002" y="687" on="0"/>
        <pt x="913" y="660" on="1"/>
        <pt x="933" y="642" on="0"/>
        <pt x="974" y="583" on="0"/>
        <pt x="1011" y="512" on="0"/>
        <pt x="1043" y="433" on="0"/>
        <pt x="1055" y="393" on="1"/>
        <pt x="1090" y="297" on="0"/>
        <pt x="1140" y="166" on="0"/>
        <pt x="1177" y="76" on="0"/>
        <pt x="1206" y="20" on="0"/>
        <pt x="1221" y="-1" on="1"/>
        <pt x="912" y="1" on="1"/>
        <pt x="902" y="16" on="0"/>
        <pt x="882" y="64" on="0"/>
        <pt x="857" y="136" on="0"/>
        <pt x="825" y="237" on="0"/>
        <pt x="804" y="306" on="1"/>
        <pt x="786" y="372" on="0"/>
        <pt x="744" y="483" on="0"/>
        <pt x="700" y="564" on="0"/>
        <pt x="653" y="611" on="0"/>
        <pt x="630" y="612" on="1"/>
        <pt x="564" y="612" on="1"/>
        <pt x="536" y="612" on="0"/>
        <pt x="473" y="613" on="0"/>
        <pt x="450" y="613" on="1"/>
        <pt x="366" y="0" on="1"/>
        <pt x="90" y="0" on="1"/>
      </contour>
      <contour>
        <pt x="478" y="830" on="1"/>
        <pt x="498" y="829" on="0"/>
        <pt x="556" y="828" on="0"/>
        <pt x="617" y="827" on="0"/>
        <pt x="671" y="827" on="0"/>
        <pt x="687" y="827" on="1"/>
        <pt x="767" y="827" on="0"/>
        <pt x="879" y="885" on="0"/>
        <pt x="948" y="979" on="0"/>
        <pt x="978" y="1099" on="0"/>
        <pt x="976" y="1161" on="1"/>
        <pt x="972" y="1260" on="0"/>
        <pt x="843" y="1347" on="0"/>
        <pt x="719" y="1347" on="1"/>
        <pt x="699" y="1347" on="0"/>
        <pt x="650" y="1345" on="0"/>
        <pt x="601" y="1341" on="0"/>
        <pt x="559" y="1336" on="0"/>
        <pt x="546" y="1334" on="1"/>
      </contour>
    </TTGlyph>
    <TTGlyph name="Racute" xMin="96" yMin="-1" xMax="1263" yMax="2007">
      <component glyphName="R" x="6" y="0" flags="0x4"/>
      <component glyphName="acute.cap" x="663" y="0" flags="0x4"/>
    </TTGlyph>
    <TTGlyph name="Rcaron" xMin="96" yMin="-1" xMax="1263" yMax="2007">
      <component glyphName="caron.cap" x="401" y="0" flags="0x4"/>
      <component glyphName="R" x="6" y="0" flags="0x4"/>
    </TTGlyph>
    <TTGlyph name="Rcommaaccent" xMin="96" yMin="-560" xMax="1263" yMax="1546">
      <component glyphName="commaaccent" x="460" y="0" flags="0x4"/>
      <component glyphName="R" x="6" y="0" flags="0x4"/>
    </TTGlyph>
    <TTGlyph name="S" xMin="12" yMin="-16" xMax="1027" yMax="1546">
      <contour>
        <pt x="100" y="302" on="1"/>
        <pt x="119" y="285" on="0"/>
        <pt x="186" y="250" on="0"/>
        <pt x="269" y="221" on="0"/>
        <pt x="360" y="203" on="0"/>
        <pt x="403" y="203" on="1"/>
        <pt x="461" y="203" on="0"/>
        <pt x="557" y="227" on="0"/>
        <pt x="626" y="275" on="0"/>
        <pt x="664" y="348" on="0"/>
        <pt x="664" y="397" on="1"/>
        <pt x="664" y="434" on="0"/>
        <pt x="645" y="501" on="0"/>
        <pt x="597" y="567" on="0"/>
        <pt x="519" y="636" on="0"/>
        <pt x="461" y="677" on="1"/>
        <pt x="410" y="713" on="0"/>
        <pt x="308" y="801" on="0"/>
        <pt x="227" y="908" on="0"/>
        <pt x="177" y="1036" on="0"/>
        <pt x="176" y="1113" on="1"/>
        <pt x="175" y="1214" on="0"/>
        <pt x="247" y="1374" on="0"/>
        <pt x="379" y="1486" on="0"/>
        <pt x="564" y="1546" on="0"/>
        <pt x="675" y="1546" on="1"/>
        <pt x="743" y="1546" on="0"/>
        <pt x="855" y="1530" on="0"/>
        <pt x="944" y="1505" on="0"/>
        <pt x="1008" y="1475" on="0"/>
        <pt x="1027" y="1461" on="1"/>
        <pt x="940" y="1245" on="1"/>
        <pt x="919" y="1266" on="0"/>
        <pt x="857" y="1298" on="0"/>
        <pt x="785" y="1320" on="0"/>
        <pt x="710" y="1331" on="0"/>
        <pt x="677" y="1331" on="1"/>
        <pt x="630" y="1331" on="0"/>
        <pt x="547" y="1312" on="0"/>
        <pt x="484" y="1270" on="0"/>
        <pt x="445" y="1205" on="0"/>
        <pt x="444" y="1160" on="1"/>
        <pt x="442" y="1112" on="0"/>
        <pt x="469" y="1035" on="0"/>
        <pt x="523" y="966" on="0"/>
        <pt x="603" y="900" on="0"/>
        <pt x="656" y="862" on="1"/>
        <pt x="705" y="826" on="0"/>
        <pt x="809" y="741" on="0"/>
        <pt x="893" y="638" on="0"/>
        <pt x="947" y="515" on="0"/>
        <pt x="948" y="440" on="1"/>
        <pt x="949" y="326" on="0"/>
        <pt x="867" y="155" on="0"/>
        <pt x="719" y="41" on="0"/>
        <pt x="515" y="-16" on="0"/>
        <pt x="393" y="-16" on="1"/>
        <pt x="333" y="-16" on="0"/>
        <pt x="211" y="3" on="0"/>
        <pt x="107" y="31" on="0"/>
        <pt x="29" y="64" on="0"/>
        <pt x="12" y="78" on="1"/>
      </contour>
    </TTGlyph>
    <TTGlyph name="Sacute" xMin="18" yMin="-16" xMax="1051" yMax="2007">
      <component glyphName="S" x="6" y="0" flags="0x4"/>
      <component glyphName="acute.cap" x="557" y="0" flags="0x4"/>
    </TTGlyph>
    <TTGlyph name="Scaron" xMin="18" yMin="-16" xMax="1096" yMax="2007">
      <component glyphName="S" x="6" y="0" flags="0x4"/>
      <component glyphName="caron.cap" x="295" y="0" flags="0x4"/>
    </TTGlyph>
    <TTGlyph name="Scircumflex" xMin="18" yMin="-16" xMax="1058" yMax="2007">
      <component glyphName="S" x="6" y="0" flags="0x4"/>
      <component glyphName="circumflex.cap" x="295" y="0" flags="0x4"/>
    </TTGlyph>
    <TTGlyph name="T" xMin="133" yMin="0" xMax="1221" yMax="1530">
      <contour>
        <pt x="526" y="1325" on="1"/>
        <pt x="133" y="1314" on="1"/>
        <pt x="166" y="1530" on="1"/>
        <pt x="1221" y="1530" on="1"/>
        <pt x="1191" y="1314" on="1"/>
        <pt x="805" y="1325" on="1"/>
        <pt x="627" y="0" on="1"/>
        <pt x="348" y="0" on="1"/>
      </contour>
    </TTGlyph>
    <TTGlyph name="Tbar" xMin="139" yMin="0" xMax="1227" yMax="1530">
      <contour>
        <pt x="445" y="679" on="1"/>
        <pt x="196" y="679" on="1"/>
        <pt x="219" y="869" on="1"/>
        <pt x="470" y="869" on="1"/>
        <pt x="532" y="1325" on="1"/>
        <pt x="139" y="1314" on="1"/>
        <pt x="172" y="1530" on="1"/>
        <pt x="1227" y="1530" on="1"/>
        <pt x="1197" y="1314" on="1"/>
        <pt x="811" y="1325" on="1"/>
        <pt x="749" y="869" on="1"/>
        <pt x="1008" y="869" on="1"/>
        <pt x="985" y="679" on="1"/>
        <pt x="724" y="679" on="1"/>
        <pt x="633" y="0" on="1"/>
        <pt x="354" y="0" on="1"/>
      </contour>
    </TTGlyph>
    <TTGlyph name="Tcaron" xMin="139" yMin="0" xMax="1227" yMax="2007">
      <component glyphName="caron.cap" x="332" y="0" flags="0x4"/>
      <component glyphName="T" x="6" y="0" flags="0x4"/>
    </TTGlyph>
    <TTGlyph name="Thorn" xMin="93" yMin="0" xMax="1214" yMax="1530">
      <contour>
        <pt x="297" y="1530" on="1"/>
        <pt x="576" y="1530" on="1"/>
        <pt x="543" y="1284" on="1"/>
        <pt x="583" y="1288" on="0"/>
        <pt x="669" y="1293" on="0"/>
        <pt x="716" y="1293" on="1"/>
        <pt x="953" y="1293" on="0"/>
        <pt x="1211" y="1090" on="0"/>
        <pt x="1213" y="885" on="1"/>
        <pt x="1214" y="750" on="0"/>
        <pt x="1127" y="522" on="0"/>
        <pt x="962" y="357" on="0"/>
        <pt x="726" y="264" on="0"/>
        <pt x="578" y="264" on="1"/>
        <pt x="518" y="264" on="0"/>
        <pt x="429" y="273" on="0"/>
        <pt x="409" y="275" on="1"/>
        <pt x="373" y="0" on="1"/>
        <pt x="93" y="0" on="1"/>
      </contour>
      <contour>
        <pt x="437" y="487" on="1"/>
        <pt x="448" y="484" on="0"/>
        <pt x="483" y="479" on="0"/>
        <pt x="524" y="476" on="0"/>
        <pt x="566" y="475" on="0"/>
        <pt x="584" y="475" on="1"/>
        <pt x="673" y="475" on="0"/>
        <pt x="804" y="527" on="0"/>
        <pt x="891" y="626" on="0"/>
        <pt x="936" y="769" on="0"/>
        <pt x="939" y="861" on="1"/>
        <pt x="941" y="917" on="0"/>
        <pt x="913" y="1004" on="0"/>
        <pt x="848" y="1064" on="0"/>
        <pt x="743" y="1095" on="0"/>
        <pt x="668" y="1095" on="1"/>
        <pt x="653" y="1095" on="0"/>
        <pt x="614" y="1093" on="0"/>
        <pt x="574" y="1090" on="0"/>
        <pt x="533" y="1085" on="0"/>
        <pt x="517" y="1082" on="1"/>
        <pt x="516" y="1082" on="1"/>
      </contour>
    </TTGlyph>
    <TTGlyph name="U" xMin="130" yMin="-16" xMax="1381" yMax="1530">
      <contour>
        <pt x="131" y="430" on="1"/>
        <pt x="130" y="469" on="0"/>
        <pt x="138" y="550" on="0"/>
        <pt x="144" y="595" on="1"/>
        <pt x="269" y="1530" on="1"/>
        <pt x="545" y="1530" on="1"/>
        <pt x="425" y="635" on="1"/>
        <pt x="418" y="580" on="0"/>
        <pt x="413" y="486" on="0"/>
        <pt x="413" y="443" on="1"/>
        <pt x="415" y="314" on="0"/>
        <pt x="533" y="200" on="0"/>
        <pt x="653" y="200" on="1"/>
        <pt x="723" y="200" on="0"/>
        <pt x="833" y="245" on="0"/>
        <pt x="916" y="349" on="0"/>
        <pt x="972" y="517" on="0"/>
        <pt x="989" y="639" on="1"/>
        <pt x="1108" y="1530" on="1"/>
        <pt x="1381" y="1530" on="1"/>
        <pt x="1259" y="612" on="1"/>
        <pt x="1236" y="441" on="0"/>
        <pt x="1135" y="202" on="0"/>
        <pt x="976" y="52" on="0"/>
        <pt x="756" y="-16" on="0"/>
        <pt x="612" y="-16" on="1"/>
        <pt x="490" y="-16" on="0"/>
        <pt x="311" y="46" on="0"/>
        <pt x="192" y="161" on="0"/>
        <pt x="132" y="326" on="0"/>
      </contour>
    </TTGlyph>
    <TTGlyph name="Uacute" xMin="130" yMin="-16" xMax="1381" yMax="2007">
      <component glyphName="acute.cap" x="709" y="0" flags="0x4"/>
      <component glyphName="U" x="0" y="0" flags="0x4"/>
    </TTGlyph>
    <TTGlyph name="Ubreve" xMin="130" yMin="-16" xMax="1381" yMax="1997">
      <component glyphName="breve.cap" x="493" y="0" flags="0x4"/>
      <component glyphName="U" x="0" y="0" flags="0x4"/>
    </TTGlyph>
    <TTGlyph name="Ucircumflex" xMin="130" yMin="-16" xMax="1381" yMax="2007">
      <component glyphName="U" x="0" y="0" flags="0x204"/>
      <component glyphName="circumflex.cap" x="448" y="0" flags="0x4"/>
    </TTGlyph>
    <TTGlyph name="Udieresis" xMin="130" yMin="-16" xMax="1381" yMax="1977">
      <component glyphName="dieresis.cap" x="364" y="0" flags="0x4"/>
      <component glyphName="U" x="0" y="0" flags="0x4"/>
    </TTGlyph>
    <TTGlyph name="Ugrave" xMin="130" yMin="-16" xMax="1381" yMax="2007">
      <component glyphName="grave.cap" x="469" y="0" flags="0x4"/>
      <component glyphName="U" x="0" y="0" flags="0x4"/>
    </TTGlyph>
    <TTGlyph name="Uhungarumlaut" xMin="130" yMin="-16" xMax="1408" yMax="2007">
      <component glyphName="U" x="0" y="0" flags="0x204"/>
      <component glyphName="hungarumlaut.cap" x="493" y="0" flags="0x4"/>
    </TTGlyph>
    <TTGlyph name="Umacron" xMin="130" yMin="-16" xMax="1381" yMax="1897">
      <component glyphName="macron.cap" x="522" y="0" flags="0x4"/>
      <component glyphName="U" x="0" y="0" flags="0x4"/>
    </TTGlyph>
    <TTGlyph name="Uogonek" xMin="136" yMin="-473" xMax="1387" yMax="1530">
      <contour>
        <pt x="137" y="430" on="1"/>
        <pt x="136" y="469" on="0"/>
        <pt x="144" y="550" on="0"/>
        <pt x="150" y="595" on="1"/>
        <pt x="275" y="1530" on="1"/>
        <pt x="551" y="1530" on="1"/>
        <pt x="431" y="635" on="1"/>
        <pt x="424" y="580" on="0"/>
        <pt x="419" y="486" on="0"/>
        <pt x="419" y="443" on="1"/>
        <pt x="421" y="314" on="0"/>
        <pt x="539" y="200" on="0"/>
        <pt x="659" y="200" on="1"/>
        <pt x="729" y="200" on="0"/>
        <pt x="839" y="245" on="0"/>
        <pt x="922" y="349" on="0"/>
        <pt x="978" y="517" on="0"/>
        <pt x="995" y="639" on="1"/>
        <pt x="1114" y="1530" on="1"/>
        <pt x="1387" y="1530" on="1"/>
        <pt x="1265" y="612" on="1"/>
        <pt x="1249" y="493" on="0"/>
        <pt x="1191" y="305" on="0"/>
        <pt x="1105" y="163" on="0"/>
        <pt x="990" y="65" on="0"/>
        <pt x="918" y="35" on="1"/>
        <pt x="883" y="4" on="0"/>
        <pt x="810" y="-66" on="0"/>
        <pt x="751" y="-134" on="0"/>
        <pt x="713" y="-194" on="0"/>
        <pt x="713" y="-213" on="1"/>
        <pt x="713" y="-234" on="0"/>
        <pt x="725" y="-261" on="0"/>
        <pt x="743" y="-276" on="0"/>
        <pt x="766" y="-282" on="0"/>
        <pt x="778" y="-282" on="1"/>
        <pt x="813" y="-282" on="0"/>
        <pt x="878" y="-259" on="0"/>
        <pt x="920" y="-227" on="1"/>
        <pt x="966" y="-364" on="1"/>
        <pt x="919" y="-409" on="0"/>
        <pt x="777" y="-473" on="0"/>
        <pt x="679" y="-473" on="1"/>
        <pt x="629" y="-473" on="0"/>
        <pt x="553" y="-442" on="0"/>
        <pt x="502" y="-393" on="0"/>
        <pt x="476" y="-331" on="0"/>
        <pt x="476" y="-299" on="1"/>
        <pt x="476" y="-252" on="0"/>
        <pt x="525" y="-164" on="0"/>
        <pt x="597" y="-90" on="0"/>
        <pt x="680" y="-31" on="0"/>
        <pt x="714" y="-12" on="1"/>
        <pt x="691" y="-14" on="0"/>
        <pt x="643" y="-16" on="0"/>
        <pt x="618" y="-16" on="1"/>
        <pt x="496" y="-16" on="0"/>
        <pt x="317" y="46" on="0"/>
        <pt x="198" y="161" on="0"/>
        <pt x="138" y="326" on="0"/>
      </contour>
    </TTGlyph>
    <TTGlyph name="Uring" xMin="130" yMin="-16" xMax="1381" yMax="2007">
      <component glyphName="U" x="0" y="0" flags="0x204"/>
      <component glyphName="ring.cap" x="480" y="0" flags="0x4"/>
    </TTGlyph>
    <TTGlyph name="Utilde" xMin="130" yMin="-16" xMax="1381" yMax="1975">
      <component glyphName="tilde.cap" x="457" y="0" flags="0x4"/>
      <component glyphName="U" x="0" y="0" flags="0x4"/>
    </TTGlyph>
    <TTGlyph name="V" xMin="116" yMin="0" xMax="1343" yMax="1530">
      <contour>
        <pt x="116" y="1530" on="1"/>
        <pt x="392" y="1530" on="1"/>
        <pt x="532" y="490" on="1"/>
        <pt x="553" y="248" on="1"/>
        <pt x="635" y="490" on="1"/>
        <pt x="1051" y="1530" on="1"/>
        <pt x="1343" y="1530" on="1"/>
        <pt x="665" y="0" on="1"/>
        <pt x="354" y="0" on="1"/>
      </contour>
    </TTGlyph>
    <TTGlyph name="W" xMin="112" yMin="-5" xMax="1945" yMax="1530">
      <contour>
        <pt x="112" y="1530" on="1"/>
        <pt x="389" y="1530" on="1"/>
        <pt x="489" y="493" on="1"/>
        <pt x="515" y="274" on="1"/>
        <pt x="579" y="493" on="1"/>
        <pt x="879" y="1251" on="1"/>
        <pt x="849" y="1530" on="1"/>
        <pt x="1117" y="1530" on="1"/>
        <pt x="1205" y="493" on="1"/>
        <pt x="1224" y="274" on="1"/>
        <pt x="1287" y="493" on="1"/>
        <pt x="1663" y="1530" on="1"/>
        <pt x="1945" y="1530" on="1"/>
        <pt x="1333" y="-5" on="1"/>
        <pt x="1025" y="-5" on="1"/>
        <pt x="949" y="698" on="1"/>
        <pt x="933" y="867" on="1"/>
        <pt x="875" y="698" on="1"/>
        <pt x="610" y="-5" on="1"/>
        <pt x="320" y="-5" on="1"/>
      </contour>
    </TTGlyph>
    <TTGlyph name="Wacute" xMin="118" yMin="-5" xMax="1951" yMax="2007">
      <component glyphName="acute.cap" x="916" y="0" flags="0x4"/>
      <component glyphName="W" x="6" y="0" flags="0x4"/>
    </TTGlyph>
    <TTGlyph name="Wcircumflex" xMin="118" yMin="-5" xMax="1951" yMax="2007">
      <component glyphName="W" x="6" y="0" flags="0x4"/>
      <component glyphName="circumflex.cap" x="654" y="0" flags="0x4"/>
    </TTGlyph>
    <TTGlyph name="Wdieresis" xMin="118" yMin="-5" xMax="1951" yMax="1977">
      <component glyphName="dieresis.cap" x="570" y="0" flags="0x4"/>
      <component glyphName="W" x="6" y="0" flags="0x4"/>
    </TTGlyph>
    <TTGlyph name="Wgrave" xMin="118" yMin="-5" xMax="1951" yMax="2007">
      <component glyphName="grave.cap" x="676" y="0" flags="0x4"/>
      <component glyphName="W" x="6" y="0" flags="0x4"/>
    </TTGlyph>
    <TTGlyph name="X" xMin="-79" yMin="-1" xMax="1322" yMax="1530">
      <contour>
        <pt x="482" y="801" on="1"/>
        <pt x="162" y="1530" on="1"/>
        <pt x="461" y="1530" on="1"/>
        <pt x="664" y="985" on="1"/>
        <pt x="1017" y="1530" on="1"/>
        <pt x="1322" y="1530" on="1"/>
        <pt x="782" y="744" on="1"/>
        <pt x="1129" y="0" on="1"/>
        <pt x="822" y="-1" on="1"/>
        <pt x="597" y="575" on="1"/>
        <pt x="239" y="0" on="1"/>
        <pt x="-79" y="0" on="1"/>
      </contour>
    </TTGlyph>
    <TTGlyph name="Y" xMin="83" yMin="0" xMax="1297" yMax="1530">
      <contour>
        <pt x="429" y="590" on="1"/>
        <pt x="83" y="1530" on="1"/>
        <pt x="375" y="1530" on="1"/>
        <pt x="570" y="922" on="1"/>
        <pt x="598" y="817" on="1"/>
        <pt x="646" y="922" on="1"/>
        <pt x="994" y="1530" on="1"/>
        <pt x="1297" y="1530" on="1"/>
        <pt x="700" y="590" on="1"/>
        <pt x="620" y="0" on="1"/>
        <pt x="349" y="0" on="1"/>
      </contour>
    </TTGlyph>
    <TTGlyph name="Yacute" xMin="89" yMin="0" xMax="1303" yMax="2007">
      <component glyphName="Y" x="6" y="0" flags="0x4"/>
      <component glyphName="acute.cap" x="572" y="0" flags="0x4"/>
    </TTGlyph>
    <TTGlyph name="Ycircumflex" xMin="89" yMin="0" xMax="1303" yMax="2007">
      <component glyphName="Y" x="6" y="0" flags="0x4"/>
      <component glyphName="circumflex.cap" x="311" y="0" flags="0x4"/>
    </TTGlyph>
    <TTGlyph name="Ydieresis" xMin="89" yMin="0" xMax="1303" yMax="1977">
      <component glyphName="Y" x="6" y="0" flags="0x4"/>
      <component glyphName="dieresis.cap" x="227" y="0" flags="0x4"/>
    </TTGlyph>
    <TTGlyph name="Ygrave" xMin="89" yMin="0" xMax="1303" yMax="2007">
      <component glyphName="Y" x="6" y="0" flags="0x4"/>
      <component glyphName="grave.cap" x="332" y="0" flags="0x4"/>
    </TTGlyph>
    <TTGlyph name="Z" xMin="-27" yMin="0" xMax="1220" yMax="1530">
      <contour>
        <pt x="-27" y="89" on="1"/>
        <pt x="750" y="1203" on="1"/>
        <pt x="864" y="1316" on="1"/>
        <pt x="225" y="1304" on="1"/>
        <pt x="259" y="1530" on="1"/>
        <pt x="1196" y="1530" on="1"/>
        <pt x="1220" y="1444" on="1"/>
        <pt x="459" y="330" on="1"/>
        <pt x="355" y="220" on="1"/>
        <pt x="1040" y="231" on="1"/>
        <pt x="1003" y="0" on="1"/>
        <pt x="1" y="0" on="1"/>
      </contour>
    </TTGlyph>
    <TTGlyph name="Zacute" xMin="-27" yMin="0" xMax="1220" yMax="2007">
      <component glyphName="Z" x="0" y="0" flags="0x204"/>
      <component glyphName="acute.cap" x="629" y="0" flags="0x4"/>
    </TTGlyph>
    <TTGlyph name="Zcaron" xMin="-27" yMin="0" xMax="1220" yMax="2007">
      <component glyphName="caron.cap" x="367" y="0" flags="0x4"/>
      <component glyphName="Z" x="0" y="0" flags="0x4"/>
    </TTGlyph>
    <TTGlyph name="Zdotaccent" xMin="-27" yMin="0" xMax="1220" yMax="1967">
      <component glyphName="dotaccent.cap" x="584" y="0" flags="0x4"/>
      <component glyphName="Z" x="0" y="0" flags="0x4"/>
    </TTGlyph>
    <TTGlyph name="a" xMin="76" yMin="-16" xMax="1132" yMax="1156">
      <contour>
        <pt x="399" y="-16" on="1"/>
        <pt x="312" y="-16" on="0"/>
        <pt x="189" y="49" on="0"/>
        <pt x="112" y="165" on="0"/>
        <pt x="76" y="322" on="0"/>
        <pt x="76" y="414" on="1"/>
        <pt x="76" y="499" on="0"/>
        <pt x="112" y="675" on="0"/>
        <pt x="184" y="840" on="0"/>
        <pt x="294" y="985" on="0"/>
        <pt x="443" y="1093" on="0"/>
        <pt x="631" y="1156" on="0"/>
        <pt x="746" y="1156" on="1"/>
        <pt x="775" y="1156" on="0"/>
        <pt x="838" y="1149" on="0"/>
        <pt x="901" y="1138" on="0"/>
        <pt x="959" y="1124" on="0"/>
        <pt x="983" y="1117" on="1"/>
        <pt x="1132" y="1156" on="1"/>
        <pt x="973" y="0" on="1"/>
        <pt x="727" y="0" on="1"/>
        <pt x="741" y="217" on="1"/>
        <pt x="717" y="175" on="0"/>
        <pt x="649" y="92" on="0"/>
        <pt x="563" y="25" on="0"/>
        <pt x="459" y="-16" on="0"/>
      </contour>
      <contour>
        <pt x="479" y="180" on="1"/>
        <pt x="524" y="180" on="0"/>
        <pt x="609" y="240" on="0"/>
        <pt x="684" y="331" on="0"/>
        <pt x="745" y="439" on="0"/>
        <pt x="766" y="486" on="1"/>
        <pt x="833" y="966" on="1"/>
        <pt x="807" y="974" on="0"/>
        <pt x="749" y="980" on="0"/>
        <pt x="718" y="980" on="1"/>
        <pt x="656" y="980" on="0"/>
        <pt x="556" y="933" on="0"/>
        <pt x="477" y="852" on="0"/>
        <pt x="419" y="744" on="0"/>
        <pt x="381" y="624" on="0"/>
        <pt x="363" y="497" on="0"/>
        <pt x="363" y="437" on="1"/>
        <pt x="363" y="304" on="0"/>
        <pt x="423" y="180" on="0"/>
      </contour>
    </TTGlyph>
    <TTGlyph name="aacute" xMin="76" yMin="-16" xMax="1132" yMax="1744">
      <component glyphName="a" x="0" y="0" flags="0x204"/>
      <component glyphName="acute" x="597" y="0" flags="0x4"/>
    </TTGlyph>
    <TTGlyph name="abreve" xMin="76" yMin="-16" xMax="1132" yMax="1666">
      <component glyphName="a" x="0" y="0" flags="0x204"/>
      <component glyphName="breve" x="410" y="0" flags="0x4"/>
    </TTGlyph>
    <TTGlyph name="acircumflex" xMin="76" yMin="-16" xMax="1132" yMax="1660">
      <component glyphName="a" x="0" y="0" flags="0x204"/>
      <component glyphName="circumflex" x="341" y="0" flags="0x4"/>
    </TTGlyph>
    <TTGlyph name="acute" xMin="34" yMin="1234" xMax="535" yMax="1744">
      <contour>
        <pt x="34" y="1319" on="1"/>
        <pt x="355" y="1744" on="1"/>
        <pt x="535" y="1575" on="1"/>
        <pt x="526" y="1558" on="0"/>
        <pt x="477" y="1501" on="0"/>
        <pt x="409" y="1433" on="0"/>
        <pt x="327" y="1360" on="0"/>
        <pt x="245" y="1296" on="0"/>
        <pt x="168" y="1245" on="0"/>
        <pt x="138" y="1234" on="1"/>
      </contour>
    </TTGlyph>
    <TTGlyph name="acute.cap" xMin="50" yMin="1572" xMax="494" yMax="2007">
      <contour>
        <pt x="50" y="1665" on="1"/>
        <pt x="327" y="2007" on="1"/>
        <pt x="494" y="1850" on="1"/>
        <pt x="473" y="1810" on="0"/>
        <pt x="389" y="1724" on="0"/>
        <pt x="292" y="1646" on="0"/>
        <pt x="194" y="1585" on="0"/>
        <pt x="158" y="1572" on="1"/>
      </contour>
    </TTGlyph>
    <TTGlyph name="adieresis" xMin="76" yMin="-16" xMax="1153" yMax="1676">
      <component glyphName="a" x="0" y="0" flags="0x204"/>
      <component glyphName="dieresis" x="375" y="0" flags="0x4"/>
    </TTGlyph>
    <TTGlyph name="ae" xMin="75" yMin="-16" xMax="1639" yMax="1156">
      <contour>
        <pt x="383" y="-16" on="1"/>
        <pt x="296" y="-16" on="0"/>
        <pt x="178" y="49" on="0"/>
        <pt x="106" y="165" on="0"/>
        <pt x="75" y="322" on="0"/>
        <pt x="75" y="414" on="1"/>
        <pt x="75" y="499" on="0"/>
        <pt x="112" y="675" on="0"/>
        <pt x="187" y="840" on="0"/>
        <pt x="301" y="985" on="0"/>
        <pt x="455" y="1093" on="0"/>
        <pt x="651" y="1156" on="0"/>
        <pt x="770" y="1156" on="1"/>
        <pt x="842" y="1156" on="0"/>
        <pt x="978" y="1126" on="0"/>
        <pt x="1045" y="1084" on="1"/>
        <pt x="1108" y="1119" on="0"/>
        <pt x="1250" y="1156" on="0"/>
        <pt x="1328" y="1156" on="1"/>
        <pt x="1408" y="1156" on="0"/>
        <pt x="1525" y="1118" on="0"/>
        <pt x="1602" y="1051" on="0"/>
        <pt x="1639" y="957" on="0"/>
        <pt x="1639" y="900" on="1"/>
        <pt x="1639" y="821" on="0"/>
        <pt x="1583" y="693" on="0"/>
        <pt x="1488" y="591" on="0"/>
        <pt x="1361" y="513" on="0"/>
        <pt x="1219" y="456" on="0"/>
        <pt x="1069" y="416" on="0"/>
        <pt x="999" y="404" on="1"/>
        <pt x="998" y="363" on="0"/>
        <pt x="1010" y="284" on="0"/>
        <pt x="1049" y="221" on="0"/>
        <pt x="1119" y="182" on="0"/>
        <pt x="1176" y="182" on="1"/>
        <pt x="1219" y="182" on="0"/>
        <pt x="1309" y="208" on="0"/>
        <pt x="1395" y="252" on="0"/>
        <pt x="1473" y="311" on="0"/>
        <pt x="1504" y="343" on="1"/>
        <pt x="1577" y="202" on="1"/>
        <pt x="1555" y="171" on="0"/>
        <pt x="1471" y="95" on="0"/>
        <pt x="1354" y="29" on="0"/>
        <pt x="1206" y="-16" on="0"/>
        <pt x="1121" y="-16" on="1"/>
        <pt x="1036" y="-16" on="0"/>
        <pt x="905" y="29" on="0"/>
        <pt x="808" y="109" on="0"/>
        <pt x="744" y="215" on="0"/>
        <pt x="727" y="277" on="1"/>
        <pt x="703" y="225" on="0"/>
        <pt x="636" y="121" on="0"/>
        <pt x="550" y="37" on="0"/>
        <pt x="445" y="-16" on="0"/>
      </contour>
      <contour>
        <pt x="999" y="563" on="1"/>
        <pt x="1034" y="565" on="0"/>
        <pt x="1116" y="587" on="0"/>
        <pt x="1198" y="627" on="0"/>
        <pt x="1275" y="681" on="0"/>
        <pt x="1334" y="749" on="0"/>
        <pt x="1369" y="829" on="0"/>
        <pt x="1369" y="874" on="1"/>
        <pt x="1369" y="935" on="0"/>
        <pt x="1315" y="984" on="0"/>
        <pt x="1267" y="984" on="1"/>
        <pt x="1226" y="984" on="0"/>
        <pt x="1155" y="944" on="0"/>
        <pt x="1098" y="876" on="0"/>
        <pt x="1053" y="789" on="0"/>
        <pt x="1021" y="696" on="0"/>
        <pt x="1002" y="602" on="0"/>
      </contour>
      <contour>
        <pt x="468" y="191" on="1"/>
        <pt x="502" y="191" on="0"/>
        <pt x="569" y="241" on="0"/>
        <pt x="632" y="321" on="0"/>
        <pt x="687" y="420" on="0"/>
        <pt x="709" y="469" on="1"/>
        <pt x="715" y="616" on="0"/>
        <pt x="806" y="859" on="0"/>
        <pt x="883" y="950" on="1"/>
        <pt x="848" y="965" on="0"/>
        <pt x="775" y="980" on="0"/>
        <pt x="742" y="980" on="1"/>
        <pt x="676" y="980" on="0"/>
        <pt x="569" y="933" on="0"/>
        <pt x="484" y="852" on="0"/>
        <pt x="422" y="744" on="0"/>
        <pt x="382" y="624" on="0"/>
        <pt x="362" y="497" on="0"/>
        <pt x="362" y="437" on="1"/>
        <pt x="362" y="305" on="0"/>
        <pt x="412" y="191" on="0"/>
      </contour>
    </TTGlyph>
    <TTGlyph name="aeacute" xMin="75" yMin="-16" xMax="1639" yMax="1744">
      <component glyphName="acute" x="806" y="0" flags="0x4"/>
      <component glyphName="ae" x="0" y="0" flags="0x4"/>
    </TTGlyph>
    <TTGlyph name="afii61352" xMin="127" yMin="0" xMax="2480" yMax="1532">
      <contour>
        <pt x="1574" y="992" on="1"/>
        <pt x="1580" y="1114" on="0"/>
        <pt x="1665" y="1314" on="0"/>
        <pt x="1806" y="1455" on="0"/>
        <pt x="1992" y="1532" on="0"/>
        <pt x="2100" y="1532" on="1"/>
        <pt x="2199" y="1532" on="0"/>
        <pt x="2345" y="1463" on="0"/>
        <pt x="2439" y="1342" on="0"/>
        <pt x="2480" y="1178" on="0"/>
        <pt x="2474" y="1083" on="1"/>
        <pt x="2468" y="961" on="0"/>
        <pt x="2382" y="761" on="0"/>
        <pt x="2242" y="619" on="0"/>
        <pt x="2056" y="541" on="0"/>
        <pt x="1949" y="541" on="1"/>
        <pt x="1850" y="541" on="0"/>
        <pt x="1703" y="611" on="0"/>
        <pt x="1610" y="733" on="0"/>
        <pt x="1568" y="897" on="0"/>
      </contour>
      <contour>
        <pt x="320" y="1530" on="1"/>
        <pt x="586" y="1530" on="1"/>
        <pt x="966" y="618" on="1"/>
        <pt x="1041" y="386" on="1"/>
        <pt x="1061" y="641" on="1"/>
        <pt x="1166" y="1530" on="1"/>
        <pt x="1424" y="1530" on="1"/>
        <pt x="1231" y="0" on="1"/>
        <pt x="983" y="0" on="1"/>
        <pt x="598" y="926" on="1"/>
        <pt x="519" y="1191" on="1"/>
        <pt x="497" y="894" on="1"/>
        <pt x="382" y="0" on="1"/>
        <pt x="127" y="0" on="1"/>
      </contour>
      <contour>
        <pt x="1823" y="985" on="1"/>
        <pt x="1819" y="922" on="0"/>
        <pt x="1836" y="818" on="0"/>
        <pt x="1876" y="744" on="0"/>
        <pt x="1939" y="705" on="0"/>
        <pt x="1981" y="705" on="1"/>
        <pt x="2039" y="705" on="0"/>
        <pt x="2126" y="763" on="0"/>
        <pt x="2185" y="864" on="0"/>
        <pt x="2218" y="1003" on="0"/>
        <pt x="2222" y="1086" on="1"/>
        <pt x="2226" y="1151" on="0"/>
        <pt x="2210" y="1256" on="0"/>
        <pt x="2170" y="1330" on="0"/>
        <pt x="2108" y="1369" on="0"/>
        <pt x="2066" y="1369" on="1"/>
        <pt x="2009" y="1369" on="0"/>
        <pt x="1922" y="1310" on="0"/>
        <pt x="1862" y="1208" on="0"/>
        <pt x="1827" y="1067" on="0"/>
      </contour>
      <contour>
        <pt x="1533" y="183" on="1"/>
        <pt x="2346" y="183" on="1"/>
        <pt x="2331" y="0" on="1"/>
        <pt x="1518" y="0" on="1"/>
      </contour>
    </TTGlyph>
    <TTGlyph name="agrave" xMin="76" yMin="-16" xMax="1132" yMax="1744">
      <component glyphName="a" x="0" y="0" flags="0x204"/>
      <component glyphName="grave" x="318" y="0" flags="0x4"/>
    </TTGlyph>
    <TTGlyph name="amacron" xMin="76" yMin="-16" xMax="1132" yMax="1594">
      <component glyphName="a" x="0" y="0" flags="0x204"/>
      <component glyphName="macron" x="440" y="0" flags="0x4"/>
    </TTGlyph>
    <TTGlyph name="ampersand" xMin="50" yMin="-18" xMax="1518" yMax="1546">
      <contour>
        <pt x="50" y="365" on="1"/>
        <pt x="50" y="439" on="0"/>
        <pt x="104" y="560" on="0"/>
        <pt x="196" y="660" on="0"/>
        <pt x="317" y="744" on="0"/>
        <pt x="383" y="781" on="1"/>
        <pt x="365" y="820" on="0"/>
        <pt x="335" y="907" on="0"/>
        <pt x="312" y="994" on="0"/>
        <pt x="299" y="1080" on="0"/>
        <pt x="299" y="1118" on="1"/>
        <pt x="299" y="1208" on="0"/>
        <pt x="362" y="1365" on="0"/>
        <pt x="479" y="1480" on="0"/>
        <pt x="648" y="1546" on="0"/>
        <pt x="753" y="1546" on="1"/>
        <pt x="858" y="1546" on="0"/>
        <pt x="1003" y="1488" on="0"/>
        <pt x="1093" y="1398" on="0"/>
        <pt x="1133" y="1289" on="0"/>
        <pt x="1133" y="1238" on="1"/>
        <pt x="1133" y="1145" on="0"/>
        <pt x="1056" y="998" on="0"/>
        <pt x="933" y="879" on="0"/>
        <pt x="777" y="781" on="0"/>
        <pt x="698" y="736" on="1"/>
        <pt x="766" y="623" on="0"/>
        <pt x="929" y="406" on="0"/>
        <pt x="1027" y="315" on="1"/>
        <pt x="1062" y="357" on="0"/>
        <pt x="1102" y="465" on="0"/>
        <pt x="1102" y="532" on="1"/>
        <pt x="1102" y="563" on="0"/>
        <pt x="1095" y="614" on="0"/>
        <pt x="1090" y="637" on="1"/>
        <pt x="1058" y="634" on="0"/>
        <pt x="1006" y="621" on="0"/>
        <pt x="989" y="611" on="1"/>
        <pt x="999" y="790" on="1"/>
        <pt x="1013" y="806" on="0"/>
        <pt x="1084" y="830" on="0"/>
        <pt x="1151" y="830" on="1"/>
        <pt x="1518" y="829" on="1"/>
        <pt x="1504" y="639" on="1"/>
        <pt x="1353" y="639" on="1"/>
        <pt x="1356" y="615" on="0"/>
        <pt x="1356" y="586" on="1"/>
        <pt x="1356" y="461" on="0"/>
        <pt x="1277" y="263" on="0"/>
        <pt x="1205" y="188" on="1"/>
        <pt x="1245" y="171" on="0"/>
        <pt x="1339" y="153" on="0"/>
        <pt x="1400" y="152" on="1"/>
        <pt x="1412" y="151" on="0"/>
        <pt x="1443" y="151" on="0"/>
        <pt x="1457" y="151" on="1"/>
        <pt x="1426" y="1" on="1"/>
        <pt x="1409" y="-4" on="0"/>
        <pt x="1357" y="-12" on="0"/>
        <pt x="1300" y="-16" on="0"/>
        <pt x="1245" y="-18" on="0"/>
        <pt x="1225" y="-18" on="1"/>
        <pt x="1199" y="-18" on="0"/>
        <pt x="1137" y="-11" on="0"/>
        <pt x="1071" y="3" on="0"/>
        <pt x="1005" y="26" on="0"/>
        <pt x="975" y="41" on="1"/>
        <pt x="898" y="12" on="0"/>
        <pt x="725" y="-17" on="0"/>
        <pt x="629" y="-17" on="1"/>
        <pt x="506" y="-17" on="0"/>
        <pt x="295" y="26" on="0"/>
        <pt x="139" y="118" on="0"/>
        <pt x="50" y="263" on="0"/>
      </contour>
      <contour>
        <pt x="607" y="902" on="1"/>
        <pt x="663" y="933" on="0"/>
        <pt x="762" y="998" on="0"/>
        <pt x="835" y="1072" on="0"/>
        <pt x="878" y="1156" on="0"/>
        <pt x="878" y="1207" on="1"/>
        <pt x="878" y="1282" on="0"/>
        <pt x="805" y="1370" on="0"/>
        <pt x="730" y="1370" on="1"/>
        <pt x="689" y="1370" on="0"/>
        <pt x="624" y="1333" on="0"/>
        <pt x="578" y="1270" on="0"/>
        <pt x="554" y="1187" on="0"/>
        <pt x="554" y="1140" on="1"/>
        <pt x="554" y="1071" on="0"/>
        <pt x="587" y="948" on="0"/>
      </contour>
      <contour>
        <pt x="325" y="382" on="1"/>
        <pt x="325" y="321" on="0"/>
        <pt x="379" y="240" on="0"/>
        <pt x="469" y="191" on="0"/>
        <pt x="586" y="171" on="0"/>
        <pt x="649" y="171" on="1"/>
        <pt x="688" y="171" on="0"/>
        <pt x="764" y="179" on="0"/>
        <pt x="799" y="187" on="1"/>
        <pt x="741" y="244" on="0"/>
        <pt x="652" y="347" on="0"/>
        <pt x="578" y="448" on="0"/>
        <pt x="514" y="551" on="0"/>
        <pt x="480" y="607" on="1"/>
        <pt x="411" y="559" on="0"/>
        <pt x="325" y="450" on="0"/>
      </contour>
    </TTGlyph>
    <TTGlyph name="aogonek" xMin="84" yMin="-473" xMax="1140" yMax="1156">
      <contour>
        <pt x="407" y="-16" on="1"/>
        <pt x="320" y="-16" on="0"/>
        <pt x="197" y="49" on="0"/>
        <pt x="120" y="165" on="0"/>
        <pt x="84" y="322" on="0"/>
        <pt x="84" y="414" on="1"/>
        <pt x="84" y="499" on="0"/>
        <pt x="120" y="675" on="0"/>
        <pt x="192" y="840" on="0"/>
        <pt x="302" y="985" on="0"/>
        <pt x="451" y="1093" on="0"/>
        <pt x="639" y="1156" on="0"/>
        <pt x="754" y="1156" on="1"/>
        <pt x="783" y="1156" on="0"/>
        <pt x="846" y="1149" on="0"/>
        <pt x="909" y="1138" on="0"/>
        <pt x="967" y="1124" on="0"/>
        <pt x="991" y="1117" on="1"/>
        <pt x="1140" y="1156" on="1"/>
        <pt x="981" y="0" on="1"/>
        <pt x="973" y="0" on="1"/>
        <pt x="934" y="-21" on="0"/>
        <pt x="853" y="-73" on="0"/>
        <pt x="788" y="-130" on="0"/>
        <pt x="747" y="-187" on="0"/>
        <pt x="747" y="-213" on="1"/>
        <pt x="747" y="-234" on="0"/>
        <pt x="759" y="-261" on="0"/>
        <pt x="777" y="-276" on="0"/>
        <pt x="800" y="-282" on="0"/>
        <pt x="812" y="-282" on="1"/>
        <pt x="846" y="-282" on="0"/>
        <pt x="911" y="-259" on="0"/>
        <pt x="953" y="-227" on="1"/>
        <pt x="999" y="-364" on="1"/>
        <pt x="953" y="-409" on="0"/>
        <pt x="811" y="-473" on="0"/>
        <pt x="712" y="-473" on="1"/>
        <pt x="662" y="-473" on="0"/>
        <pt x="586" y="-442" on="0"/>
        <pt x="535" y="-393" on="0"/>
        <pt x="509" y="-331" on="0"/>
        <pt x="509" y="-299" on="1"/>
        <pt x="509" y="-246" on="0"/>
        <pt x="566" y="-151" on="0"/>
        <pt x="648" y="-73" on="0"/>
        <pt x="738" y="-16" on="0"/>
        <pt x="770" y="0" on="1"/>
        <pt x="735" y="0" on="1"/>
        <pt x="749" y="217" on="1"/>
        <pt x="725" y="175" on="0"/>
        <pt x="657" y="92" on="0"/>
        <pt x="571" y="25" on="0"/>
        <pt x="467" y="-16" on="0"/>
      </contour>
      <contour>
        <pt x="487" y="180" on="1"/>
        <pt x="532" y="180" on="0"/>
        <pt x="617" y="240" on="0"/>
        <pt x="692" y="331" on="0"/>
        <pt x="753" y="439" on="0"/>
        <pt x="774" y="486" on="1"/>
        <pt x="841" y="966" on="1"/>
        <pt x="815" y="974" on="0"/>
        <pt x="757" y="980" on="0"/>
        <pt x="726" y="980" on="1"/>
        <pt x="665" y="980" on="0"/>
        <pt x="564" y="933" on="0"/>
        <pt x="485" y="852" on="0"/>
        <pt x="427" y="744" on="0"/>
        <pt x="389" y="624" on="0"/>
        <pt x="371" y="497" on="0"/>
        <pt x="371" y="437" on="1"/>
        <pt x="371" y="304" on="0"/>
        <pt x="431" y="180" on="0"/>
      </contour>
    </TTGlyph>
    <TTGlyph name="approxequal" xMin="25" yMin="261" xMax="1079" yMax="1118">
      <component glyphName="asciitilde" x="-79" y="-435" flags="0x4"/>
      <component glyphName="asciitilde" x="-19" y="36" flags="0x4"/>
    </TTGlyph>
    <TTGlyph name="aring" xMin="76" yMin="-16" xMax="1132" yMax="1795">
      <component glyphName="a" x="0" y="0" flags="0x204"/>
      <component glyphName="ring" x="398" y="0" flags="0x4"/>
    </TTGlyph>
    <TTGlyph name="asciicircum" xMin="151" yMin="510" xMax="1166" yMax="1531">
      <contour>
        <pt x="672" y="1531" on="1"/>
        <pt x="904" y="1531" on="1"/>
        <pt x="1166" y="510" on="1"/>
        <pt x="945" y="510" on="1"/>
        <pt x="764" y="1249" on="1"/>
        <pt x="376" y="510" on="1"/>
        <pt x="151" y="510" on="1"/>
      </contour>
    </TTGlyph>
    <TTGlyph name="asciitilde" xMin="104" yMin="696" xMax="1098" yMax="1082">
      <contour>
        <pt x="104" y="867" on="1"/>
        <pt x="116" y="904" on="0"/>
        <pt x="180" y="981" on="0"/>
        <pt x="268" y="1043" on="0"/>
        <pt x="375" y="1082" on="0"/>
        <pt x="431" y="1082" on="1"/>
        <pt x="474" y="1082" on="0"/>
        <pt x="546" y="1057" on="0"/>
        <pt x="609" y="1018" on="0"/>
        <pt x="664" y="974" on="0"/>
        <pt x="718" y="935" on="0"/>
        <pt x="773" y="910" on="0"/>
        <pt x="803" y="910" on="1"/>
        <pt x="864" y="910" on="0"/>
        <pt x="959" y="969" on="0"/>
        <pt x="995" y="1022" on="1"/>
        <pt x="1098" y="916" on="1"/>
        <pt x="1087" y="875" on="0"/>
        <pt x="1025" y="796" on="0"/>
        <pt x="938" y="734" on="0"/>
        <pt x="831" y="696" on="0"/>
        <pt x="776" y="696" on="1"/>
        <pt x="732" y="696" on="0"/>
        <pt x="660" y="722" on="0"/>
        <pt x="599" y="762" on="0"/>
        <pt x="545" y="807" on="0"/>
        <pt x="491" y="847" on="0"/>
        <pt x="434" y="873" on="0"/>
        <pt x="401" y="873" on="1"/>
        <pt x="371" y="873" on="0"/>
        <pt x="317" y="855" on="0"/>
        <pt x="270" y="823" on="0"/>
        <pt x="230" y="782" on="0"/>
        <pt x="214" y="760" on="1"/>
      </contour>
    </TTGlyph>
    <TTGlyph name="asterisk" xMin="192" yMin="613" xMax="1270" yMax="1687">
      <contour>
        <pt x="635" y="925" on="1"/>
        <pt x="670" y="1066" on="1"/>
        <pt x="554" y="975" on="1"/>
        <pt x="284" y="787" on="1"/>
        <pt x="192" y="976" on="1"/>
        <pt x="495" y="1099" on="1"/>
        <pt x="631" y="1150" on="1"/>
        <pt x="506" y="1200" on="1"/>
        <pt x="229" y="1325" on="1"/>
        <pt x="351" y="1512" on="1"/>
        <pt x="589" y="1325" on="1"/>
        <pt x="688" y="1237" on="1"/>
        <pt x="682" y="1376" on="1"/>
        <pt x="679" y="1687" on="1"/>
        <pt x="894" y="1687" on="1"/>
        <pt x="826" y="1376" on="1"/>
        <pt x="788" y="1237" on="1"/>
        <pt x="909" y="1325" on="1"/>
        <pt x="1183" y="1513" on="1"/>
        <pt x="1270" y="1325" on="1"/>
        <pt x="967" y="1200" on="1"/>
        <pt x="832" y="1149" on="1"/>
        <pt x="957" y="1099" on="1"/>
        <pt x="1234" y="976" on="1"/>
        <pt x="1101" y="789" on="1"/>
        <pt x="872" y="975" on="1"/>
        <pt x="770" y="1066" on="1"/>
        <pt x="781" y="925" on="1"/>
        <pt x="788" y="613" on="1"/>
        <pt x="567" y="614" on="1"/>
      </contour>
    </TTGlyph>
    <TTGlyph name="at" xMin="112" yMin="-440" xMax="1918" yMax="1545">
      <contour>
        <pt x="112" y="374" on="1"/>
        <pt x="112" y="555" on="0"/>
        <pt x="190" y="869" on="0"/>
        <pt x="331" y="1129" on="0"/>
        <pt x="531" y="1333" on="0"/>
        <pt x="774" y="1472" on="0"/>
        <pt x="1054" y="1545" on="0"/>
        <pt x="1206" y="1545" on="1"/>
        <pt x="1371" y="1545" on="0"/>
        <pt x="1634" y="1454" on="0"/>
        <pt x="1819" y="1286" on="0"/>
        <pt x="1918" y="1047" on="0"/>
        <pt x="1918" y="899" on="1"/>
        <pt x="1918" y="758" on="0"/>
        <pt x="1864" y="516" on="0"/>
        <pt x="1771" y="319" on="0"/>
        <pt x="1648" y="167" on="0"/>
        <pt x="1509" y="64" on="0"/>
        <pt x="1362" y="11" on="0"/>
        <pt x="1293" y="11" on="1"/>
        <pt x="1261" y="11" on="0"/>
        <pt x="1220" y="39" on="0"/>
        <pt x="1197" y="89" on="0"/>
        <pt x="1188" y="156" on="0"/>
        <pt x="1188" y="195" on="1"/>
        <pt x="1188" y="230" on="0"/>
        <pt x="1195" y="327" on="0"/>
        <pt x="1200" y="371" on="1"/>
        <pt x="1166" y="291" on="0"/>
        <pt x="1084" y="157" on="0"/>
        <pt x="991" y="61" on="0"/>
        <pt x="887" y="7" on="0"/>
        <pt x="832" y="7" on="1"/>
        <pt x="781" y="7" on="0"/>
        <pt x="675" y="58" on="0"/>
        <pt x="590" y="165" on="0"/>
        <pt x="537" y="328" on="0"/>
        <pt x="539" y="439" on="1"/>
        <pt x="540" y="515" on="0"/>
        <pt x="573" y="673" on="0"/>
        <pt x="634" y="821" on="0"/>
        <pt x="726" y="950" on="0"/>
        <pt x="848" y="1046" on="0"/>
        <pt x="1001" y="1102" on="0"/>
        <pt x="1094" y="1102" on="1"/>
        <pt x="1115" y="1102" on="0"/>
        <pt x="1173" y="1096" on="0"/>
        <pt x="1234" y="1083" on="0"/>
        <pt x="1293" y="1063" on="0"/>
        <pt x="1314" y="1048" on="1"/>
        <pt x="1494" y="1078" on="1"/>
        <pt x="1484" y="1040" on="0"/>
        <pt x="1465" y="937" on="0"/>
        <pt x="1446" y="820" on="0"/>
        <pt x="1428" y="694" on="0"/>
        <pt x="1413" y="569" on="0"/>
        <pt x="1400" y="450" on="0"/>
        <pt x="1395" y="400" on="1"/>
        <pt x="1391" y="361" on="0"/>
        <pt x="1386" y="310" on="0"/>
        <pt x="1384" y="274" on="0"/>
        <pt x="1384" y="246" on="0"/>
        <pt x="1384" y="231" on="1"/>
        <pt x="1384" y="204" on="0"/>
        <pt x="1397" y="204" on="1"/>
        <pt x="1437" y="204" on="0"/>
        <pt x="1515" y="258" on="0"/>
        <pt x="1585" y="351" on="0"/>
        <pt x="1645" y="477" on="0"/>
        <pt x="1689" y="623" on="0"/>
        <pt x="1714" y="781" on="0"/>
        <pt x="1714" y="860" on="1"/>
        <pt x="1714" y="1014" on="0"/>
        <pt x="1625" y="1216" on="0"/>
        <pt x="1473" y="1334" on="0"/>
        <pt x="1272" y="1381" on="0"/>
        <pt x="1161" y="1381" on="1"/>
        <pt x="1029" y="1381" on="0"/>
        <pt x="801" y="1304" on="0"/>
        <pt x="612" y="1168" on="0"/>
        <pt x="464" y="983" on="0"/>
        <pt x="363" y="767" on="0"/>
        <pt x="310" y="529" on="0"/>
        <pt x="310" y="408" on="1"/>
        <pt x="310" y="285" on="0"/>
        <pt x="357" y="91" on="0"/>
        <pt x="442" y="-58" on="0"/>
        <pt x="559" y="-163" on="0"/>
        <pt x="698" y="-230" on="0"/>
        <pt x="855" y="-261" on="0"/>
        <pt x="937" y="-261" on="1"/>
        <pt x="994" y="-261" on="0"/>
        <pt x="1103" y="-248" on="0"/>
        <pt x="1198" y="-227" on="0"/>
        <pt x="1275" y="-202" on="0"/>
        <pt x="1299" y="-190" on="1"/>
        <pt x="1345" y="-324" on="1"/>
        <pt x="1310" y="-350" on="0"/>
        <pt x="1217" y="-393" on="0"/>
        <pt x="1106" y="-423" on="0"/>
        <pt x="983" y="-440" on="0"/>
        <pt x="919" y="-440" on="1"/>
        <pt x="744" y="-440" on="0"/>
        <pt x="448" y="-331" on="0"/>
        <pt x="233" y="-123" on="0"/>
        <pt x="112" y="180" on="0"/>
      </contour>
      <contour>
        <pt x="776" y="466" on="1"/>
        <pt x="776" y="416" on="0"/>
        <pt x="786" y="329" on="0"/>
        <pt x="810" y="265" on="0"/>
        <pt x="852" y="228" on="0"/>
        <pt x="884" y="228" on="1"/>
        <pt x="913" y="228" on="0"/>
        <pt x="982" y="294" on="0"/>
        <pt x="1053" y="403" on="0"/>
        <pt x="1121" y="540" on="0"/>
        <pt x="1176" y="682" on="0"/>
        <pt x="1215" y="815" on="0"/>
        <pt x="1222" y="866" on="1"/>
        <pt x="1210" y="882" on="0"/>
        <pt x="1173" y="904" on="0"/>
        <pt x="1130" y="918" on="0"/>
        <pt x="1087" y="925" on="0"/>
        <pt x="1069" y="925" on="1"/>
        <pt x="1021" y="925" on="0"/>
        <pt x="940" y="884" on="0"/>
        <pt x="875" y="814" on="0"/>
        <pt x="826" y="722" on="0"/>
        <pt x="793" y="620" on="0"/>
        <pt x="776" y="514" on="0"/>
      </contour>
    </TTGlyph>
    <TTGlyph name="atilde" xMin="76" yMin="-16" xMax="1188" yMax="1674">
      <component glyphName="a" x="0" y="0" flags="0x204"/>
      <component glyphName="tilde" x="362" y="0" flags="0x4"/>
    </TTGlyph>
    <TTGlyph name="b" xMin="80" yMin="-16" xMax="1145" yMax="1636">
      <contour>
        <pt x="302" y="1636" on="1"/>
        <pt x="566" y="1636" on="1"/>
        <pt x="496" y="1062" on="1"/>
        <pt x="469" y="915" on="1"/>
        <pt x="493" y="958" on="0"/>
        <pt x="563" y="1044" on="0"/>
        <pt x="652" y="1113" on="0"/>
        <pt x="760" y="1156" on="0"/>
        <pt x="822" y="1156" on="1"/>
        <pt x="909" y="1156" on="0"/>
        <pt x="1032" y="1090" on="0"/>
        <pt x="1109" y="974" on="0"/>
        <pt x="1145" y="816" on="0"/>
        <pt x="1145" y="724" on="1"/>
        <pt x="1145" y="639" on="0"/>
        <pt x="1109" y="463" on="0"/>
        <pt x="1035" y="298" on="0"/>
        <pt x="924" y="154" on="0"/>
        <pt x="774" y="46" on="0"/>
        <pt x="585" y="-16" on="0"/>
        <pt x="470" y="-16" on="1"/>
        <pt x="440" y="-16" on="0"/>
        <pt x="374" y="-9" on="0"/>
        <pt x="309" y="3" on="0"/>
        <pt x="250" y="17" on="0"/>
        <pt x="226" y="25" on="1"/>
        <pt x="80" y="-8" on="1"/>
      </contour>
      <contour>
        <pt x="380" y="174" on="1"/>
        <pt x="406" y="166" on="0"/>
        <pt x="465" y="161" on="0"/>
        <pt x="497" y="161" on="1"/>
        <pt x="558" y="161" on="0"/>
        <pt x="660" y="208" on="0"/>
        <pt x="740" y="288" on="0"/>
        <pt x="799" y="395" on="0"/>
        <pt x="838" y="516" on="0"/>
        <pt x="857" y="642" on="0"/>
        <pt x="857" y="702" on="1"/>
        <pt x="857" y="834" on="0"/>
        <pt x="798" y="958" on="0"/>
        <pt x="742" y="958" on="1"/>
        <pt x="710" y="958" on="0"/>
        <pt x="647" y="928" on="0"/>
        <pt x="589" y="877" on="0"/>
        <pt x="536" y="812" on="0"/>
        <pt x="490" y="741" on="0"/>
        <pt x="453" y="670" on="0"/>
        <pt x="440" y="640" on="1"/>
      </contour>
    </TTGlyph>
    <TTGlyph name="backslash" xMin="16" yMin="-362" xMax="814" yMax="1597">
      <contour>
        <pt x="592" y="-362" on="1"/>
        <pt x="16" y="1597" on="1"/>
        <pt x="237" y="1597" on="1"/>
        <pt x="814" y="-362" on="1"/>
      </contour>
    </TTGlyph>
    <TTGlyph name="bar" xMin="337" yMin="-186" xMax="550" yMax="1780">
      <contour>
        <pt x="337" y="1780" on="1"/>
        <pt x="550" y="1780" on="1"/>
        <pt x="550" y="-186" on="1"/>
        <pt x="337" y="-186" on="1"/>
      </contour>
    </TTGlyph>
    <TTGlyph name="braceleft" xMin="106" yMin="-231" xMax="1025" yMax="1774">
      <contour>
        <pt x="234" y="-70" on="1"/>
        <pt x="234" y="-65" on="0"/>
        <pt x="242" y="-5" on="0"/>
        <pt x="255" y="86" on="0"/>
        <pt x="271" y="199" on="0"/>
        <pt x="279" y="257" on="1"/>
        <pt x="298" y="393" on="0"/>
        <pt x="323" y="563" on="1"/>
        <pt x="323" y="580" on="0"/>
        <pt x="295" y="619" on="0"/>
        <pt x="271" y="635" on="1"/>
        <pt x="239" y="657" on="0"/>
        <pt x="151" y="687" on="0"/>
        <pt x="106" y="698" on="1"/>
        <pt x="131" y="861" on="1"/>
        <pt x="180" y="873" on="0"/>
        <pt x="284" y="901" on="0"/>
        <pt x="323" y="921" on="1"/>
        <pt x="349" y="935" on="0"/>
        <pt x="385" y="972" on="0"/>
        <pt x="388" y="989" on="1"/>
        <pt x="470" y="1517" on="1"/>
        <pt x="482" y="1591" on="0"/>
        <pt x="519" y="1690" on="0"/>
        <pt x="579" y="1749" on="0"/>
        <pt x="667" y="1774" on="0"/>
        <pt x="730" y="1774" on="1"/>
        <pt x="768" y="1774" on="0"/>
        <pt x="869" y="1758" on="0"/>
        <pt x="915" y="1748" on="1"/>
        <pt x="969" y="1737" on="0"/>
        <pt x="1025" y="1722" on="1"/>
        <pt x="1018" y="1688" on="0"/>
        <pt x="1014" y="1660" on="1"/>
        <pt x="1010" y="1636" on="0"/>
        <pt x="1003" y="1594" on="0"/>
        <pt x="1003" y="1590" on="1"/>
        <pt x="727" y="1590" on="1"/>
        <pt x="632" y="965" on="1"/>
        <pt x="626" y="924" on="0"/>
        <pt x="579" y="871" on="0"/>
        <pt x="539" y="846" on="1"/>
        <pt x="528" y="839" on="0"/>
        <pt x="471" y="816" on="0"/>
        <pt x="441" y="804" on="1"/>
        <pt x="406" y="790" on="0"/>
        <pt x="364" y="774" on="1"/>
        <pt x="386" y="762" on="0"/>
        <pt x="435" y="738" on="0"/>
        <pt x="481" y="713" on="0"/>
        <pt x="519" y="689" on="0"/>
        <pt x="530" y="678" on="1"/>
        <pt x="553" y="655" on="0"/>
        <pt x="577" y="607" on="0"/>
        <pt x="571" y="569" on="1"/>
        <pt x="478" y="-43" on="1"/>
        <pt x="753" y="-43" on="1"/>
        <pt x="751" y="-49" on="0"/>
        <pt x="746" y="-89" on="0"/>
        <pt x="743" y="-112" on="1"/>
        <pt x="739" y="-138" on="0"/>
        <pt x="736" y="-169" on="1"/>
        <pt x="667" y="-192" on="0"/>
        <pt x="510" y="-231" on="0"/>
        <pt x="416" y="-231" on="1"/>
        <pt x="314" y="-231" on="0"/>
        <pt x="233" y="-153" on="0"/>
      </contour>
    </TTGlyph>
    <TTGlyph name="braceright" xMin="48" yMin="-228" xMax="967" yMax="1776">
      <component glyphName="braceleft" x="1073" y="1546" scale="-0.99994" flags="0x4"/>
    </TTGlyph>
    <TTGlyph name="bracketleft" xMin="155" yMin="-225" xMax="902" yMax="1769">
      <contour>
        <pt x="155" y="-62" on="1"/>
        <pt x="155" y="-12" on="0"/>
        <pt x="161" y="48" on="1"/>
        <pt x="163" y="82" on="0"/>
        <pt x="180" y="225" on="0"/>
        <pt x="206" y="415" on="0"/>
        <pt x="238" y="640" on="0"/>
        <pt x="272" y="874" on="0"/>
        <pt x="306" y="1102" on="0"/>
        <pt x="336" y="1301" on="0"/>
        <pt x="358" y="1455" on="0"/>
        <pt x="364" y="1498" on="1"/>
        <pt x="374" y="1570" on="0"/>
        <pt x="408" y="1673" on="0"/>
        <pt x="464" y="1738" on="0"/>
        <pt x="548" y="1769" on="0"/>
        <pt x="607" y="1769" on="1"/>
        <pt x="649" y="1769" on="0"/>
        <pt x="752" y="1754" on="0"/>
        <pt x="797" y="1745" on="1"/>
        <pt x="850" y="1734" on="0"/>
        <pt x="902" y="1722" on="1"/>
        <pt x="882" y="1591" on="1"/>
        <pt x="617" y="1591" on="1"/>
        <pt x="399" y="-43" on="1"/>
        <pt x="410" y="-43" on="0"/>
        <pt x="452" y="-43" on="0"/>
        <pt x="503" y="-43" on="0"/>
        <pt x="560" y="-44" on="0"/>
        <pt x="611" y="-44" on="0"/>
        <pt x="653" y="-44" on="0"/>
        <pt x="664" y="-44" on="1"/>
        <pt x="663" y="-49" on="0"/>
        <pt x="658" y="-87" on="0"/>
        <pt x="653" y="-130" on="0"/>
        <pt x="648" y="-168" on="0"/>
        <pt x="648" y="-173" on="1"/>
        <pt x="614" y="-183" on="0"/>
        <pt x="547" y="-201" on="0"/>
        <pt x="473" y="-216" on="0"/>
        <pt x="390" y="-225" on="0"/>
        <pt x="340" y="-225" on="1"/>
        <pt x="245" y="-225" on="0"/>
        <pt x="155" y="-145" on="0"/>
      </contour>
    </TTGlyph>
    <TTGlyph name="bracketright" xMin="14" yMin="-213" xMax="761" yMax="1780">
      <component glyphName="bracketleft" x="916" y="1556" scale="-0.99994" flags="0x4"/>
    </TTGlyph>
    <TTGlyph name="breve" xMin="43" yMin="1300" xMax="706" yMax="1666">
      <contour>
        <pt x="355" y="1300" on="1"/>
        <pt x="269" y="1300" on="0"/>
        <pt x="151" y="1351" on="0"/>
        <pt x="76" y="1437" on="0"/>
        <pt x="43" y="1551" on="0"/>
        <pt x="43" y="1614" on="1"/>
        <pt x="43" y="1625" on="0"/>
        <pt x="48" y="1657" on="0"/>
        <pt x="50" y="1666" on="1"/>
        <pt x="211" y="1666" on="1"/>
        <pt x="211" y="1658" on="0"/>
        <pt x="210" y="1639" on="0"/>
        <pt x="211" y="1628" on="1"/>
        <pt x="214" y="1600" on="0"/>
        <pt x="229" y="1548" on="0"/>
        <pt x="263" y="1507" on="0"/>
        <pt x="320" y="1482" on="0"/>
        <pt x="366" y="1482" on="1"/>
        <pt x="416" y="1482" on="0"/>
        <pt x="480" y="1520" on="0"/>
        <pt x="520" y="1576" on="0"/>
        <pt x="541" y="1640" on="0"/>
        <pt x="548" y="1666" on="1"/>
        <pt x="706" y="1666" on="1"/>
        <pt x="706" y="1658" on="0"/>
        <pt x="706" y="1641" on="0"/>
        <pt x="705" y="1633" on="1"/>
        <pt x="701" y="1574" on="0"/>
        <pt x="654" y="1455" on="0"/>
        <pt x="567" y="1360" on="0"/>
        <pt x="440" y="1300" on="0"/>
      </contour>
    </TTGlyph>
    <TTGlyph name="breve.cap" xMin="43" yMin="1631" xMax="706" yMax="1997">
      <contour>
        <pt x="355" y="1631" on="1"/>
        <pt x="269" y="1631" on="0"/>
        <pt x="151" y="1682" on="0"/>
        <pt x="76" y="1768" on="0"/>
        <pt x="43" y="1882" on="0"/>
        <pt x="43" y="1945" on="1"/>
        <pt x="43" y="1956" on="0"/>
        <pt x="48" y="1988" on="0"/>
        <pt x="50" y="1997" on="1"/>
        <pt x="211" y="1997" on="1"/>
        <pt x="211" y="1989" on="0"/>
        <pt x="210" y="1970" on="0"/>
        <pt x="211" y="1959" on="1"/>
        <pt x="214" y="1931" on="0"/>
        <pt x="229" y="1879" on="0"/>
        <pt x="263" y="1838" on="0"/>
        <pt x="320" y="1813" on="0"/>
        <pt x="366" y="1813" on="1"/>
        <pt x="416" y="1813" on="0"/>
        <pt x="480" y="1851" on="0"/>
        <pt x="520" y="1907" on="0"/>
        <pt x="541" y="1971" on="0"/>
        <pt x="548" y="1997" on="1"/>
        <pt x="706" y="1997" on="1"/>
        <pt x="706" y="1989" on="0"/>
        <pt x="706" y="1972" on="0"/>
        <pt x="705" y="1964" on="1"/>
        <pt x="701" y="1905" on="0"/>
        <pt x="654" y="1786" on="0"/>
        <pt x="567" y="1691" on="0"/>
        <pt x="440" y="1631" on="0"/>
      </contour>
    </TTGlyph>
    <TTGlyph name="brokenbar" xMin="337" yMin="-186" xMax="550" yMax="1780">
      <contour>
        <pt x="337" y="1780" on="1"/>
        <pt x="550" y="1780" on="1"/>
        <pt x="550" y="901" on="1"/>
        <pt x="337" y="901" on="1"/>
      </contour>
      <contour>
        <pt x="337" y="693" on="1"/>
        <pt x="550" y="693" on="1"/>
        <pt x="550" y="-186" on="1"/>
        <pt x="337" y="-186" on="1"/>
      </contour>
    </TTGlyph>
    <TTGlyph name="bullet" xMin="233" yMin="507" xMax="660" yMax="939">
      <contour>
        <pt x="409" y="507" on="1"/>
        <pt x="371" y="507" on="0"/>
        <pt x="307" y="535" on="0"/>
        <pt x="260" y="583" on="0"/>
        <pt x="233" y="647" on="0"/>
        <pt x="233" y="683" on="1"/>
        <pt x="233" y="728" on="0"/>
        <pt x="271" y="819" on="0"/>
        <pt x="339" y="893" on="0"/>
        <pt x="431" y="939" on="0"/>
        <pt x="484" y="939" on="1"/>
        <pt x="522" y="939" on="0"/>
        <pt x="586" y="913" on="0"/>
        <pt x="633" y="867" on="0"/>
        <pt x="660" y="804" on="0"/>
        <pt x="660" y="767" on="1"/>
        <pt x="660" y="722" on="0"/>
        <pt x="625" y="629" on="0"/>
        <pt x="559" y="554" on="0"/>
        <pt x="466" y="507" on="0"/>
      </contour>
    </TTGlyph>
    <TTGlyph name="c" xMin="80" yMin="-16" xMax="919" yMax="1156">
      <contour>
        <pt x="80" y="438" on="1"/>
        <pt x="80" y="576" on="0"/>
        <pt x="163" y="834" on="0"/>
        <pt x="318" y="1035" on="0"/>
        <pt x="540" y="1156" on="0"/>
        <pt x="680" y="1156" on="1"/>
        <pt x="707" y="1156" on="0"/>
        <pt x="772" y="1151" on="0"/>
        <pt x="837" y="1141" on="0"/>
        <pt x="897" y="1126" on="0"/>
        <pt x="919" y="1116" on="1"/>
        <pt x="851" y="861" on="1"/>
        <pt x="837" y="873" on="0"/>
        <pt x="795" y="901" on="0"/>
        <pt x="743" y="927" on="0"/>
        <pt x="686" y="944" on="0"/>
        <pt x="658" y="944" on="1"/>
        <pt x="604" y="944" on="0"/>
        <pt x="497" y="880" on="0"/>
        <pt x="413" y="760" on="0"/>
        <pt x="361" y="586" on="0"/>
        <pt x="361" y="476" on="1"/>
        <pt x="361" y="399" on="0"/>
        <pt x="382" y="289" on="0"/>
        <pt x="425" y="219" on="0"/>
        <pt x="492" y="187" on="0"/>
        <pt x="538" y="187" on="1"/>
        <pt x="603" y="187" on="0"/>
        <pt x="733" y="260" on="0"/>
        <pt x="787" y="314" on="1"/>
        <pt x="864" y="176" on="1"/>
        <pt x="844" y="147" on="0"/>
        <pt x="775" y="80" on="0"/>
        <pt x="677" y="22" on="0"/>
        <pt x="551" y="-16" on="0"/>
        <pt x="475" y="-16" on="1"/>
        <pt x="371" y="-16" on="0"/>
        <pt x="222" y="56" on="0"/>
        <pt x="126" y="179" on="0"/>
        <pt x="80" y="344" on="0"/>
      </contour>
    </TTGlyph>
    <TTGlyph name="cacute" xMin="80" yMin="-16" xMax="1072" yMax="1744">
      <component glyphName="acute" x="537" y="0" flags="0x4"/>
      <component glyphName="c" x="0" y="0" flags="0x4"/>
    </TTGlyph>
    <TTGlyph name="caron" xMin="43" yMin="1242" xMax="791" yMax="1660">
      <contour>
        <pt x="43" y="1582" on="1"/>
        <pt x="149" y="1660" on="1"/>
        <pt x="382" y="1443" on="1"/>
        <pt x="676" y="1660" on="1"/>
        <pt x="791" y="1583" on="1"/>
        <pt x="448" y="1242" on="1"/>
        <pt x="270" y="1242" on="1"/>
      </contour>
    </TTGlyph>
    <TTGlyph name="caron.cap" xMin="53" yMin="1607" xMax="801" yMax="2007">
      <contour>
        <pt x="53" y="1924" on="1"/>
        <pt x="169" y="2007" on="1"/>
        <pt x="386" y="1801" on="1"/>
        <pt x="686" y="2007" on="1"/>
        <pt x="801" y="1930" on="1"/>
        <pt x="458" y="1607" on="1"/>
        <pt x="280" y="1607" on="1"/>
      </contour>
    </TTGlyph>
    <TTGlyph name="caronvertical" xMin="196" yMin="1036" xMax="460" yMax="1681">
      <contour>
        <pt x="202" y="1070" on="1"/>
        <pt x="196" y="1095" on="1"/>
        <pt x="213" y="1154" on="0"/>
        <pt x="237" y="1317" on="0"/>
        <pt x="237" y="1401" on="1"/>
        <pt x="237" y="1429" on="0"/>
        <pt x="234" y="1489" on="0"/>
        <pt x="227" y="1543" on="0"/>
        <pt x="216" y="1586" on="0"/>
        <pt x="209" y="1597" on="1"/>
        <pt x="223" y="1634" on="1"/>
        <pt x="426" y="1681" on="1"/>
        <pt x="445" y="1649" on="0"/>
        <pt x="460" y="1538" on="0"/>
        <pt x="460" y="1472" on="1"/>
        <pt x="460" y="1418" on="0"/>
        <pt x="442" y="1298" on="0"/>
        <pt x="408" y="1181" on="0"/>
        <pt x="358" y="1075" on="0"/>
        <pt x="327" y="1036" on="1"/>
      </contour>
    </TTGlyph>
    <TTGlyph name="ccaron" xMin="80" yMin="-16" xMax="1099" yMax="1660">
      <component glyphName="caron" x="308" y="0" flags="0x4"/>
      <component glyphName="c" x="0" y="0" flags="0x4"/>
    </TTGlyph>
    <TTGlyph name="ccedilla" xMin="80" yMin="-468" xMax="919" yMax="1156">
      <contour>
        <pt x="163" y="-259" on="1"/>
        <pt x="176" y="-266" on="0"/>
        <pt x="215" y="-274" on="0"/>
        <pt x="238" y="-274" on="1"/>
        <pt x="273" y="-274" on="0"/>
        <pt x="334" y="-262" on="0"/>
        <pt x="380" y="-229" on="0"/>
        <pt x="408" y="-169" on="0"/>
        <pt x="409" y="-122" on="1"/>
        <pt x="410" y="-93" on="0"/>
        <pt x="410" y="-35" on="0"/>
        <pt x="408" y="-11" on="1"/>
        <pt x="322" y="0" on="0"/>
        <pt x="198" y="79" on="0"/>
        <pt x="118" y="199" on="0"/>
        <pt x="80" y="352" on="0"/>
        <pt x="80" y="438" on="1"/>
        <pt x="80" y="576" on="0"/>
        <pt x="163" y="834" on="0"/>
        <pt x="318" y="1035" on="0"/>
        <pt x="540" y="1156" on="0"/>
        <pt x="680" y="1156" on="1"/>
        <pt x="707" y="1156" on="0"/>
        <pt x="772" y="1151" on="0"/>
        <pt x="837" y="1141" on="0"/>
        <pt x="897" y="1126" on="0"/>
        <pt x="919" y="1116" on="1"/>
        <pt x="851" y="861" on="1"/>
        <pt x="837" y="873" on="0"/>
        <pt x="795" y="901" on="0"/>
        <pt x="743" y="927" on="0"/>
        <pt x="686" y="944" on="0"/>
        <pt x="658" y="944" on="1"/>
        <pt x="604" y="944" on="0"/>
        <pt x="497" y="880" on="0"/>
        <pt x="413" y="760" on="0"/>
        <pt x="361" y="586" on="0"/>
        <pt x="361" y="476" on="1"/>
        <pt x="361" y="399" on="0"/>
        <pt x="382" y="289" on="0"/>
        <pt x="425" y="219" on="0"/>
        <pt x="492" y="187" on="0"/>
        <pt x="538" y="187" on="1"/>
        <pt x="603" y="187" on="0"/>
        <pt x="733" y="260" on="0"/>
        <pt x="787" y="314" on="1"/>
        <pt x="864" y="176" on="1"/>
        <pt x="848" y="152" on="0"/>
        <pt x="796" y="98" on="0"/>
        <pt x="724" y="48" on="0"/>
        <pt x="635" y="6" on="0"/>
        <pt x="581" y="-5" on="1"/>
        <pt x="596" y="-43" on="0"/>
        <pt x="616" y="-152" on="0"/>
        <pt x="616" y="-202" on="1"/>
        <pt x="616" y="-337" on="0"/>
        <pt x="466" y="-468" on="0"/>
        <pt x="327" y="-468" on="1"/>
        <pt x="307" y="-468" on="0"/>
        <pt x="248" y="-463" on="0"/>
        <pt x="189" y="-454" on="0"/>
        <pt x="141" y="-442" on="0"/>
        <pt x="132" y="-436" on="1"/>
        <pt x="163" y="-259" on="1"/>
      </contour>
    </TTGlyph>
    <TTGlyph name="ccircumflex" xMin="80" yMin="-16" xMax="1051" yMax="1660">
      <component glyphName="circumflex" x="280" y="0" flags="0x4"/>
      <component glyphName="c" x="0" y="0" flags="0x4"/>
    </TTGlyph>
    <TTGlyph name="cdotaccent" xMin="80" yMin="-16" xMax="919" yMax="1666">
      <component glyphName="c" x="0" y="0" flags="0x204"/>
      <component glyphName="dotaccent" x="530" y="0" flags="0x4"/>
    </TTGlyph>
    <TTGlyph name="cedilla" xMin="-30" yMin="-468" xMax="454" yMax="34">
      <contour>
        <pt x="330" y="34" on="1"/>
        <pt x="401" y="30" on="1"/>
        <pt x="411" y="16" on="0"/>
        <pt x="431" y="-36" on="0"/>
        <pt x="445" y="-100" on="0"/>
        <pt x="454" y="-170" on="0"/>
        <pt x="454" y="-202" on="1"/>
        <pt x="454" y="-337" on="0"/>
        <pt x="304" y="-468" on="0"/>
        <pt x="165" y="-468" on="1"/>
        <pt x="145" y="-468" on="0"/>
        <pt x="86" y="-463" on="0"/>
        <pt x="27" y="-454" on="0"/>
        <pt x="-21" y="-442" on="0"/>
        <pt x="-30" y="-436" on="1"/>
        <pt x="1" y="-259" on="1"/>
        <pt x="14" y="-266" on="0"/>
        <pt x="53" y="-274" on="0"/>
        <pt x="76" y="-274" on="1"/>
        <pt x="111" y="-274" on="0"/>
        <pt x="172" y="-262" on="0"/>
        <pt x="218" y="-229" on="0"/>
        <pt x="246" y="-169" on="0"/>
        <pt x="247" y="-122" on="1"/>
        <pt x="249" y="-79" on="0"/>
        <pt x="246" y="8" on="0"/>
        <pt x="241" y="30" on="1"/>
      </contour>
    </TTGlyph>
    <TTGlyph name="cent" xMin="114" yMin="-245" xMax="953" yMax="1393">
      <contour>
        <pt x="373" y="3" on="1"/>
        <pt x="305" y="24" on="0"/>
        <pt x="208" y="108" on="0"/>
        <pt x="144" y="222" on="0"/>
        <pt x="114" y="361" on="0"/>
        <pt x="114" y="438" on="1"/>
        <pt x="114" y="558" on="0"/>
        <pt x="178" y="788" on="0"/>
        <pt x="298" y="977" on="0"/>
        <pt x="471" y="1113" on="0"/>
        <pt x="581" y="1140" on="1"/>
        <pt x="641" y="1393" on="1"/>
        <pt x="836" y="1393" on="1"/>
        <pt x="778" y="1153" on="1"/>
        <pt x="826" y="1149" on="0"/>
        <pt x="921" y="1131" on="0"/>
        <pt x="953" y="1116" on="1"/>
        <pt x="885" y="861" on="1"/>
        <pt x="871" y="873" on="0"/>
        <pt x="829" y="901" on="0"/>
        <pt x="777" y="927" on="0"/>
        <pt x="720" y="944" on="0"/>
        <pt x="692" y="944" on="1"/>
        <pt x="638" y="944" on="0"/>
        <pt x="531" y="880" on="0"/>
        <pt x="447" y="760" on="0"/>
        <pt x="395" y="586" on="0"/>
        <pt x="395" y="476" on="1"/>
        <pt x="395" y="399" on="0"/>
        <pt x="416" y="289" on="0"/>
        <pt x="459" y="219" on="0"/>
        <pt x="526" y="187" on="0"/>
        <pt x="572" y="187" on="1"/>
        <pt x="637" y="187" on="0"/>
        <pt x="767" y="260" on="0"/>
        <pt x="821" y="314" on="1"/>
        <pt x="898" y="176" on="1"/>
        <pt x="880" y="150" on="0"/>
        <pt x="820" y="89" on="0"/>
        <pt x="736" y="35" on="0"/>
        <pt x="629" y="-5" on="0"/>
        <pt x="565" y="-12" on="1"/>
        <pt x="523" y="-245" on="1"/>
        <pt x="328" y="-245" on="1"/>
        <pt x="373" y="3" on="1"/>
      </contour>
    </TTGlyph>
    <TTGlyph name="circumflex" xMin="42" yMin="1214" xMax="771" yMax="1660">
      <contour>
        <pt x="42" y="1286" on="1"/>
        <pt x="391" y="1660" on="1"/>
        <pt x="570" y="1660" on="1"/>
        <pt x="771" y="1286" on="1"/>
        <pt x="647" y="1218" on="1"/>
        <pt x="451" y="1437" on="1"/>
        <pt x="150" y="1214" on="1"/>
      </contour>
    </TTGlyph>
    <TTGlyph name="circumflex.cap" xMin="34" yMin="1589" xMax="763" yMax="2007">
      <contour>
        <pt x="34" y="1661" on="1"/>
        <pt x="383" y="2007" on="1"/>
        <pt x="562" y="2007" on="1"/>
        <pt x="763" y="1667" on="1"/>
        <pt x="644" y="1594" on="1"/>
        <pt x="447" y="1794" on="1"/>
        <pt x="147" y="1589" on="1"/>
      </contour>
    </TTGlyph>
    <TTGlyph name="colon" xMin="39" yMin="-26" xMax="454" yMax="1103">
      <component glyphName="period" x="-21" y="0" flags="0x204"/>
      <component glyphName="period" x="72" y="809" flags="0x4"/>
    </TTGlyph>
    <TTGlyph name="colonmonetary" xMin="171" yMin="-346" xMax="1341" yMax="1814">
      <contour>
        <pt x="535" y="12" on="1"/>
        <pt x="434" y="45" on="0"/>
        <pt x="296" y="177" on="0"/>
        <pt x="209" y="348" on="0"/>
        <pt x="171" y="546" on="0"/>
        <pt x="171" y="644" on="1"/>
        <pt x="171" y="819" on="0"/>
        <pt x="262" y="1115" on="0"/>
        <pt x="425" y="1344" on="0"/>
        <pt x="652" y="1496" on="0"/>
        <pt x="788" y="1527" on="1"/>
        <pt x="836" y="1814" on="1"/>
        <pt x="948" y="1814" on="1"/>
        <pt x="903" y="1544" on="1"/>
        <pt x="918" y="1545" on="0"/>
        <pt x="949" y="1546" on="0"/>
        <pt x="965" y="1546" on="1"/>
        <pt x="980" y="1546" on="0"/>
        <pt x="1009" y="1545" on="0"/>
        <pt x="1023" y="1545" on="1"/>
        <pt x="1068" y="1814" on="1"/>
        <pt x="1179" y="1814" on="1"/>
        <pt x="1132" y="1533" on="1"/>
        <pt x="1199" y="1522" on="0"/>
        <pt x="1301" y="1493" on="0"/>
        <pt x="1341" y="1482" on="1"/>
        <pt x="1271" y="1261" on="1"/>
        <pt x="1257" y="1275" on="0"/>
        <pt x="1163" y="1311" on="0"/>
        <pt x="1097" y="1324" on="1"/>
        <pt x="908" y="190" on="1"/>
        <pt x="983" y="202" on="0"/>
        <pt x="1096" y="252" on="0"/>
        <pt x="1148" y="285" on="1"/>
        <pt x="1212" y="127" on="1"/>
        <pt x="1164" y="81" on="0"/>
        <pt x="993" y="9" on="0"/>
        <pt x="875" y="-6" on="1"/>
        <pt x="818" y="-346" on="1"/>
        <pt x="707" y="-346" on="1"/>
        <pt x="762" y="-15" on="1"/>
        <pt x="752" y="-16" on="0"/>
        <pt x="732" y="-16" on="0"/>
        <pt x="721" y="-16" on="1"/>
        <pt x="701" y="-16" on="0"/>
        <pt x="662" y="-14" on="0"/>
        <pt x="643" y="-12" on="1"/>
        <pt x="587" y="-346" on="1"/>
        <pt x="475" y="-346" on="1"/>
      </contour>
      <contour>
        <pt x="677" y="192" on="1"/>
        <pt x="717" y="179" on="0"/>
        <pt x="770" y="179" on="1"/>
        <pt x="795" y="179" on="1"/>
        <pt x="988" y="1338" on="1"/>
        <pt x="978" y="1339" on="0"/>
        <pt x="958" y="1339" on="0"/>
        <pt x="947" y="1339" on="1"/>
        <pt x="926" y="1339" on="0"/>
        <pt x="887" y="1336" on="0"/>
        <pt x="867" y="1332" on="1"/>
      </contour>
      <contour>
        <pt x="748" y="1290" on="1"/>
        <pt x="682" y="1254" on="0"/>
        <pt x="578" y="1134" on="0"/>
        <pt x="505" y="973" on="0"/>
        <pt x="465" y="775" on="0"/>
        <pt x="463" y="661" on="1"/>
        <pt x="460" y="524" on="0"/>
        <pt x="512" y="314" on="0"/>
        <pt x="575" y="252" on="1"/>
      </contour>
    </TTGlyph>
    <TTGlyph name="comma" xMin="-22" yMin="-510" xMax="388" yMax="280">
      <contour>
        <pt x="61" y="122" on="1"/>
        <pt x="192" y="280" on="1"/>
        <pt x="249" y="258" on="0"/>
        <pt x="325" y="183" on="0"/>
        <pt x="370" y="94" on="0"/>
        <pt x="388" y="2" on="0"/>
        <pt x="388" y="-36" on="1"/>
        <pt x="388" y="-119" on="0"/>
        <pt x="341" y="-270" on="0"/>
        <pt x="256" y="-393" on="0"/>
        <pt x="135" y="-485" on="0"/>
        <pt x="61" y="-510" on="1"/>
        <pt x="-22" y="-402" on="1"/>
        <pt x="-19" y="-381" on="1"/>
        <pt x="17" y="-363" on="0"/>
        <pt x="78" y="-305" on="0"/>
        <pt x="121" y="-235" on="0"/>
        <pt x="145" y="-154" on="0"/>
        <pt x="145" y="-113" on="1"/>
        <pt x="145" y="-80" on="0"/>
        <pt x="131" y="-20" on="0"/>
        <pt x="106" y="28" on="0"/>
        <pt x="73" y="61" on="0"/>
        <pt x="54" y="68" on="1"/>
      </contour>
    </TTGlyph>
    <TTGlyph name="commaaccent" xMin="19" yMin="-560" xMax="315" yMax="-44">
      <contour>
        <pt x="169" y="-44" on="1"/>
        <pt x="201" y="-51" on="0"/>
        <pt x="255" y="-92" on="0"/>
        <pt x="294" y="-151" on="0"/>
        <pt x="315" y="-222" on="0"/>
        <pt x="315" y="-260" on="1"/>
        <pt x="315" y="-323" on="0"/>
        <pt x="276" y="-427" on="0"/>
        <pt x="216" y="-505" on="0"/>
        <pt x="143" y="-553" on="0"/>
        <pt x="109" y="-560" on="1"/>
        <pt x="19" y="-500" on="1"/>
        <pt x="22" y="-474" on="1"/>
        <pt x="48" y="-455" on="0"/>
        <pt x="90" y="-391" on="0"/>
        <pt x="90" y="-335" on="1"/>
        <pt x="90" y="-317" on="0"/>
        <pt x="79" y="-281" on="0"/>
        <pt x="61" y="-252" on="0"/>
        <pt x="35" y="-232" on="0"/>
        <pt x="20" y="-230" on="1"/>
        <pt x="29" y="-156" on="1"/>
      </contour>
    </TTGlyph>
    <TTGlyph name="copyright" xMin="185" yMin="83" xMax="1926" yMax="1839">
      <contour>
        <pt x="185" y="963" on="1"/>
        <pt x="185" y="1084" on="0"/>
        <pt x="246" y="1309" on="0"/>
        <pt x="359" y="1503" on="0"/>
        <pt x="517" y="1663" on="0"/>
        <pt x="710" y="1777" on="0"/>
        <pt x="933" y="1839" on="0"/>
        <pt x="1055" y="1839" on="1"/>
        <pt x="1176" y="1839" on="0"/>
        <pt x="1400" y="1777" on="0"/>
        <pt x="1594" y="1663" on="0"/>
        <pt x="1752" y="1503" on="0"/>
        <pt x="1864" y="1309" on="0"/>
        <pt x="1926" y="1084" on="0"/>
        <pt x="1926" y="963" on="1"/>
        <pt x="1926" y="841" on="0"/>
        <pt x="1864" y="616" on="0"/>
        <pt x="1752" y="421" on="0"/>
        <pt x="1594" y="260" on="0"/>
        <pt x="1400" y="146" on="0"/>
        <pt x="1176" y="83" on="0"/>
        <pt x="1055" y="83" on="1"/>
        <pt x="934" y="83" on="0"/>
        <pt x="710" y="146" on="0"/>
        <pt x="517" y="260" on="0"/>
        <pt x="359" y="421" on="0"/>
        <pt x="246" y="616" on="0"/>
        <pt x="185" y="841" on="0"/>
      </contour>
      <contour>
        <pt x="327" y="963" on="1"/>
        <pt x="327" y="860" on="0"/>
        <pt x="377" y="668" on="0"/>
        <pt x="469" y="501" on="0"/>
        <pt x="599" y="364" on="0"/>
        <pt x="761" y="266" on="0"/>
        <pt x="950" y="212" on="0"/>
        <pt x="1055" y="212" on="1"/>
        <pt x="1160" y="212" on="0"/>
        <pt x="1349" y="266" on="0"/>
        <pt x="1511" y="364" on="0"/>
        <pt x="1641" y="501" on="0"/>
        <pt x="1733" y="668" on="0"/>
        <pt x="1783" y="859" on="0"/>
        <pt x="1783" y="963" on="1"/>
        <pt x="1783" y="1066" on="0"/>
        <pt x="1733" y="1258" on="0"/>
        <pt x="1641" y="1424" on="0"/>
        <pt x="1511" y="1561" on="0"/>
        <pt x="1349" y="1659" on="0"/>
        <pt x="1160" y="1713" on="0"/>
        <pt x="1055" y="1713" on="1"/>
        <pt x="950" y="1713" on="0"/>
        <pt x="761" y="1659" on="0"/>
        <pt x="599" y="1561" on="0"/>
        <pt x="469" y="1424" on="0"/>
        <pt x="377" y="1258" on="0"/>
        <pt x="327" y="1066" on="0"/>
      </contour>
      <contour>
        <pt x="610" y="955" on="1"/>
        <pt x="610" y="1061" on="0"/>
        <pt x="673" y="1243" on="0"/>
        <pt x="799" y="1377" on="0"/>
        <pt x="984" y="1453" on="0"/>
        <pt x="1106" y="1453" on="1"/>
        <pt x="1151" y="1453" on="0"/>
        <pt x="1228" y="1442" on="0"/>
        <pt x="1291" y="1425" on="0"/>
        <pt x="1338" y="1405" on="0"/>
        <pt x="1352" y="1397" on="1"/>
        <pt x="1317" y="1213" on="1"/>
        <pt x="1281" y="1238" on="0"/>
        <pt x="1167" y="1272" on="0"/>
        <pt x="1098" y="1272" on="1"/>
        <pt x="1036" y="1272" on="0"/>
        <pt x="938" y="1228" on="0"/>
        <pt x="870" y="1151" on="0"/>
        <pt x="833" y="1045" on="0"/>
        <pt x="833" y="982" on="1"/>
        <pt x="833" y="900" on="0"/>
        <pt x="871" y="779" on="0"/>
        <pt x="940" y="699" on="0"/>
        <pt x="1037" y="660" on="0"/>
        <pt x="1094" y="660" on="1"/>
        <pt x="1174" y="660" on="0"/>
        <pt x="1296" y="701" on="0"/>
        <pt x="1330" y="722" on="1"/>
        <pt x="1374" y="574" on="1"/>
        <pt x="1350" y="554" on="0"/>
        <pt x="1282" y="518" on="0"/>
        <pt x="1200" y="491" on="0"/>
        <pt x="1106" y="475" on="0"/>
        <pt x="1056" y="475" on="1"/>
        <pt x="952" y="475" on="0"/>
        <pt x="788" y="554" on="0"/>
        <pt x="672" y="686" on="0"/>
        <pt x="610" y="860" on="0"/>
      </contour>
    </TTGlyph>
    <TTGlyph name="currency" xMin="215" yMin="116" xMax="1355" yMax="1263">
      <contour>
        <pt x="418" y="443" on="1"/>
        <pt x="382" y="496" on="0"/>
        <pt x="342" y="621" on="0"/>
        <pt x="342" y="690" on="1"/>
        <pt x="342" y="758" on="0"/>
        <pt x="381" y="881" on="0"/>
        <pt x="416" y="934" on="1"/>
        <pt x="215" y="1135" on="1"/>
        <pt x="342" y="1263" on="1"/>
        <pt x="545" y="1059" on="1"/>
        <pt x="596" y="1091" on="0"/>
        <pt x="716" y="1128" on="0"/>
        <pt x="782" y="1128" on="1"/>
        <pt x="851" y="1128" on="0"/>
        <pt x="976" y="1088" on="0"/>
        <pt x="1029" y="1052" on="1"/>
        <pt x="1228" y="1250" on="1"/>
        <pt x="1355" y="1122" on="1"/>
        <pt x="1155" y="922" on="1"/>
        <pt x="1187" y="871" on="0"/>
        <pt x="1222" y="754" on="0"/>
        <pt x="1222" y="690" on="1"/>
        <pt x="1222" y="623" on="0"/>
        <pt x="1184" y="502" on="0"/>
        <pt x="1150" y="450" on="1"/>
        <pt x="1353" y="248" on="1"/>
        <pt x="1225" y="121" on="1"/>
        <pt x="1023" y="323" on="1"/>
        <pt x="971" y="289" on="0"/>
        <pt x="849" y="252" on="0"/>
        <pt x="782" y="252" on="1"/>
        <pt x="717" y="252" on="0"/>
        <pt x="599" y="286" on="0"/>
        <pt x="548" y="318" on="1"/>
        <pt x="346" y="116" on="1"/>
        <pt x="218" y="243" on="1"/>
      </contour>
      <contour>
        <pt x="533" y="690" on="1"/>
        <pt x="533" y="637" on="0"/>
        <pt x="572" y="542" on="0"/>
        <pt x="639" y="471" on="0"/>
        <pt x="730" y="430" on="0"/>
        <pt x="782" y="430" on="1"/>
        <pt x="834" y="430" on="0"/>
        <pt x="924" y="471" on="0"/>
        <pt x="992" y="542" on="0"/>
        <pt x="1031" y="637" on="0"/>
        <pt x="1031" y="690" on="1"/>
        <pt x="1031" y="744" on="0"/>
        <pt x="992" y="839" on="0"/>
        <pt x="924" y="910" on="0"/>
        <pt x="834" y="951" on="0"/>
        <pt x="782" y="951" on="1"/>
        <pt x="730" y="951" on="0"/>
        <pt x="639" y="910" on="0"/>
        <pt x="572" y="839" on="0"/>
        <pt x="533" y="744" on="0"/>
      </contour>
    </TTGlyph>
    <TTGlyph name="d" xMin="75" yMin="-16" xMax="1199" yMax="1636">
      <contour>
        <pt x="398" y="-16" on="1"/>
        <pt x="311" y="-16" on="0"/>
        <pt x="188" y="49" on="0"/>
        <pt x="111" y="165" on="0"/>
        <pt x="75" y="322" on="0"/>
        <pt x="75" y="414" on="1"/>
        <pt x="75" y="499" on="0"/>
        <pt x="111" y="675" on="0"/>
        <pt x="185" y="840" on="0"/>
        <pt x="296" y="985" on="0"/>
        <pt x="446" y="1093" on="0"/>
        <pt x="635" y="1156" on="0"/>
        <pt x="750" y="1156" on="1"/>
        <pt x="776" y="1156" on="0"/>
        <pt x="833" y="1151" on="0"/>
        <pt x="862" y="1146" on="1"/>
        <pt x="929" y="1636" on="1"/>
        <pt x="1199" y="1636" on="1"/>
        <pt x="983" y="0" on="1"/>
        <pt x="736" y="0" on="1"/>
        <pt x="751" y="230" on="1"/>
        <pt x="727" y="186" on="0"/>
        <pt x="657" y="99" on="0"/>
        <pt x="568" y="28" on="0"/>
        <pt x="460" y="-16" on="0"/>
      </contour>
      <contour>
        <pt x="478" y="182" on="1"/>
        <pt x="524" y="182" on="0"/>
        <pt x="612" y="244" on="0"/>
        <pt x="690" y="337" on="0"/>
        <pt x="752" y="446" on="0"/>
        <pt x="773" y="493" on="1"/>
        <pt x="837" y="962" on="1"/>
        <pt x="812" y="970" on="0"/>
        <pt x="755" y="980" on="0"/>
        <pt x="722" y="980" on="1"/>
        <pt x="660" y="980" on="0"/>
        <pt x="559" y="933" on="0"/>
        <pt x="479" y="852" on="0"/>
        <pt x="420" y="744" on="0"/>
        <pt x="381" y="624" on="0"/>
        <pt x="362" y="497" on="0"/>
        <pt x="362" y="437" on="1"/>
        <pt x="362" y="304" on="0"/>
        <pt x="422" y="182" on="0"/>
      </contour>
    </TTGlyph>
    <TTGlyph name="dagger" xMin="129" yMin="151" xMax="880" yMax="1646">
      <contour>
        <pt x="367" y="976" on="1"/>
        <pt x="388" y="1095" on="1"/>
        <pt x="129" y="1095" on="1"/>
        <pt x="157" y="1277" on="1"/>
        <pt x="432" y="1277" on="1"/>
        <pt x="444" y="1469" on="1"/>
        <pt x="468" y="1646" on="1"/>
        <pt x="688" y="1646" on="1"/>
        <pt x="658" y="1469" on="1"/>
        <pt x="607" y="1277" on="1"/>
        <pt x="880" y="1277" on="1"/>
        <pt x="853" y="1095" on="1"/>
        <pt x="597" y="1095" on="1"/>
        <pt x="586" y="976" on="1"/>
        <pt x="437" y="151" on="1"/>
        <pt x="270" y="151" on="1"/>
      </contour>
    </TTGlyph>
    <TTGlyph name="daggerdbl" xMin="97" yMin="-51" xMax="880" yMax="1646">
      <contour>
        <pt x="292" y="425" on="1"/>
        <pt x="326" y="603" on="1"/>
        <pt x="97" y="603" on="1"/>
        <pt x="124" y="779" on="1"/>
        <pt x="357" y="779" on="1"/>
        <pt x="367" y="963" on="1"/>
        <pt x="395" y="1095" on="1"/>
        <pt x="152" y="1095" on="1"/>
        <pt x="178" y="1277" on="1"/>
        <pt x="438" y="1277" on="1"/>
        <pt x="450" y="1469" on="1"/>
        <pt x="474" y="1646" on="1"/>
        <pt x="694" y="1646" on="1"/>
        <pt x="664" y="1469" on="1"/>
        <pt x="614" y="1277" on="1"/>
        <pt x="880" y="1277" on="1"/>
        <pt x="853" y="1095" on="1"/>
        <pt x="603" y="1095" on="1"/>
        <pt x="592" y="963" on="1"/>
        <pt x="549" y="779" on="1"/>
        <pt x="790" y="779" on="1"/>
        <pt x="766" y="603" on="1"/>
        <pt x="527" y="603" on="1"/>
        <pt x="512" y="431" on="1"/>
        <pt x="403" y="-51" on="1"/>
        <pt x="259" y="-51" on="1"/>
      </contour>
    </TTGlyph>
    <TTGlyph name="dcaron" xMin="75" yMin="-16" xMax="1568" yMax="1666">
      <component glyphName="d" x="0" y="0" flags="0x4"/>
      <component glyphName="caronvertical" x="1108" y="-15" flags="0x4"/>
    </TTGlyph>
    <TTGlyph name="dcroat" xMin="75" yMin="-16" xMax="1320" yMax="1636">
      <contour>
        <pt x="398" y="-16" on="1"/>
        <pt x="311" y="-16" on="0"/>
        <pt x="188" y="49" on="0"/>
        <pt x="111" y="165" on="0"/>
        <pt x="75" y="322" on="0"/>
        <pt x="75" y="414" on="1"/>
        <pt x="75" y="499" on="0"/>
        <pt x="111" y="675" on="0"/>
        <pt x="185" y="840" on="0"/>
        <pt x="296" y="985" on="0"/>
        <pt x="446" y="1093" on="0"/>
        <pt x="635" y="1156" on="0"/>
        <pt x="750" y="1156" on="1"/>
        <pt x="776" y="1156" on="0"/>
        <pt x="833" y="1151" on="0"/>
        <pt x="862" y="1146" on="1"/>
        <pt x="884" y="1312" on="1"/>
        <pt x="642" y="1312" on="1"/>
        <pt x="658" y="1442" on="1"/>
        <pt x="902" y="1442" on="1"/>
        <pt x="929" y="1636" on="1"/>
        <pt x="1199" y="1636" on="1"/>
        <pt x="1173" y="1442" on="1"/>
        <pt x="1320" y="1442" on="1"/>
        <pt x="1304" y="1312" on="1"/>
        <pt x="1156" y="1312" on="1"/>
        <pt x="983" y="0" on="1"/>
        <pt x="736" y="0" on="1"/>
        <pt x="751" y="230" on="1"/>
        <pt x="727" y="186" on="0"/>
        <pt x="657" y="99" on="0"/>
        <pt x="568" y="28" on="0"/>
        <pt x="460" y="-16" on="0"/>
      </contour>
      <contour>
        <pt x="478" y="182" on="1"/>
        <pt x="524" y="182" on="0"/>
        <pt x="612" y="244" on="0"/>
        <pt x="690" y="337" on="0"/>
        <pt x="752" y="446" on="0"/>
        <pt x="773" y="493" on="1"/>
        <pt x="837" y="962" on="1"/>
        <pt x="812" y="970" on="0"/>
        <pt x="755" y="980" on="0"/>
        <pt x="722" y="980" on="1"/>
        <pt x="660" y="980" on="0"/>
        <pt x="559" y="933" on="0"/>
        <pt x="479" y="852" on="0"/>
        <pt x="420" y="744" on="0"/>
        <pt x="381" y="624" on="0"/>
        <pt x="362" y="497" on="0"/>
        <pt x="362" y="437" on="1"/>
        <pt x="362" y="304" on="0"/>
        <pt x="422" y="182" on="0"/>
      </contour>
    </TTGlyph>
    <TTGlyph name="degree" xMin="174" yMin="935" xMax="874" yMax="1617">
      <contour>
        <pt x="512" y="935" on="1"/>
        <pt x="439" y="935" on="0"/>
        <pt x="314" y="989" on="0"/>
        <pt x="224" y="1082" on="0"/>
        <pt x="174" y="1206" on="0"/>
        <pt x="175" y="1277" on="1"/>
        <pt x="176" y="1349" on="0"/>
        <pt x="231" y="1474" on="0"/>
        <pt x="326" y="1565" on="0"/>
        <pt x="456" y="1617" on="0"/>
        <pt x="533" y="1617" on="1"/>
        <pt x="606" y="1617" on="0"/>
        <pt x="732" y="1563" on="0"/>
        <pt x="824" y="1471" on="0"/>
        <pt x="874" y="1347" on="0"/>
        <pt x="873" y="1277" on="1"/>
        <pt x="872" y="1203" on="0"/>
        <pt x="816" y="1078" on="0"/>
        <pt x="720" y="987" on="0"/>
        <pt x="589" y="935" on="0"/>
      </contour>
      <contour>
        <pt x="520" y="1089" on="1"/>
        <pt x="559" y="1089" on="0"/>
        <pt x="625" y="1117" on="0"/>
        <pt x="673" y="1168" on="0"/>
        <pt x="701" y="1236" on="0"/>
        <pt x="701" y="1277" on="1"/>
        <pt x="702" y="1316" on="0"/>
        <pt x="675" y="1384" on="0"/>
        <pt x="628" y="1435" on="0"/>
        <pt x="564" y="1464" on="0"/>
        <pt x="527" y="1464" on="1"/>
        <pt x="488" y="1464" on="0"/>
        <pt x="423" y="1436" on="0"/>
        <pt x="375" y="1386" on="0"/>
        <pt x="348" y="1317" on="0"/>
        <pt x="347" y="1277" on="1"/>
        <pt x="346" y="1238" on="0"/>
        <pt x="373" y="1170" on="0"/>
        <pt x="419" y="1119" on="0"/>
        <pt x="483" y="1089" on="0"/>
      </contour>
    </TTGlyph>
    <TTGlyph name="dieresis" xMin="26" yMin="1363" xMax="778" yMax="1676">
      <contour>
        <pt x="605" y="1363" on="1"/>
        <pt x="578" y="1363" on="0"/>
        <pt x="529" y="1387" on="0"/>
        <pt x="493" y="1427" on="0"/>
        <pt x="473" y="1479" on="0"/>
        <pt x="474" y="1507" on="1"/>
        <pt x="475" y="1541" on="0"/>
        <pt x="500" y="1603" on="0"/>
        <pt x="543" y="1649" on="0"/>
        <pt x="602" y="1676" on="0"/>
        <pt x="637" y="1676" on="1"/>
        <pt x="669" y="1676" on="0"/>
        <pt x="722" y="1653" on="0"/>
        <pt x="758" y="1614" on="0"/>
        <pt x="778" y="1565" on="0"/>
        <pt x="777" y="1538" on="1"/>
        <pt x="776" y="1503" on="0"/>
        <pt x="751" y="1439" on="0"/>
        <pt x="707" y="1391" on="0"/>
        <pt x="644" y="1363" on="0"/>
      </contour>
      <contour>
        <pt x="159" y="1363" on="1"/>
        <pt x="132" y="1363" on="0"/>
        <pt x="83" y="1387" on="0"/>
        <pt x="47" y="1427" on="0"/>
        <pt x="26" y="1479" on="0"/>
        <pt x="27" y="1507" on="1"/>
        <pt x="28" y="1541" on="0"/>
        <pt x="53" y="1603" on="0"/>
        <pt x="97" y="1649" on="0"/>
        <pt x="156" y="1676" on="0"/>
        <pt x="191" y="1676" on="1"/>
        <pt x="223" y="1676" on="0"/>
        <pt x="275" y="1653" on="0"/>
        <pt x="312" y="1614" on="0"/>
        <pt x="331" y="1565" on="0"/>
        <pt x="330" y="1538" on="1"/>
        <pt x="329" y="1503" on="0"/>
        <pt x="305" y="1439" on="0"/>
        <pt x="261" y="1391" on="0"/>
        <pt x="198" y="1363" on="0"/>
      </contour>
    </TTGlyph>
    <TTGlyph name="dieresis.cap" xMin="114" yMin="1664" xMax="865" yMax="1977">
      <contour>
        <pt x="692" y="1664" on="1"/>
        <pt x="665" y="1664" on="0"/>
        <pt x="617" y="1688" on="0"/>
        <pt x="581" y="1728" on="0"/>
        <pt x="561" y="1779" on="0"/>
        <pt x="561" y="1807" on="1"/>
        <pt x="561" y="1842" on="0"/>
        <pt x="588" y="1904" on="0"/>
        <pt x="632" y="1950" on="0"/>
        <pt x="691" y="1977" on="0"/>
        <pt x="724" y="1977" on="1"/>
        <pt x="756" y="1977" on="0"/>
        <pt x="809" y="1954" on="0"/>
        <pt x="845" y="1915" on="0"/>
        <pt x="865" y="1866" on="0"/>
        <pt x="864" y="1839" on="1"/>
        <pt x="863" y="1804" on="0"/>
        <pt x="838" y="1740" on="0"/>
        <pt x="794" y="1692" on="0"/>
        <pt x="731" y="1664" on="0"/>
      </contour>
      <contour>
        <pt x="247" y="1664" on="1"/>
        <pt x="220" y="1664" on="0"/>
        <pt x="171" y="1688" on="0"/>
        <pt x="135" y="1728" on="0"/>
        <pt x="114" y="1780" on="0"/>
        <pt x="115" y="1807" on="1"/>
        <pt x="116" y="1842" on="0"/>
        <pt x="143" y="1904" on="0"/>
        <pt x="187" y="1950" on="0"/>
        <pt x="246" y="1977" on="0"/>
        <pt x="279" y="1977" on="1"/>
        <pt x="311" y="1977" on="0"/>
        <pt x="363" y="1954" on="0"/>
        <pt x="399" y="1915" on="0"/>
        <pt x="418" y="1866" on="0"/>
        <pt x="417" y="1839" on="1"/>
        <pt x="416" y="1804" on="0"/>
        <pt x="392" y="1740" on="0"/>
        <pt x="348" y="1692" on="0"/>
        <pt x="286" y="1664" on="0"/>
      </contour>
    </TTGlyph>
    <TTGlyph name="divide" xMin="233" yMin="198" xMax="1174" yMax="1360">
      <contour>
        <pt x="736" y="1041" on="1"/>
        <pt x="705" y="1041" on="0"/>
        <pt x="653" y="1061" on="0"/>
        <pt x="615" y="1097" on="0"/>
        <pt x="595" y="1148" on="0"/>
        <pt x="597" y="1179" on="1"/>
        <pt x="599" y="1216" on="0"/>
        <pt x="631" y="1281" on="0"/>
        <pt x="683" y="1331" on="0"/>
        <pt x="751" y="1360" on="0"/>
        <pt x="789" y="1360" on="1"/>
        <pt x="828" y="1360" on="0"/>
        <pt x="883" y="1338" on="0"/>
        <pt x="917" y="1300" on="0"/>
        <pt x="931" y="1251" on="0"/>
        <pt x="930" y="1223" on="1"/>
        <pt x="928" y="1182" on="0"/>
        <pt x="896" y="1115" on="0"/>
        <pt x="843" y="1067" on="0"/>
        <pt x="775" y="1041" on="0"/>
      </contour>
      <contour>
        <pt x="260" y="886" on="1"/>
        <pt x="1174" y="885" on="1"/>
        <pt x="1148" y="675" on="1"/>
        <pt x="233" y="675" on="1"/>
      </contour>
      <contour>
        <pt x="493" y="336" on="1"/>
        <pt x="495" y="373" on="0"/>
        <pt x="526" y="438" on="0"/>
        <pt x="578" y="488" on="0"/>
        <pt x="646" y="517" on="0"/>
        <pt x="685" y="517" on="1"/>
        <pt x="724" y="517" on="0"/>
        <pt x="779" y="495" on="0"/>
        <pt x="813" y="457" on="0"/>
        <pt x="826" y="408" on="0"/>
        <pt x="825" y="380" on="1"/>
        <pt x="823" y="339" on="0"/>
        <pt x="792" y="272" on="0"/>
        <pt x="740" y="224" on="0"/>
        <pt x="671" y="198" on="0"/>
        <pt x="632" y="198" on="1"/>
        <pt x="600" y="198" on="0"/>
        <pt x="548" y="218" on="0"/>
        <pt x="511" y="254" on="0"/>
        <pt x="491" y="305" on="0"/>
      </contour>
    </TTGlyph>
    <TTGlyph name="dollar" xMin="101" yMin="-253" xMax="1106" yMax="1761">
      <contour>
        <pt x="186" y="294" on="1"/>
        <pt x="205" y="277" on="0"/>
        <pt x="270" y="243" on="0"/>
        <pt x="351" y="215" on="0"/>
        <pt x="441" y="197" on="0"/>
        <pt x="484" y="197" on="1"/>
        <pt x="542" y="197" on="0"/>
        <pt x="640" y="220" on="0"/>
        <pt x="710" y="266" on="0"/>
        <pt x="750" y="338" on="0"/>
        <pt x="750" y="387" on="1"/>
        <pt x="750" y="424" on="0"/>
        <pt x="730" y="493" on="0"/>
        <pt x="682" y="562" on="0"/>
        <pt x="604" y="633" on="0"/>
        <pt x="546" y="673" on="1"/>
        <pt x="494" y="709" on="0"/>
        <pt x="391" y="797" on="0"/>
        <pt x="308" y="905" on="0"/>
        <pt x="255" y="1036" on="0"/>
        <pt x="254" y="1114" on="1"/>
        <pt x="252" y="1200" on="0"/>
        <pt x="307" y="1343" on="0"/>
        <pt x="410" y="1451" on="0"/>
        <pt x="555" y="1522" on="0"/>
        <pt x="643" y="1536" on="1"/>
        <pt x="681" y="1761" on="1"/>
        <pt x="892" y="1761" on="1"/>
        <pt x="855" y="1541" on="1"/>
        <pt x="950" y="1531" on="0"/>
        <pt x="1074" y="1484" on="0"/>
        <pt x="1106" y="1461" on="1"/>
        <pt x="1020" y="1245" on="1"/>
        <pt x="1000" y="1266" on="0"/>
        <pt x="935" y="1298" on="0"/>
        <pt x="861" y="1320" on="0"/>
        <pt x="784" y="1331" on="0"/>
        <pt x="751" y="1331" on="1"/>
        <pt x="706" y="1331" on="0"/>
        <pt x="622" y="1313" on="0"/>
        <pt x="558" y="1274" on="0"/>
        <pt x="518" y="1210" on="0"/>
        <pt x="517" y="1165" on="1"/>
        <pt x="516" y="1117" on="0"/>
        <pt x="540" y="1043" on="0"/>
        <pt x="593" y="976" on="0"/>
        <pt x="676" y="906" on="0"/>
        <pt x="735" y="863" on="1"/>
        <pt x="785" y="827" on="0"/>
        <pt x="889" y="743" on="0"/>
        <pt x="975" y="639" on="0"/>
        <pt x="1030" y="513" on="0"/>
        <pt x="1032" y="437" on="1"/>
        <pt x="1033" y="339" on="0"/>
        <pt x="976" y="185" on="0"/>
        <pt x="867" y="72" on="0"/>
        <pt x="713" y="2" on="0"/>
        <pt x="617" y="-11" on="1"/>
        <pt x="575" y="-253" on="1"/>
        <pt x="365" y="-253" on="1"/>
        <pt x="406" y="-15" on="1"/>
        <pt x="355" y="-10" on="0"/>
        <pt x="257" y="10" on="0"/>
        <pt x="175" y="35" on="0"/>
        <pt x="115" y="61" on="0"/>
        <pt x="101" y="73" on="1"/>
      </contour>
    </TTGlyph>
    <TTGlyph name="dong" xMin="36" yMin="0" xMax="1300" yMax="1690">
      <contour>
        <pt x="472" y="319" on="1"/>
        <pt x="405" y="319" on="0"/>
        <pt x="286" y="368" on="0"/>
        <pt x="196" y="464" on="0"/>
        <pt x="143" y="603" on="0"/>
        <pt x="143" y="693" on="1"/>
        <pt x="143" y="825" on="0"/>
        <pt x="222" y="1031" on="0"/>
        <pt x="364" y="1173" on="0"/>
        <pt x="562" y="1248" on="0"/>
        <pt x="681" y="1248" on="1"/>
        <pt x="741" y="1248" on="0"/>
        <pt x="820" y="1228" on="0"/>
        <pt x="842" y="1217" on="1"/>
        <pt x="852" y="1363" on="1"/>
        <pt x="607" y="1363" on="1"/>
        <pt x="628" y="1522" on="1"/>
        <pt x="873" y="1522" on="1"/>
        <pt x="895" y="1690" on="1"/>
        <pt x="1145" y="1690" on="1"/>
        <pt x="1123" y="1522" on="1"/>
        <pt x="1300" y="1522" on="1"/>
        <pt x="1280" y="1363" on="1"/>
        <pt x="1102" y="1363" on="1"/>
        <pt x="969" y="319" on="1"/>
        <pt x="769" y="319" on="1"/>
        <pt x="762" y="319" on="0"/>
        <pt x="755" y="327" on="0"/>
        <pt x="752" y="338" on="0"/>
        <pt x="753" y="349" on="0"/>
        <pt x="753" y="353" on="1"/>
        <pt x="753" y="355" on="0"/>
        <pt x="759" y="403" on="0"/>
        <pt x="761" y="429" on="1"/>
        <pt x="744" y="414" on="0"/>
        <pt x="696" y="375" on="0"/>
        <pt x="626" y="342" on="0"/>
        <pt x="533" y="319" on="0"/>
      </contour>
      <contour>
        <pt x="535" y="519" on="1"/>
        <pt x="587" y="519" on="0"/>
        <pt x="659" y="532" on="0"/>
        <pt x="709" y="551" on="0"/>
        <pt x="739" y="571" on="0"/>
        <pt x="748" y="578" on="1"/>
        <pt x="805" y="1027" on="1"/>
        <pt x="801" y="1031" on="0"/>
        <pt x="782" y="1044" on="0"/>
        <pt x="748" y="1056" on="0"/>
        <pt x="696" y="1064" on="0"/>
        <pt x="660" y="1064" on="1"/>
        <pt x="590" y="1064" on="0"/>
        <pt x="494" y="1010" on="0"/>
        <pt x="434" y="916" on="0"/>
        <pt x="408" y="790" on="0"/>
        <pt x="408" y="719" on="1"/>
        <pt x="408" y="619" on="0"/>
        <pt x="475" y="519" on="0"/>
      </contour>
      <contour>
        <pt x="60" y="188" on="1"/>
        <pt x="1055" y="188" on="1"/>
        <pt x="1030" y="0" on="1"/>
        <pt x="36" y="0" on="1"/>
      </contour>
    </TTGlyph>
    <TTGlyph name="dotaccent" xMin="30" yMin="1351" xMax="359" yMax="1666">
      <contour>
        <pt x="173" y="1351" on="1"/>
        <pt x="144" y="1351" on="0"/>
        <pt x="91" y="1373" on="0"/>
        <pt x="52" y="1412" on="0"/>
        <pt x="30" y="1464" on="0"/>
        <pt x="31" y="1494" on="1"/>
        <pt x="32" y="1529" on="0"/>
        <pt x="60" y="1591" on="0"/>
        <pt x="107" y="1638" on="0"/>
        <pt x="171" y="1666" on="0"/>
        <pt x="208" y="1666" on="1"/>
        <pt x="242" y="1666" on="0"/>
        <pt x="299" y="1644" on="0"/>
        <pt x="338" y="1605" on="0"/>
        <pt x="359" y="1554" on="0"/>
        <pt x="358" y="1526" on="1"/>
        <pt x="357" y="1490" on="0"/>
        <pt x="330" y="1427" on="0"/>
        <pt x="282" y="1379" on="0"/>
        <pt x="215" y="1351" on="0"/>
      </contour>
    </TTGlyph>
    <TTGlyph name="dotaccent.cap" xMin="26" yMin="1654" xMax="357" yMax="1967">
      <contour>
        <pt x="171" y="1654" on="1"/>
        <pt x="140" y="1654" on="0"/>
        <pt x="87" y="1677" on="0"/>
        <pt x="48" y="1716" on="0"/>
        <pt x="26" y="1768" on="0"/>
        <pt x="27" y="1797" on="1"/>
        <pt x="28" y="1832" on="0"/>
        <pt x="57" y="1894" on="0"/>
        <pt x="105" y="1940" on="0"/>
        <pt x="168" y="1967" on="0"/>
        <pt x="204" y="1967" on="1"/>
        <pt x="240" y="1967" on="0"/>
        <pt x="298" y="1945" on="0"/>
        <pt x="337" y="1907" on="0"/>
        <pt x="357" y="1857" on="0"/>
        <pt x="356" y="1829" on="1"/>
        <pt x="355" y="1794" on="0"/>
        <pt x="328" y="1730" on="0"/>
        <pt x="280" y="1682" on="0"/>
        <pt x="212" y="1654" on="0"/>
      </contour>
    </TTGlyph>
    <TTGlyph name="dotlessi" xMin="102" yMin="0" xMax="535" yMax="1140">
      <contour>
        <pt x="258" y="1140" on="1"/>
        <pt x="535" y="1140" on="1"/>
        <pt x="378" y="0" on="1"/>
        <pt x="102" y="0" on="1"/>
      </contour>
    </TTGlyph>
    <TTGlyph name="dotlessj" xMin="-252" yMin="-521" xMax="534" yMax="1140">
      <contour>
        <pt x="257" y="1140" on="1"/>
        <pt x="534" y="1140" on="1"/>
        <pt x="378" y="2" on="1"/>
        <pt x="361" y="-123" on="0"/>
        <pt x="274" y="-318" on="0"/>
        <pt x="149" y="-451" on="0"/>
        <pt x="-8" y="-521" on="0"/>
        <pt x="-95" y="-521" on="1"/>
        <pt x="-149" y="-521" on="0"/>
        <pt x="-231" y="-500" on="0"/>
        <pt x="-252" y="-485" on="1"/>
        <pt x="-182" y="-339" on="1"/>
        <pt x="-173" y="-346" on="0"/>
        <pt x="-142" y="-350" on="0"/>
        <pt x="-136" y="-350" on="1"/>
        <pt x="-69" y="-350" on="0"/>
        <pt x="16" y="-282" on="0"/>
        <pt x="69" y="-167" on="0"/>
        <pt x="98" y="-16" on="0"/>
        <pt x="110" y="67" on="1"/>
      </contour>
    </TTGlyph>
    <TTGlyph name="e" xMin="79" yMin="-16" xMax="1011" yMax="1156">
      <contour>
        <pt x="80" y="438" on="1"/>
        <pt x="82" y="591" on="0"/>
        <pt x="176" y="854" on="0"/>
        <pt x="341" y="1046" on="0"/>
        <pt x="567" y="1156" on="0"/>
        <pt x="700" y="1156" on="1"/>
        <pt x="780" y="1156" on="0"/>
        <pt x="897" y="1118" on="0"/>
        <pt x="974" y="1051" on="0"/>
        <pt x="1011" y="957" on="0"/>
        <pt x="1011" y="900" on="1"/>
        <pt x="1011" y="821" on="0"/>
        <pt x="955" y="693" on="0"/>
        <pt x="860" y="591" on="0"/>
        <pt x="733" y="513" on="0"/>
        <pt x="591" y="456" on="0"/>
        <pt x="441" y="416" on="0"/>
        <pt x="371" y="404" on="1"/>
        <pt x="370" y="363" on="0"/>
        <pt x="382" y="284" on="0"/>
        <pt x="421" y="221" on="0"/>
        <pt x="491" y="182" on="0"/>
        <pt x="548" y="182" on="1"/>
        <pt x="591" y="182" on="0"/>
        <pt x="681" y="208" on="0"/>
        <pt x="767" y="252" on="0"/>
        <pt x="845" y="311" on="0"/>
        <pt x="876" y="343" on="1"/>
        <pt x="949" y="202" on="1"/>
        <pt x="927" y="171" on="0"/>
        <pt x="843" y="95" on="0"/>
        <pt x="726" y="29" on="0"/>
        <pt x="578" y="-16" on="0"/>
        <pt x="493" y="-16" on="1"/>
        <pt x="382" y="-16" on="0"/>
        <pt x="224" y="61" on="0"/>
        <pt x="124" y="187" on="0"/>
        <pt x="79" y="351" on="0"/>
      </contour>
      <contour>
        <pt x="371" y="563" on="1"/>
        <pt x="406" y="565" on="0"/>
        <pt x="488" y="587" on="0"/>
        <pt x="570" y="627" on="0"/>
        <pt x="647" y="681" on="0"/>
        <pt x="706" y="749" on="0"/>
        <pt x="741" y="829" on="0"/>
        <pt x="741" y="874" on="1"/>
        <pt x="741" y="935" on="0"/>
        <pt x="687" y="984" on="0"/>
        <pt x="639" y="984" on="1"/>
        <pt x="598" y="984" on="0"/>
        <pt x="527" y="944" on="0"/>
        <pt x="470" y="876" on="0"/>
        <pt x="425" y="789" on="0"/>
        <pt x="393" y="696" on="0"/>
        <pt x="374" y="602" on="0"/>
      </contour>
    </TTGlyph>
    <TTGlyph name="eacute" xMin="79" yMin="-16" xMax="1061" yMax="1744">
      <component glyphName="acute" x="526" y="0" flags="0x4"/>
      <component glyphName="e" x="0" y="0" flags="0x4"/>
    </TTGlyph>
    <TTGlyph name="ebreve" xMin="79" yMin="-16" xMax="1045" yMax="1666">
      <component glyphName="e" x="0" y="0" flags="0x204"/>
      <component glyphName="breve" x="339" y="0" flags="0x4"/>
    </TTGlyph>
    <TTGlyph name="ecaron" xMin="79" yMin="-16" xMax="1088" yMax="1660">
      <component glyphName="caron" x="297" y="0" flags="0x4"/>
      <component glyphName="e" x="0" y="0" flags="0x4"/>
    </TTGlyph>
    <TTGlyph name="ecircumflex" xMin="79" yMin="-16" xMax="1041" yMax="1660">
      <component glyphName="circumflex" x="270" y="0" flags="0x4"/>
      <component glyphName="e" x="0" y="0" flags="0x4"/>
    </TTGlyph>
    <TTGlyph name="edieresis" xMin="79" yMin="-16" xMax="1082" yMax="1676">
      <component glyphName="dieresis" x="304" y="0" flags="0x4"/>
      <component glyphName="e" x="0" y="0" flags="0x4"/>
    </TTGlyph>
    <TTGlyph name="edotaccent" xMin="79" yMin="-16" xMax="1011" yMax="1666">
      <component glyphName="e" x="0" y="0" flags="0x204"/>
      <component glyphName="dotaccent" x="520" y="0" flags="0x4"/>
    </TTGlyph>
    <TTGlyph name="egrave" xMin="79" yMin="-16" xMax="1011" yMax="1744">
      <component glyphName="e" x="0" y="0" flags="0x204"/>
      <component glyphName="grave" x="247" y="0" flags="0x4"/>
    </TTGlyph>
    <TTGlyph name="eight" xMin="125" yMin="-18" xMax="1219" yMax="1559">
      <contour>
        <pt x="125" y="351" on="1"/>
        <pt x="125" y="435" on="0"/>
        <pt x="186" y="576" on="0"/>
        <pt x="288" y="687" on="0"/>
        <pt x="422" y="769" on="0"/>
        <pt x="494" y="796" on="1"/>
        <pt x="455" y="829" on="0"/>
        <pt x="388" y="902" on="0"/>
        <pt x="338" y="985" on="0"/>
        <pt x="309" y="1080" on="0"/>
        <pt x="309" y="1136" on="1"/>
        <pt x="309" y="1236" on="0"/>
        <pt x="381" y="1394" on="0"/>
        <pt x="510" y="1502" on="0"/>
        <pt x="689" y="1559" on="0"/>
        <pt x="796" y="1559" on="1"/>
        <pt x="886" y="1559" on="0"/>
        <pt x="1041" y="1511" on="0"/>
        <pt x="1155" y="1424" on="0"/>
        <pt x="1219" y="1301" on="0"/>
        <pt x="1219" y="1225" on="1"/>
        <pt x="1219" y="1144" on="0"/>
        <pt x="1162" y="1010" on="0"/>
        <pt x="1068" y="905" on="0"/>
        <pt x="947" y="830" on="0"/>
        <pt x="883" y="808" on="1"/>
        <pt x="935" y="769" on="0"/>
        <pt x="1032" y="683" on="0"/>
        <pt x="1105" y="584" on="0"/>
        <pt x="1149" y="470" on="0"/>
        <pt x="1149" y="405" on="1"/>
        <pt x="1149" y="305" on="0"/>
        <pt x="1064" y="148" on="0"/>
        <pt x="915" y="39" on="0"/>
        <pt x="714" y="-18" on="0"/>
        <pt x="598" y="-18" on="1"/>
        <pt x="504" y="-18" on="0"/>
        <pt x="333" y="30" on="0"/>
        <pt x="202" y="123" on="0"/>
        <pt x="125" y="261" on="0"/>
      </contour>
      <contour>
        <pt x="766" y="897" on="1"/>
        <pt x="808" y="919" on="0"/>
        <pt x="880" y="980" on="0"/>
        <pt x="934" y="1057" on="0"/>
        <pt x="965" y="1149" on="0"/>
        <pt x="965" y="1203" on="1"/>
        <pt x="965" y="1249" on="0"/>
        <pt x="934" y="1319" on="0"/>
        <pt x="882" y="1366" on="0"/>
        <pt x="814" y="1390" on="0"/>
        <pt x="777" y="1390" on="1"/>
        <pt x="730" y="1390" on="0"/>
        <pt x="655" y="1356" on="0"/>
        <pt x="603" y="1297" on="0"/>
        <pt x="574" y="1216" on="0"/>
        <pt x="574" y="1169" on="1"/>
        <pt x="574" y="1128" on="0"/>
        <pt x="603" y="1055" on="0"/>
        <pt x="654" y="989" on="0"/>
        <pt x="725" y="927" on="0"/>
      </contour>
      <contour>
        <pt x="398" y="388" on="1"/>
        <pt x="398" y="338" on="0"/>
        <pt x="435" y="253" on="0"/>
        <pt x="500" y="192" on="0"/>
        <pt x="586" y="158" on="0"/>
        <pt x="635" y="158" on="1"/>
        <pt x="686" y="158" on="0"/>
        <pt x="771" y="189" on="0"/>
        <pt x="832" y="246" on="0"/>
        <pt x="865" y="325" on="0"/>
        <pt x="865" y="372" on="1"/>
        <pt x="865" y="420" on="0"/>
        <pt x="826" y="507" on="0"/>
        <pt x="758" y="589" on="0"/>
        <pt x="663" y="667" on="0"/>
        <pt x="608" y="707" on="1"/>
        <pt x="566" y="683" on="0"/>
        <pt x="490" y="620" on="0"/>
        <pt x="433" y="540" on="0"/>
        <pt x="399" y="444" on="0"/>
      </contour>
    </TTGlyph>
    <TTGlyph name="ellipsis" xMin="55" yMin="-26" xMax="1436" yMax="294">
      <contour>
        <pt x="1111" y="113" on="1"/>
        <pt x="1113" y="150" on="0"/>
        <pt x="1142" y="215" on="0"/>
        <pt x="1191" y="265" on="0"/>
        <pt x="1256" y="294" on="0"/>
        <pt x="1294" y="294" on="1"/>
        <pt x="1334" y="294" on="0"/>
        <pt x="1389" y="272" on="0"/>
        <pt x="1423" y="234" on="0"/>
        <pt x="1436" y="185" on="0"/>
        <pt x="1435" y="157" on="1"/>
        <pt x="1433" y="116" on="0"/>
        <pt x="1402" y="48" on="0"/>
        <pt x="1351" y="0" on="0"/>
        <pt x="1283" y="-26" on="0"/>
        <pt x="1244" y="-26" on="1"/>
        <pt x="1181" y="-26" on="0"/>
        <pt x="1107" y="50" on="0"/>
      </contour>
      <contour>
        <pt x="585" y="113" on="1"/>
        <pt x="587" y="150" on="0"/>
        <pt x="616" y="215" on="0"/>
        <pt x="665" y="265" on="0"/>
        <pt x="730" y="294" on="0"/>
        <pt x="768" y="294" on="1"/>
        <pt x="808" y="294" on="0"/>
        <pt x="863" y="272" on="0"/>
        <pt x="897" y="234" on="0"/>
        <pt x="910" y="185" on="0"/>
        <pt x="909" y="157" on="1"/>
        <pt x="907" y="116" on="0"/>
        <pt x="876" y="48" on="0"/>
        <pt x="825" y="0" on="0"/>
        <pt x="757" y="-26" on="0"/>
        <pt x="718" y="-26" on="1"/>
        <pt x="655" y="-26" on="0"/>
        <pt x="581" y="50" on="0"/>
      </contour>
      <contour>
        <pt x="59" y="113" on="1"/>
        <pt x="61" y="150" on="0"/>
        <pt x="90" y="215" on="0"/>
        <pt x="139" y="265" on="0"/>
        <pt x="204" y="294" on="0"/>
        <pt x="242" y="294" on="1"/>
        <pt x="282" y="294" on="0"/>
        <pt x="337" y="272" on="0"/>
        <pt x="371" y="234" on="0"/>
        <pt x="384" y="185" on="0"/>
        <pt x="383" y="157" on="1"/>
        <pt x="381" y="116" on="0"/>
        <pt x="350" y="48" on="0"/>
        <pt x="299" y="0" on="0"/>
        <pt x="231" y="-26" on="0"/>
        <pt x="192" y="-26" on="1"/>
        <pt x="129" y="-26" on="0"/>
        <pt x="55" y="50" on="0"/>
      </contour>
    </TTGlyph>
    <TTGlyph name="emacron" xMin="79" yMin="-16" xMax="1011" yMax="1594">
      <component glyphName="e" x="0" y="0" flags="0x204"/>
      <component glyphName="macron" x="369" y="0" flags="0x4"/>
    </TTGlyph>
    <TTGlyph name="emdash" xMin="221" yMin="671" xMax="1875" yMax="874">
      <contour>
        <pt x="254" y="874" on="1"/>
        <pt x="1875" y="874" on="1"/>
        <pt x="1842" y="671" on="1"/>
        <pt x="221" y="671" on="1"/>
      </contour>
    </TTGlyph>
    <TTGlyph name="endash" xMin="221" yMin="671" xMax="1352" yMax="874">
      <contour>
        <pt x="254" y="874" on="1"/>
        <pt x="1352" y="874" on="1"/>
        <pt x="1319" y="671" on="1"/>
        <pt x="221" y="671" on="1"/>
      </contour>
    </TTGlyph>
    <TTGlyph name="eng" xMin="80" yMin="-523" xMax="1136" yMax="1156">
      <contour>
        <pt x="235" y="1140" on="1"/>
        <pt x="498" y="1140" on="1"/>
        <pt x="482" y="926" on="1"/>
        <pt x="520" y="975" on="0"/>
        <pt x="612" y="1060" on="0"/>
        <pt x="715" y="1121" on="0"/>
        <pt x="828" y="1156" on="0"/>
        <pt x="887" y="1156" on="1"/>
        <pt x="947" y="1156" on="0"/>
        <pt x="1040" y="1124" on="0"/>
        <pt x="1103" y="1054" on="0"/>
        <pt x="1136" y="941" on="0"/>
        <pt x="1136" y="860" on="1"/>
        <pt x="1136" y="832" on="0"/>
        <pt x="1125" y="723" on="0"/>
        <pt x="1108" y="579" on="0"/>
        <pt x="1084" y="410" on="0"/>
        <pt x="1059" y="238" on="0"/>
        <pt x="1033" y="71" on="0"/>
        <pt x="1022" y="0" on="1"/>
        <pt x="998" y="-147" on="0"/>
        <pt x="915" y="-347" on="0"/>
        <pt x="793" y="-470" on="0"/>
        <pt x="635" y="-523" on="0"/>
        <pt x="536" y="-523" on="1"/>
        <pt x="510" y="-523" on="0"/>
        <pt x="458" y="-518" on="0"/>
        <pt x="412" y="-509" on="0"/>
        <pt x="376" y="-495" on="0"/>
        <pt x="368" y="-486" on="1"/>
        <pt x="405" y="-385" on="1"/>
        <pt x="412" y="-388" on="0"/>
        <pt x="433" y="-393" on="0"/>
        <pt x="454" y="-396" on="0"/>
        <pt x="473" y="-397" on="0"/>
        <pt x="477" y="-397" on="1"/>
        <pt x="542" y="-397" on="0"/>
        <pt x="633" y="-332" on="0"/>
        <pt x="696" y="-217" on="0"/>
        <pt x="736" y="-60" on="0"/>
        <pt x="750" y="33" on="1"/>
        <pt x="761" y="103" on="0"/>
        <pt x="784" y="253" on="0"/>
        <pt x="805" y="403" on="0"/>
        <pt x="825" y="547" on="0"/>
        <pt x="840" y="676" on="0"/>
        <pt x="850" y="783" on="0"/>
        <pt x="851" y="821" on="1"/>
        <pt x="852" y="855" on="0"/>
        <pt x="840" y="898" on="0"/>
        <pt x="816" y="922" on="0"/>
        <pt x="780" y="931" on="0"/>
        <pt x="758" y="931" on="1"/>
        <pt x="723" y="931" on="0"/>
        <pt x="642" y="896" on="0"/>
        <pt x="560" y="836" on="0"/>
        <pt x="483" y="755" on="0"/>
        <pt x="453" y="709" on="1"/>
        <pt x="356" y="0" on="1"/>
        <pt x="80" y="0" on="1"/>
      </contour>
    </TTGlyph>
    <TTGlyph name="eogonek" xMin="79" yMin="-473" xMax="1011" yMax="1156">
      <contour>
        <pt x="315" y="-299" on="1"/>
        <pt x="315" y="-252" on="0"/>
        <pt x="363" y="-165" on="0"/>
        <pt x="435" y="-91" on="0"/>
        <pt x="517" y="-32" on="0"/>
        <pt x="551" y="-13" on="1"/>
        <pt x="522" y="-16" on="0"/>
        <pt x="493" y="-16" on="1"/>
        <pt x="382" y="-16" on="0"/>
        <pt x="224" y="61" on="0"/>
        <pt x="124" y="187" on="0"/>
        <pt x="79" y="351" on="0"/>
        <pt x="80" y="438" on="1"/>
        <pt x="82" y="591" on="0"/>
        <pt x="176" y="854" on="0"/>
        <pt x="341" y="1046" on="0"/>
        <pt x="567" y="1156" on="0"/>
        <pt x="700" y="1156" on="1"/>
        <pt x="780" y="1156" on="0"/>
        <pt x="897" y="1118" on="0"/>
        <pt x="974" y="1051" on="0"/>
        <pt x="1011" y="957" on="0"/>
        <pt x="1011" y="900" on="1"/>
        <pt x="1011" y="821" on="0"/>
        <pt x="955" y="693" on="0"/>
        <pt x="860" y="591" on="0"/>
        <pt x="733" y="513" on="0"/>
        <pt x="591" y="456" on="0"/>
        <pt x="441" y="416" on="0"/>
        <pt x="371" y="404" on="1"/>
        <pt x="370" y="363" on="0"/>
        <pt x="382" y="284" on="0"/>
        <pt x="421" y="221" on="0"/>
        <pt x="491" y="182" on="0"/>
        <pt x="548" y="182" on="1"/>
        <pt x="591" y="182" on="0"/>
        <pt x="681" y="208" on="0"/>
        <pt x="767" y="252" on="0"/>
        <pt x="845" y="311" on="0"/>
        <pt x="876" y="343" on="1"/>
        <pt x="949" y="202" on="1"/>
        <pt x="929" y="173" on="0"/>
        <pt x="855" y="106" on="0"/>
        <pt x="804" y="74" on="1"/>
        <pt x="767" y="44" on="0"/>
        <pt x="679" y="-37" on="0"/>
        <pt x="603" y="-118" on="0"/>
        <pt x="552" y="-190" on="0"/>
        <pt x="552" y="-213" on="1"/>
        <pt x="552" y="-234" on="0"/>
        <pt x="564" y="-261" on="0"/>
        <pt x="582" y="-276" on="0"/>
        <pt x="605" y="-282" on="0"/>
        <pt x="617" y="-282" on="1"/>
        <pt x="652" y="-282" on="0"/>
        <pt x="717" y="-259" on="0"/>
        <pt x="759" y="-227" on="1"/>
        <pt x="805" y="-364" on="1"/>
        <pt x="758" y="-409" on="0"/>
        <pt x="616" y="-473" on="0"/>
        <pt x="518" y="-473" on="1"/>
        <pt x="468" y="-473" on="0"/>
        <pt x="392" y="-442" on="0"/>
        <pt x="341" y="-393" on="0"/>
        <pt x="315" y="-331" on="0"/>
      </contour>
      <contour>
        <pt x="371" y="563" on="1"/>
        <pt x="406" y="565" on="0"/>
        <pt x="488" y="587" on="0"/>
        <pt x="570" y="627" on="0"/>
        <pt x="647" y="681" on="0"/>
        <pt x="706" y="749" on="0"/>
        <pt x="741" y="829" on="0"/>
        <pt x="741" y="874" on="1"/>
        <pt x="741" y="935" on="0"/>
        <pt x="687" y="984" on="0"/>
        <pt x="639" y="984" on="1"/>
        <pt x="598" y="984" on="0"/>
        <pt x="527" y="944" on="0"/>
        <pt x="470" y="876" on="0"/>
        <pt x="425" y="789" on="0"/>
        <pt x="393" y="696" on="0"/>
        <pt x="374" y="602" on="0"/>
      </contour>
    </TTGlyph>
    <TTGlyph name="equal" xMin="101" yMin="327" xMax="1019" yMax="1031">
      <contour>
        <pt x="191" y="1031" on="1"/>
        <pt x="1019" y="1031" on="1"/>
        <pt x="991" y="828" on="1"/>
        <pt x="164" y="828" on="1"/>
      </contour>
      <contour>
        <pt x="129" y="530" on="1"/>
        <pt x="956" y="530" on="1"/>
        <pt x="929" y="327" on="1"/>
        <pt x="101" y="327" on="1"/>
      </contour>
    </TTGlyph>
    <TTGlyph name="estimated" xMin="120" yMin="-16" xMax="1298" yMax="1358">
      <contour>
        <pt x="438" y="241" on="1"/>
        <pt x="499" y="177" on="0"/>
        <pt x="670" y="124" on="0"/>
        <pt x="770" y="124" on="1"/>
        <pt x="829" y="124" on="0"/>
        <pt x="941" y="145" on="0"/>
        <pt x="1039" y="177" on="0"/>
        <pt x="1118" y="214" on="0"/>
        <pt x="1144" y="231" on="1"/>
        <pt x="1200" y="99" on="1"/>
        <pt x="1167" y="76" on="0"/>
        <pt x="1067" y="34" on="0"/>
        <pt x="948" y="3" on="0"/>
        <pt x="818" y="-16" on="0"/>
        <pt x="755" y="-16" on="1"/>
        <pt x="605" y="-16" on="0"/>
        <pt x="369" y="78" on="0"/>
        <pt x="206" y="255" on="0"/>
        <pt x="120" y="510" on="0"/>
        <pt x="120" y="671" on="1"/>
        <pt x="120" y="818" on="0"/>
        <pt x="198" y="1067" on="0"/>
        <pt x="355" y="1249" on="0"/>
        <pt x="593" y="1353" on="0"/>
        <pt x="754" y="1356" on="1"/>
        <pt x="865" y="1358" on="0"/>
        <pt x="1059" y="1287" on="0"/>
        <pt x="1206" y="1151" on="0"/>
        <pt x="1294" y="955" on="0"/>
        <pt x="1298" y="832" on="1"/>
        <pt x="1298" y="767" on="0"/>
        <pt x="1296" y="660" on="0"/>
        <pt x="1288" y="622" on="1"/>
        <pt x="438" y="622" on="1"/>
      </contour>
      <contour>
        <pt x="995" y="768" on="1"/>
        <pt x="995" y="1142" on="1"/>
        <pt x="953" y="1177" on="0"/>
        <pt x="829" y="1216" on="0"/>
        <pt x="740" y="1216" on="1"/>
        <pt x="648" y="1216" on="0"/>
        <pt x="495" y="1160" on="0"/>
        <pt x="438" y="1097" on="1"/>
        <pt x="438" y="768" on="1"/>
      </contour>
    </TTGlyph>
    <TTGlyph name="eth" xMin="78" yMin="-16" xMax="1117" yMax="1819">
      <contour>
        <pt x="78" y="435" on="1"/>
        <pt x="78" y="606" on="0"/>
        <pt x="165" y="874" on="0"/>
        <pt x="316" y="1059" on="0"/>
        <pt x="519" y="1157" on="0"/>
        <pt x="635" y="1157" on="1"/>
        <pt x="669" y="1157" on="0"/>
        <pt x="735" y="1148" on="0"/>
        <pt x="792" y="1128" on="0"/>
        <pt x="838" y="1098" on="0"/>
        <pt x="853" y="1077" on="1"/>
        <pt x="847" y="1135" on="0"/>
        <pt x="821" y="1231" on="0"/>
        <pt x="782" y="1313" on="0"/>
        <pt x="730" y="1386" on="0"/>
        <pt x="699" y="1420" on="1"/>
        <pt x="571" y="1277" on="1"/>
        <pt x="455" y="1378" on="1"/>
        <pt x="593" y="1519" on="1"/>
        <pt x="539" y="1564" on="0"/>
        <pt x="422" y="1632" on="0"/>
        <pt x="359" y="1649" on="1"/>
        <pt x="411" y="1798" on="1"/>
        <pt x="446" y="1789" on="0"/>
        <pt x="522" y="1760" on="0"/>
        <pt x="600" y="1722" on="0"/>
        <pt x="677" y="1678" on="0"/>
        <pt x="712" y="1654" on="1"/>
        <pt x="736" y="1680" on="0"/>
        <pt x="786" y="1739" on="0"/>
        <pt x="807" y="1763" on="1"/>
        <pt x="832" y="1791" on="0"/>
        <pt x="855" y="1819" on="1"/>
        <pt x="963" y="1717" on="1"/>
        <pt x="826" y="1562" on="1"/>
        <pt x="904" y="1488" on="0"/>
        <pt x="1014" y="1317" on="0"/>
        <pt x="1085" y="1132" on="0"/>
        <pt x="1117" y="936" on="0"/>
        <pt x="1117" y="836" on="1"/>
        <pt x="1117" y="659" on="0"/>
        <pt x="1039" y="349" on="0"/>
        <pt x="885" y="118" on="0"/>
        <pt x="657" y="-16" on="0"/>
        <pt x="506" y="-16" on="1"/>
        <pt x="396" y="-16" on="0"/>
        <pt x="235" y="65" on="0"/>
        <pt x="130" y="194" on="0"/>
        <pt x="78" y="355" on="0"/>
      </contour>
      <contour>
        <pt x="535" y="152" on="1"/>
        <pt x="585" y="152" on="0"/>
        <pt x="674" y="219" on="0"/>
        <pt x="746" y="334" on="0"/>
        <pt x="798" y="488" on="0"/>
        <pt x="811" y="575" on="1"/>
        <pt x="814" y="596" on="0"/>
        <pt x="823" y="665" on="0"/>
        <pt x="831" y="739" on="0"/>
        <pt x="837" y="804" on="0"/>
        <pt x="837" y="822" on="1"/>
        <pt x="838" y="842" on="0"/>
        <pt x="815" y="901" on="0"/>
        <pt x="765" y="956" on="0"/>
        <pt x="691" y="995" on="0"/>
        <pt x="641" y="995" on="1"/>
        <pt x="594" y="995" on="0"/>
        <pt x="517" y="946" on="0"/>
        <pt x="457" y="862" on="0"/>
        <pt x="413" y="750" on="0"/>
        <pt x="384" y="623" on="0"/>
        <pt x="370" y="488" on="0"/>
        <pt x="370" y="423" on="1"/>
        <pt x="370" y="369" on="0"/>
        <pt x="391" y="271" on="0"/>
        <pt x="433" y="196" on="0"/>
        <pt x="495" y="152" on="0"/>
      </contour>
    </TTGlyph>
    <TTGlyph name="exclam" xMin="111" yMin="-26" xMax="665" yMax="1778">
      <contour>
        <pt x="370" y="1778" on="1"/>
        <pt x="665" y="1778" on="1"/>
        <pt x="432" y="488" on="1"/>
        <pt x="224" y="488" on="1"/>
      </contour>
      <contour>
        <pt x="113" y="113" on="1"/>
        <pt x="115" y="150" on="0"/>
        <pt x="146" y="215" on="0"/>
        <pt x="197" y="265" on="0"/>
        <pt x="266" y="294" on="0"/>
        <pt x="306" y="294" on="1"/>
        <pt x="346" y="294" on="0"/>
        <pt x="401" y="272" on="0"/>
        <pt x="434" y="234" on="0"/>
        <pt x="447" y="185" on="0"/>
        <pt x="446" y="157" on="1"/>
        <pt x="444" y="116" on="0"/>
        <pt x="413" y="48" on="0"/>
        <pt x="361" y="0" on="0"/>
        <pt x="291" y="-26" on="0"/>
        <pt x="251" y="-26" on="1"/>
        <pt x="219" y="-26" on="0"/>
        <pt x="167" y="-6" on="0"/>
        <pt x="130" y="31" on="0"/>
        <pt x="111" y="82" on="0"/>
      </contour>
    </TTGlyph>
    <TTGlyph name="exclamdbl" xMin="111" yMin="-26" xMax="1283" yMax="1778">
      <component glyphName="exclam" x="618" y="0" flags="0x4"/>
      <component glyphName="exclam" x="0" y="0" flags="0x4"/>
    </TTGlyph>
    <TTGlyph name="exclamdown" xMin="55" yMin="-434" xMax="609" yMax="1369">
      <component glyphName="exclam" x="720" y="1344" scale="-0.99994" flags="0x4"/>
    </TTGlyph>
    <TTGlyph name="f" xMin="129" yMin="0" xMax="921" yMax="1676">
      <contour>
        <pt x="259" y="954" on="1"/>
        <pt x="129" y="954" on="1"/>
        <pt x="163" y="1140" on="1"/>
        <pt x="285" y="1140" on="1"/>
        <pt x="301" y="1240" on="1"/>
        <pt x="314" y="1337" on="0"/>
        <pt x="388" y="1497" on="0"/>
        <pt x="504" y="1612" on="0"/>
        <pt x="661" y="1676" on="0"/>
        <pt x="757" y="1676" on="1"/>
        <pt x="797" y="1676" on="0"/>
        <pt x="883" y="1667" on="0"/>
        <pt x="921" y="1650" on="1"/>
        <pt x="865" y="1451" on="1"/>
        <pt x="851" y="1462" on="0"/>
        <pt x="788" y="1492" on="0"/>
        <pt x="740" y="1491" on="1"/>
        <pt x="677" y="1490" on="0"/>
        <pt x="593" y="1393" on="0"/>
        <pt x="578" y="1295" on="1"/>
        <pt x="554" y="1140" on="1"/>
        <pt x="754" y="1140" on="1"/>
        <pt x="734" y="954" on="1"/>
        <pt x="531" y="954" on="1"/>
        <pt x="514" y="832" on="0"/>
        <pt x="482" y="596" on="0"/>
        <pt x="453" y="384" on="0"/>
        <pt x="429" y="205" on="0"/>
        <pt x="411" y="74" on="0"/>
        <pt x="401" y="0" on="0"/>
        <pt x="401" y="0" on="1"/>
        <pt x="129" y="0" on="1"/>
      </contour>
    </TTGlyph>
    <TTGlyph name="f_f" xMin="129" yMin="0" xMax="1651" yMax="1676">
      <component glyphName="f" x="0" y="0" flags="0x4"/>
      <component glyphName="f" x="730" y="0" flags="0x4"/>
    </TTGlyph>
    <TTGlyph name="f_f_i" xMin="129" yMin="0" xMax="2079" yMax="1676">
      <component glyphName="dotlessi" x="1460" y="0" flags="0x4"/>
      <component glyphName="dotaccent" x="1720" y="0" flags="0x4"/>
      <component glyphName="f" x="0" y="0" flags="0x4"/>
      <component glyphName="f" x="730" y="0" flags="0x4"/>
    </TTGlyph>
    <TTGlyph name="f_f_i_trk" xMin="129" yMin="0" xMax="2081" yMax="1676">
      <component glyphName="f" x="0" y="0" flags="0x4"/>
      <component glyphName="f" x="730" y="0" flags="0x4"/>
      <component glyphName="dotlessi" x="1460" y="0" flags="0x4"/>
      <component glyphName="dotaccent" x="1722" y="2" flags="0x4"/>
    </TTGlyph>
    <TTGlyph name="f_f_l" xMin="129" yMin="0" xMax="2063" yMax="1676">
      <component glyphName="l" x="1460" y="0" flags="0x4"/>
      <component glyphName="f" x="0" y="0" flags="0x4"/>
      <component glyphName="f" x="730" y="0" flags="0x4"/>
    </TTGlyph>
    <TTGlyph name="f_i_trk" xMin="129" yMin="0" xMax="1351" yMax="1676">
      <component glyphName="f" x="0" y="0" flags="0x4"/>
      <component glyphName="dotlessi" x="730" y="0" flags="0x4"/>
      <component glyphName="dotaccent" x="992" y="2" flags="0x4"/>
    </TTGlyph>
    <TTGlyph name="ffi_dflt" xMin="129" yMin="0" xMax="2079" yMax="1676">
      <component glyphName="dotlessi" x="1460" y="0" flags="0x4"/>
      <component glyphName="dotaccent" x="1720" y="0" flags="0x4"/>
      <component glyphName="f" x="0" y="0" flags="0x4"/>
      <component glyphName="f" x="730" y="0" flags="0x4"/>
    </TTGlyph>
    <TTGlyph name="fi" xMin="129" yMin="0" xMax="1349" yMax="1676">
      <component glyphName="dotlessi" x="730" y="0" flags="0x4"/>
      <component glyphName="dotaccent" x="990" y="0" flags="0x4"/>
      <component glyphName="f" x="0" y="0" flags="0x4"/>
    </TTGlyph>
    <TTGlyph name="fi_trk" xMin="129" yMin="0" xMax="1349" yMax="1676">
      <component glyphName="dotlessi" x="730" y="0" flags="0x4"/>
      <component glyphName="dotaccent" x="990" y="0" flags="0x4"/>
      <component glyphName="f" x="0" y="0" flags="0x4"/>
    </TTGlyph>
    <TTGlyph name="five" xMin="40" yMin="-356" xMax="1065" yMax="1159">
      <contour>
        <pt x="70" y="-153" on="1"/>
        <pt x="93" y="-157" on="0"/>
        <pt x="132" y="-160" on="0"/>
        <pt x="149" y="-160" on="1"/>
        <pt x="211" y="-160" on="0"/>
        <pt x="339" y="-143" on="0"/>
        <pt x="460" y="-108" on="0"/>
        <pt x="567" y="-53" on="0"/>
        <pt x="647" y="24" on="0"/>
        <pt x="693" y="123" on="0"/>
        <pt x="693" y="186" on="1"/>
        <pt x="693" y="236" on="0"/>
        <pt x="669" y="316" on="0"/>
        <pt x="616" y="372" on="0"/>
        <pt x="533" y="402" on="0"/>
        <pt x="474" y="402" on="1"/>
        <pt x="447" y="402" on="0"/>
        <pt x="382" y="394" on="0"/>
        <pt x="316" y="380" on="0"/>
        <pt x="254" y="360" on="0"/>
        <pt x="230" y="349" on="1"/>
        <pt x="131" y="454" on="1"/>
        <pt x="288" y="1143" on="1"/>
        <pt x="855" y="1143" on="1"/>
        <pt x="877" y="1159" on="1"/>
        <pt x="1065" y="1159" on="1"/>
        <pt x="1005" y="921" on="1"/>
        <pt x="498" y="921" on="1"/>
        <pt x="401" y="561" on="1"/>
        <pt x="420" y="567" on="0"/>
        <pt x="473" y="579" on="0"/>
        <pt x="532" y="588" on="0"/>
        <pt x="595" y="593" on="0"/>
        <pt x="624" y="593" on="1"/>
        <pt x="805" y="593" on="0"/>
        <pt x="1004" y="406" on="0"/>
        <pt x="1004" y="225" on="1"/>
        <pt x="1004" y="91" on="0"/>
        <pt x="877" y="-124" on="0"/>
        <pt x="653" y="-275" on="0"/>
        <pt x="348" y="-356" on="0"/>
        <pt x="170" y="-356" on="1"/>
        <pt x="158" y="-356" on="0"/>
        <pt x="125" y="-355" on="0"/>
        <pt x="90" y="-351" on="0"/>
        <pt x="55" y="-344" on="0"/>
        <pt x="40" y="-339" on="1"/>
        <pt x="70" y="-153" on="1"/>
      </contour>
    </TTGlyph>
    <TTGlyph name="fl" xMin="129" yMin="0" xMax="1333" yMax="1676">
      <component glyphName="l" x="730" y="0" flags="0x4"/>
      <component glyphName="f" x="0" y="0" flags="0x4"/>
    </TTGlyph>
    <TTGlyph name="florin" xMin="191" yMin="-356" xMax="1037" yMax="1674">
      <contour>
        <pt x="376" y="969" on="1"/>
        <pt x="191" y="969" on="1"/>
        <pt x="208" y="1113" on="1"/>
        <pt x="402" y="1155" on="1"/>
        <pt x="415" y="1238" on="1"/>
        <pt x="429" y="1340" on="0"/>
        <pt x="514" y="1502" on="0"/>
        <pt x="636" y="1614" on="0"/>
        <pt x="788" y="1674" on="0"/>
        <pt x="870" y="1674" on="1"/>
        <pt x="924" y="1674" on="0"/>
        <pt x="1011" y="1664" on="0"/>
        <pt x="1037" y="1653" on="1"/>
        <pt x="1000" y="1449" on="1"/>
        <pt x="994" y="1453" on="0"/>
        <pt x="973" y="1466" on="0"/>
        <pt x="941" y="1479" on="0"/>
        <pt x="897" y="1488" on="0"/>
        <pt x="869" y="1488" on="1"/>
        <pt x="835" y="1488" on="0"/>
        <pt x="779" y="1472" on="0"/>
        <pt x="735" y="1429" on="0"/>
        <pt x="703" y="1354" on="0"/>
        <pt x="693" y="1294" on="1"/>
        <pt x="671" y="1155" on="1"/>
        <pt x="902" y="1155" on="1"/>
        <pt x="882" y="969" on="1"/>
        <pt x="648" y="969" on="1"/>
        <pt x="635" y="877" on="0"/>
        <pt x="607" y="666" on="0"/>
        <pt x="577" y="446" on="0"/>
        <pt x="548" y="225" on="0"/>
        <pt x="521" y="23" on="0"/>
        <pt x="498" y="-152" on="0"/>
        <pt x="481" y="-281" on="0"/>
        <pt x="471" y="-356" on="0"/>
        <pt x="471" y="-356" on="1"/>
        <pt x="198" y="-356" on="1"/>
      </contour>
    </TTGlyph>
    <TTGlyph name="four" xMin="11" yMin="-375" xMax="1185" yMax="1256">
      <contour>
        <pt x="11" y="129" on="1"/>
        <pt x="90" y="266" on="0"/>
        <pt x="248" y="538" on="0"/>
        <pt x="405" y="815" on="0"/>
        <pt x="561" y="1103" on="0"/>
        <pt x="639" y="1256" on="1"/>
        <pt x="811" y="1256" on="1"/>
        <pt x="923" y="1167" on="1"/>
        <pt x="370" y="282" on="1"/>
        <pt x="291" y="177" on="1"/>
        <pt x="701" y="194" on="1"/>
        <pt x="756" y="614" on="1"/>
        <pt x="1014" y="649" on="1"/>
        <pt x="959" y="203" on="1"/>
        <pt x="1185" y="218" on="1"/>
        <pt x="1156" y="0" on="1"/>
        <pt x="931" y="0" on="1"/>
        <pt x="884" y="-375" on="1"/>
        <pt x="625" y="-375" on="1"/>
        <pt x="674" y="0" on="1"/>
        <pt x="68" y="0" on="1"/>
      </contour>
    </TTGlyph>
    <TTGlyph name="four.numr" xMin="92" yMin="441" xMax="1141" yMax="1760">
      <contour>
        <pt x="653" y="759" on="1"/>
        <pt x="141" y="759" on="1"/>
        <pt x="92" y="871" on="1"/>
        <pt x="670" y="1759" on="1"/>
        <pt x="728" y="1760" on="1"/>
        <pt x="901" y="1656" on="1"/>
        <pt x="433" y="1017" on="1"/>
        <pt x="360" y="928" on="1"/>
        <pt x="678" y="940" on="1"/>
        <pt x="713" y="1191" on="1"/>
        <pt x="948" y="1214" on="1"/>
        <pt x="914" y="949" on="1"/>
        <pt x="1141" y="958" on="1"/>
        <pt x="1119" y="759" on="1"/>
        <pt x="889" y="759" on="1"/>
        <pt x="849" y="441" on="1"/>
        <pt x="609" y="441" on="1"/>
      </contour>
    </TTGlyph>
    <TTGlyph name="foursuperior" xMin="92" yMin="441" xMax="1141" yMax="1760">
      <contour>
        <pt x="653" y="759" on="1"/>
        <pt x="141" y="759" on="1"/>
        <pt x="92" y="871" on="1"/>
        <pt x="670" y="1759" on="1"/>
        <pt x="728" y="1760" on="1"/>
        <pt x="901" y="1656" on="1"/>
        <pt x="433" y="1017" on="1"/>
        <pt x="360" y="928" on="1"/>
        <pt x="678" y="940" on="1"/>
        <pt x="713" y="1191" on="1"/>
        <pt x="948" y="1214" on="1"/>
        <pt x="914" y="949" on="1"/>
        <pt x="1141" y="958" on="1"/>
        <pt x="1119" y="759" on="1"/>
        <pt x="889" y="759" on="1"/>
        <pt x="849" y="441" on="1"/>
        <pt x="609" y="441" on="1"/>
      </contour>
    </TTGlyph>
    <TTGlyph name="fraction" xMin="110" yMin="0" xMax="1000" yMax="1530">
      <contour>
        <pt x="791" y="1530" on="1"/>
        <pt x="1000" y="1530" on="1"/>
        <pt x="319" y="0" on="1"/>
        <pt x="110" y="0" on="1"/>
      </contour>
    </TTGlyph>
    <TTGlyph name="franc" xMin="-27" yMin="0" xMax="1172" yMax="1530">
      <contour>
        <pt x="182" y="228" on="1"/>
        <pt x="-27" y="228" on="1"/>
        <pt x="-8" y="402" on="1"/>
        <pt x="205" y="402" on="1"/>
        <pt x="358" y="1530" on="1"/>
        <pt x="1172" y="1530" on="1"/>
        <pt x="1142" y="1307" on="1"/>
        <pt x="613" y="1313" on="1"/>
        <pt x="555" y="872" on="1"/>
        <pt x="1001" y="879" on="1"/>
        <pt x="976" y="642" on="1"/>
        <pt x="524" y="653" on="1"/>
        <pt x="490" y="402" on="1"/>
        <pt x="773" y="402" on="1"/>
        <pt x="753" y="228" on="1"/>
        <pt x="467" y="228" on="1"/>
        <pt x="436" y="0" on="1"/>
        <pt x="151" y="0" on="1"/>
      </contour>
    </TTGlyph>
    <TTGlyph name="g" xMin="75" yMin="-511" xMax="1139" yMax="1156">
      <contour>
        <pt x="173" y="-261" on="1"/>
        <pt x="187" y="-269" on="0"/>
        <pt x="244" y="-294" on="0"/>
        <pt x="318" y="-316" on="0"/>
        <pt x="403" y="-332" on="0"/>
        <pt x="445" y="-332" on="1"/>
        <pt x="504" y="-332" on="0"/>
        <pt x="587" y="-299" on="0"/>
        <pt x="644" y="-237" on="0"/>
        <pt x="679" y="-151" on="0"/>
        <pt x="690" y="-97" on="1"/>
        <pt x="745" y="219" on="1"/>
        <pt x="720" y="177" on="0"/>
        <pt x="650" y="93" on="0"/>
        <pt x="563" y="26" on="0"/>
        <pt x="458" y="-16" on="0"/>
        <pt x="398" y="-16" on="1"/>
        <pt x="311" y="-16" on="0"/>
        <pt x="188" y="49" on="0"/>
        <pt x="111" y="165" on="0"/>
        <pt x="75" y="322" on="0"/>
        <pt x="75" y="414" on="1"/>
        <pt x="75" y="499" on="0"/>
        <pt x="111" y="675" on="0"/>
        <pt x="185" y="840" on="0"/>
        <pt x="296" y="985" on="0"/>
        <pt x="446" y="1093" on="0"/>
        <pt x="635" y="1156" on="0"/>
        <pt x="750" y="1156" on="1"/>
        <pt x="779" y="1156" on="0"/>
        <pt x="842" y="1149" on="0"/>
        <pt x="905" y="1138" on="0"/>
        <pt x="963" y="1124" on="0"/>
        <pt x="987" y="1117" on="1"/>
        <pt x="1139" y="1156" on="1"/>
        <pt x="972" y="-61" on="1"/>
        <pt x="959" y="-149" on="0"/>
        <pt x="897" y="-285" on="0"/>
        <pt x="808" y="-385" on="0"/>
        <pt x="698" y="-452" on="0"/>
        <pt x="578" y="-494" on="0"/>
        <pt x="452" y="-511" on="0"/>
        <pt x="392" y="-511" on="1"/>
        <pt x="357" y="-511" on="0"/>
        <pt x="276" y="-504" on="0"/>
        <pt x="199" y="-492" on="0"/>
        <pt x="137" y="-478" on="0"/>
        <pt x="122" y="-471" on="1"/>
      </contour>
      <contour>
        <pt x="478" y="182" on="1"/>
        <pt x="523" y="182" on="0"/>
        <pt x="609" y="242" on="0"/>
        <pt x="686" y="332" on="0"/>
        <pt x="748" y="439" on="0"/>
        <pt x="769" y="486" on="1"/>
        <pt x="836" y="967" on="1"/>
        <pt x="785" y="980" on="0"/>
        <pt x="722" y="980" on="1"/>
        <pt x="660" y="980" on="0"/>
        <pt x="559" y="933" on="0"/>
        <pt x="479" y="852" on="0"/>
        <pt x="420" y="744" on="0"/>
        <pt x="381" y="624" on="0"/>
        <pt x="362" y="497" on="0"/>
        <pt x="362" y="437" on="1"/>
        <pt x="362" y="304" on="0"/>
        <pt x="422" y="182" on="0"/>
      </contour>
    </TTGlyph>
    <TTGlyph name="gbreve" xMin="75" yMin="-511" xMax="1139" yMax="1666">
      <component glyphName="g" x="0" y="0" flags="0x204"/>
      <component glyphName="breve" x="414" y="0" flags="0x4"/>
    </TTGlyph>
    <TTGlyph name="gcircumflex" xMin="75" yMin="-511" xMax="1139" yMax="1660">
      <component glyphName="circumflex" x="345" y="0" flags="0x4"/>
      <component glyphName="g" x="0" y="0" flags="0x4"/>
    </TTGlyph>
    <TTGlyph name="gcommaaccent" xMin="75" yMin="-511" xMax="1139" yMax="1759">
      <contour>
        <pt x="731" y="1243" on="1"/>
        <pt x="698" y="1250" on="0"/>
        <pt x="645" y="1291" on="0"/>
        <pt x="606" y="1349" on="0"/>
        <pt x="585" y="1421" on="0"/>
        <pt x="585" y="1459" on="1"/>
        <pt x="585" y="1522" on="0"/>
        <pt x="623" y="1626" on="0"/>
        <pt x="683" y="1704" on="0"/>
        <pt x="756" y="1752" on="0"/>
        <pt x="790" y="1759" on="1"/>
        <pt x="881" y="1699" on="1"/>
        <pt x="878" y="1673" on="1"/>
        <pt x="851" y="1654" on="0"/>
        <pt x="809" y="1590" on="0"/>
        <pt x="809" y="1534" on="1"/>
        <pt x="809" y="1516" on="0"/>
        <pt x="820" y="1480" on="0"/>
        <pt x="838" y="1451" on="0"/>
        <pt x="864" y="1431" on="0"/>
        <pt x="879" y="1429" on="1"/>
        <pt x="871" y="1355" on="1"/>
      </contour>
      <contour>
        <pt x="173" y="-261" on="1"/>
        <pt x="187" y="-269" on="0"/>
        <pt x="244" y="-294" on="0"/>
        <pt x="318" y="-316" on="0"/>
        <pt x="403" y="-332" on="0"/>
        <pt x="445" y="-332" on="1"/>
        <pt x="504" y="-332" on="0"/>
        <pt x="587" y="-299" on="0"/>
        <pt x="644" y="-237" on="0"/>
        <pt x="679" y="-151" on="0"/>
        <pt x="690" y="-97" on="1"/>
        <pt x="745" y="219" on="1"/>
        <pt x="720" y="177" on="0"/>
        <pt x="650" y="93" on="0"/>
        <pt x="563" y="26" on="0"/>
        <pt x="458" y="-16" on="0"/>
        <pt x="398" y="-16" on="1"/>
        <pt x="311" y="-16" on="0"/>
        <pt x="188" y="49" on="0"/>
        <pt x="111" y="165" on="0"/>
        <pt x="75" y="322" on="0"/>
        <pt x="75" y="414" on="1"/>
        <pt x="75" y="499" on="0"/>
        <pt x="111" y="675" on="0"/>
        <pt x="185" y="840" on="0"/>
        <pt x="296" y="985" on="0"/>
        <pt x="446" y="1093" on="0"/>
        <pt x="635" y="1156" on="0"/>
        <pt x="750" y="1156" on="1"/>
        <pt x="779" y="1156" on="0"/>
        <pt x="842" y="1149" on="0"/>
        <pt x="905" y="1138" on="0"/>
        <pt x="963" y="1124" on="0"/>
        <pt x="987" y="1117" on="1"/>
        <pt x="1139" y="1156" on="1"/>
        <pt x="972" y="-61" on="1"/>
        <pt x="959" y="-149" on="0"/>
        <pt x="897" y="-285" on="0"/>
        <pt x="808" y="-385" on="0"/>
        <pt x="698" y="-452" on="0"/>
        <pt x="578" y="-494" on="0"/>
        <pt x="452" y="-511" on="0"/>
        <pt x="392" y="-511" on="1"/>
        <pt x="357" y="-511" on="0"/>
        <pt x="276" y="-504" on="0"/>
        <pt x="199" y="-492" on="0"/>
        <pt x="137" y="-478" on="0"/>
        <pt x="122" y="-471" on="1"/>
      </contour>
      <contour>
        <pt x="478" y="182" on="1"/>
        <pt x="523" y="182" on="0"/>
        <pt x="609" y="242" on="0"/>
        <pt x="686" y="332" on="0"/>
        <pt x="748" y="439" on="0"/>
        <pt x="769" y="486" on="1"/>
        <pt x="836" y="967" on="1"/>
        <pt x="785" y="980" on="0"/>
        <pt x="722" y="980" on="1"/>
        <pt x="660" y="980" on="0"/>
        <pt x="559" y="933" on="0"/>
        <pt x="479" y="852" on="0"/>
        <pt x="420" y="744" on="0"/>
        <pt x="381" y="624" on="0"/>
        <pt x="362" y="497" on="0"/>
        <pt x="362" y="437" on="1"/>
        <pt x="362" y="304" on="0"/>
        <pt x="422" y="182" on="0"/>
      </contour>
    </TTGlyph>
    <TTGlyph name="gdotaccent" xMin="75" yMin="-511" xMax="1139" yMax="1666">
      <component glyphName="g" x="0" y="0" flags="0x204"/>
      <component glyphName="dotaccent" x="595" y="0" flags="0x4"/>
    </TTGlyph>
</ttFont>
